SplineFontDB: 3.0
FontName: SpaceCodePro-Regular
FullName: Space Code Pro
FamilyName: Space Code Pro
Weight: Regular
Copyright: Based on Source Code Pro, distributed under an SIL OPEN FONT LICENSE. Copyright 2010, 2012 Adobe Systems Incorporated (http://www.adobe.com/), with Reserved Font Name 'Source'. All Rights Reserved. Source is a trademark of Adobe Systems Incorporated in the United States and/or other countries.
Version: 1.0
ItalicAngle: 0
UnderlinePosition: -100
UnderlineWidth: 50
Ascent: 750
Descent: 250
InvalidEm: 0
sfntRevision: 0x0002028f
LayerCount: 2
Layer: 0 0 "Back" 1
Layer: 1 0 "Fore" 0
XUID: [1021 71 2027841715 1802601]
BaseHoriz: 2 'ideo' 'romn'
BaseScript: 'DFLT' 1  -170 0
BaseScript: 'cyrl' 1  -170 0
BaseScript: 'grek' 1  -170 0
BaseScript: 'latn' 1  -170 0
StyleMap: 0x0000
FSType: 0
OS2Version: 3
OS2_WeightWidthSlopeOnly: 0
OS2_UseTypoMetrics: 0
CreationTime: 1436292802
ModificationTime: 1468278922
PfmFamily: 17
TTFWeight: 400
TTFWidth: 5
LineGap: 0
VLineGap: 0
Panose: 2 11 4 9 3 4 3 2 2 4
OS2TypoAscent: 750
OS2TypoAOffset: 0
OS2TypoDescent: -250
OS2TypoDOffset: 0
OS2TypoLinegap: 0
OS2WinAscent: 984
OS2WinAOffset: 0
OS2WinDescent: 273
OS2WinDOffset: 0
HheadAscent: 984
HheadAOffset: 0
HheadDescent: -273
HheadDOffset: 0
OS2SubXSize: 650
OS2SubYSize: 600
OS2SubXOff: 0
OS2SubYOff: 75
OS2SupXSize: 650
OS2SupYSize: 600
OS2SupXOff: 0
OS2SupYOff: 350
OS2StrikeYSize: 50
OS2StrikeYPos: 288
OS2CapHeight: 660
OS2XHeight: 480
OS2Vendor: 'VIMU'
OS2CodePages: 6000019f.00000000
OS2UnicodeRanges: 200002f7.02003803.00000000.00000000
Lookup: 1 0 0 "'ss02' Style Set 2 lookup 0" { "'ss02' Style Set 2 lookup 0 subtable"  } ['cv01' ('DFLT' <'dflt' > 'cyrl' <'SRB ' 'dflt' > 'grek' <'dflt' > 'latn' <'NSM ' 'SKS ' 'dflt' > ) 'salt' ('DFLT' <'dflt' > 'cyrl' <'SRB ' 'dflt' > 'grek' <'dflt' > 'latn' <'NSM ' 'SKS ' 'dflt' > ) 'ss02' ('DFLT' <'dflt' > 'cyrl' <'SRB ' 'dflt' > 'grek' <'dflt' > 'latn' <'NSM ' 'SKS ' 'dflt' > ) ]

StartChar: .notdef
Encoding: 1114112 -1 0
Width: 600
Flags: MW
HStem: 0 39<142 454 142 522> 619 41<157 441 157 157>
VStem: 78 45<84 84 84 600> 475 47<84 600 600 600>
LayerCount: 2
Fore
SplineSet
78 0 m 1
 78 660 l 1
 522 660 l 1
 522 0 l 1
 78 0 l 1
142 39 m 1
 454 39 l 1
 361 203 l 1
 302 308 l 1
 298 308 l 1
 237 203 l 1
 142 39 l 1
123 84 m 1
 270 340 l 1
 123 600 l 1
 123 84 l 1
298 372 m 1
 302 372 l 1
 355 464 l 1
 441 619 l 1
 157 619 l 1
 244 464 l 1
 298 372 l 1
330 340 m 1
 475 84 l 1
 475 600 l 1
 330 340 l 1
EndSplineSet
Validated: 1
EndChar

StartChar: A
Encoding: 65 65 2
Width: 600
GlyphClass: 2
Flags: MW
HStem: 0 21G<45 45 45 91 506 506 506 555> 226 39<183 417 183 430 169 417> 616 43<298 302 298 298>
VStem: 45 510<0 0>
AnchorPoint: "Anchor-6" 510 0 basechar 0
AnchorPoint: "Anchor-3" 300 -20 basechar 0
AnchorPoint: "Anchor-2" 523 0 basechar 0
AnchorPoint: "Anchor-0" 300 679 basechar 0
LayerCount: 2
Fore
SplineSet
225 388 m 2
 183 265 l 1
 417 265 l 1
 375 388 l 2
 348 466 325 535 302 616 c 1
 298 616 l 1
 275 535 251 466 225 388 c 2
45 0 m 1
 277 659 l 1
 323 659 l 1
 555 0 l 1
 506 0 l 1
 430 226 l 1
 169 226 l 1
 91 0 l 1
 45 0 l 1
EndSplineSet
Validated: 1
EndChar

StartChar: B
Encoding: 66 66 3
Width: 600
GlyphClass: 2
Flags: MW
HStem: 0 39<160 282 282 294> 330 40<160 263 263 282 160 263> 620 39<160 268 160 160>
VStem: 114 46<39 39 39 330 370 620> 451 46<464.5 541> 492 46<139 237.5 128.5 239>
AnchorPoint: "Anchor-3" 306 -20 basechar 0
AnchorPoint: "Anchor-0" 297 679 basechar 0
LayerCount: 2
Fore
SplineSet
114 0 m 1xf4
 114 659 l 1
 281 659 l 2
 417 659 497 609 497 499 c 0xf8
 497 430 458 375 380 355 c 1
 380 351 l 1
 478 337 538 283 538 192 c 0
 538 65 446 0 294 0 c 2
 114 0 l 1xf4
160 370 m 1
 263 370 l 2
 398 370 451 413 451 497 c 0
 451 585 392 620 268 620 c 2
 160 620 l 1
 160 370 l 1
160 39 m 1
 282 39 l 2
 416 39 492 86 492 192 c 0xf4
 492 286 417 330 282 330 c 2
 160 330 l 1
 160 39 l 1
EndSplineSet
Validated: 1
EndChar

StartChar: C
Encoding: 67 67 4
Width: 600
GlyphClass: 2
Flags: MW
HStem: -12 42<281 385.5 281 391> 629 42<282.5 385>
VStem: 72 48<239.5 422.5 239.5 435.5>
AnchorPoint: "Anchor-3" 345 -20 basechar 0
AnchorPoint: "Anchor-2" 354 0 basechar 0
AnchorPoint: "Anchor-0" 342 679 basechar 0
LayerCount: 2
Fore
SplineSet
348 -12 m 0
 186 -12 72 121 72 331 c 0
 72 540 186 671 355 671 c 0
 431 671 491 633 526 592 c 1
 498 562 l 1
 463 602 415 629 355 629 c 0
 210 629 120 514 120 331 c 0
 120 148 210 30 352 30 c 0
 419 30 469 57 517 111 c 1
 545 82 l 1
 494 24 434 -12 348 -12 c 0
EndSplineSet
Validated: 1
EndChar

StartChar: D
Encoding: 68 68 5
Width: 600
GlyphClass: 2
Flags: MW
HStem: 0 39<142 244 244 249> 620 39<142 244 142 142>
VStem: 96 46<39 39 39 620> 498 48<246 417.5>
AnchorPoint: "Anchor-3" 291 -20 basechar 0
AnchorPoint: "Anchor-2" 289 0 basechar 0
AnchorPoint: "Anchor-0" 300 679 basechar 0
LayerCount: 2
Fore
SplineSet
96 0 m 1
 96 659 l 1
 248 659 l 2
 451 659 546 531 546 332 c 0
 546 132 451 0 249 0 c 2
 96 0 l 1
142 39 m 1
 244 39 l 2
 421 39 498 160 498 332 c 0
 498 503 421 620 244 620 c 2
 142 620 l 1
 142 39 l 1
EndSplineSet
Validated: 1
EndChar

StartChar: E
Encoding: 69 69 6
Width: 600
GlyphClass: 2
Flags: MW
HStem: 0 40<173 527 173 527> 330 40<173 463 173 463> 619 40<173 517 173 173>
VStem: 127 46<40 330 370 619>
AnchorPoint: "Anchor-6" 429 0 basechar 0
AnchorPoint: "Anchor-3" 338 -20 basechar 0
AnchorPoint: "Anchor-2" 329 0 basechar 0
AnchorPoint: "Anchor-0" 336 679 basechar 0
LayerCount: 2
Fore
SplineSet
127 0 m 1
 127 659 l 1
 517 659 l 1
 517 619 l 1
 173 619 l 1
 173 370 l 1
 463 370 l 1
 463 330 l 1
 173 330 l 1
 173 40 l 1
 527 40 l 1
 527 0 l 1
 127 0 l 1
EndSplineSet
Validated: 1
EndChar

StartChar: F
Encoding: 70 70 7
Width: 600
GlyphClass: 2
Flags: MW
HStem: 0 21G<150 150 150 196> 317 40<196 481 196 481> 619 40<196 535 196 196>
VStem: 150 46<0 317 357 619>
AnchorPoint: "Anchor-3" 181 -20 basechar 0
AnchorPoint: "Anchor-2" 166 0 basechar 0
AnchorPoint: "Anchor-0" 347 679 basechar 0
LayerCount: 2
Fore
SplineSet
150 0 m 1
 150 659 l 1
 535 659 l 1
 535 619 l 1
 196 619 l 1
 196 357 l 1
 481 357 l 1
 481 317 l 1
 196 317 l 1
 196 0 l 1
 150 0 l 1
EndSplineSet
Validated: 1
EndChar

StartChar: G
Encoding: 71 71 8
Width: 600
GlyphClass: 2
Flags: MW
HStem: -12 42<265 366 265 376.5> 285 39<328 480 328 525> 629 42<270.5 378>
VStem: 59 48<239.5 422.5 239.5 435.5> 480 45<80 285 285 285>
AnchorPoint: "Anchor-3" 334 -20 basechar 0
AnchorPoint: "Anchor-0" 330 679 basechar 0
LayerCount: 2
Fore
SplineSet
334 -12 m 0
 170 -12 59 121 59 331 c 0
 59 540 173 671 343 671 c 0
 430 671 484 629 518 592 c 1
 491 562 l 1
 458 599 413 629 343 629 c 0
 198 629 107 514 107 331 c 0
 107 148 193 30 337 30 c 0
 395 30 449 48 480 80 c 1
 480 285 l 1
 328 285 l 1
 328 324 l 1
 525 324 l 1
 525 63 l 1
 485 19 419 -12 334 -12 c 0
EndSplineSet
Validated: 1
EndChar

StartChar: H
Encoding: 72 72 9
Width: 600
GlyphClass: 2
Flags: MW
HStem: 0 21G<89 89 89 135 465 465 465 511> 330 40<135 465 135 465> 639 20G<89 135 135 135 465 511 511 511>
VStem: 89 46<0 330 370 659> 465 46<0 330 330 330 370 659 0 659>
AnchorPoint: "Anchor-3" 300 -20 basechar 0
AnchorPoint: "Anchor-2" 112 0 basechar 0
AnchorPoint: "Anchor-0" 300 679 basechar 0
LayerCount: 2
Fore
SplineSet
89 0 m 1
 89 659 l 1
 135 659 l 1
 135 370 l 1
 465 370 l 1
 465 659 l 1
 511 659 l 1
 511 0 l 1
 465 0 l 1
 465 330 l 1
 135 330 l 1
 135 0 l 1
 89 0 l 1
EndSplineSet
Validated: 1
EndChar

StartChar: I
Encoding: 73 73 10
Width: 600
GlyphClass: 2
Flags: MW
HStem: 0 40<107 277 107 277 323 493> 619 40<107 277 107 493 323 323 323 493>
VStem: 277 46<40 619 40 619>
AnchorPoint: "Anchor-6" 300 0 basechar 0
AnchorPoint: "Anchor-3" 300 -20 basechar 0
AnchorPoint: "Anchor-2" 300 0 basechar 0
AnchorPoint: "Anchor-0" 300 679 basechar 0
LayerCount: 2
Fore
SplineSet
107 0 m 1
 107 40 l 1
 277 40 l 1
 277 619 l 1
 107 619 l 1
 107 659 l 1
 493 659 l 1
 493 619 l 1
 323 619 l 1
 323 40 l 1
 493 40 l 1
 493 0 l 1
 107 0 l 1
EndSplineSet
Validated: 1
EndChar

StartChar: J
Encoding: 74 74 11
Width: 600
GlyphClass: 2
Flags: MW
HStem: -12 42<249.5 332 249.5 353.5> 621 39<147 434 147 480>
VStem: 434 46<208 621 621 621>
AnchorPoint: "Anchor-3" 300 -20 basechar 0
AnchorPoint: "Anchor-0" 321 679 basechar 0
LayerCount: 2
Fore
SplineSet
277 -12 m 0
 204 -12 132 25 93 98 c 1
 126 125 l 1
 164 59 222 30 277 30 c 0
 387 30 434 88 434 208 c 2
 434 621 l 1
 147 621 l 1
 147 660 l 1
 480 660 l 1
 480 204 l 2
 480 84 430 -12 277 -12 c 0
EndSplineSet
Validated: 1
EndChar

StartChar: K
Encoding: 75 75 12
Width: 600
GlyphClass: 2
Flags: MW
HStem: 0 21G<115 115 115 162 518 518 518 571> 639 20G<115 162 162 162 489 544 544 544>
VStem: 115 47<0 227 293 659>
AnchorPoint: "Anchor-3" 346 -20 basechar 0
AnchorPoint: "Anchor-0" 328 679 basechar 0
LayerCount: 2
Fore
SplineSet
115 0 m 1
 115 659 l 1
 162 659 l 1
 162 293 l 1
 164 293 l 1
 489 659 l 1
 544 659 l 1
 329 416 l 1
 571 0 l 1
 518 0 l 1
 298 381 l 1
 162 227 l 1
 162 0 l 1
 115 0 l 1
EndSplineSet
Validated: 1
EndChar

StartChar: L
Encoding: 76 76 13
Width: 600
GlyphClass: 2
Flags: MW
HStem: 0 40<194 539 194 539> 639 20G<150 194 194 194>
VStem: 150 44<40 659 40 659 40 659>
AnchorPoint: "Anchor-4" 175 332 basechar 0
AnchorPoint: "Anchor-3" 357 -20 basechar 0
AnchorPoint: "Anchor-2" 357 0 basechar 0
AnchorPoint: "Anchor-0" 187 679 basechar 0
LayerCount: 2
Fore
SplineSet
150 0 m 1
 150 659 l 1
 194 659 l 1
 194 40 l 1
 539 40 l 1
 539 0 l 1
 150 0 l 1
EndSplineSet
Validated: 1
EndChar

StartChar: M
Encoding: 77 77 14
Width: 600
GlyphClass: 2
Flags: MW
HStem: 0 21G<81 81 81 125 474 474 474 519> 175 60<298 302 298 317 281 302> 606 53<118 120 118 118 477 480 477 477>
VStem: 81 44<0 450 0 659> 474 45<0 450 450 473.5>
AnchorPoint: "Anchor-3" 300 -20 basechar 0
AnchorPoint: "Anchor-2" 489 0 basechar 0
AnchorPoint: "Anchor-0" 300 679 basechar 0
LayerCount: 2
Fore
SplineSet
81 0 m 1
 81 659 l 1
 142 659 l 1
 257 350 l 1
 298 235 l 1
 302 235 l 1
 341 350 l 1
 458 659 l 1
 519 659 l 1
 519 0 l 1
 474 0 l 1
 474 450 l 2
 474 497 478 561 480 606 c 1
 477 606 l 1
 441 493 l 1
 317 175 l 1
 281 175 l 1
 159 493 l 1
 120 606 l 1
 118 606 l 1
 120 561 125 497 125 450 c 2
 125 0 l 1
 81 0 l 1
EndSplineSet
Validated: 1
EndChar

StartChar: N
Encoding: 78 78 15
Width: 600
GlyphClass: 2
Flags: MW
HStem: 0 21G<92 92 92 136 459 459 459 508> 0 63<459 470 468 470 468 508> 596 63<130 132 130 130> 639 20G<92 141 141 141 464 508 508 508>
VStem: 92 44<0 409 0 659> 464 44<254 659 0 659>
AnchorPoint: "Anchor-3" 300 -20 basechar 0
AnchorPoint: "Anchor-2" 478 0 basechar 0
AnchorPoint: "Anchor-0" 310 679 basechar 0
LayerCount: 2
Fore
SplineSet
92 0 m 1x9c
 92 659 l 1
 141 659 l 1
 398 193 l 1
 468 63 l 1
 470 63 l 1x5c
 469 126 464 190 464 254 c 2
 464 659 l 1
 508 659 l 1
 508 0 l 1
 459 0 l 1
 202 466 l 1
 132 596 l 1
 130 596 l 1xac
 131 532 136 472 136 409 c 2
 136 0 l 1
 92 0 l 1x9c
EndSplineSet
Validated: 1
EndChar

StartChar: O
Encoding: 79 79 16
Width: 600
GlyphClass: 2
Flags: MW
HStem: -12 42<241 359 241 372> 629 42<241 359>
VStem: 54 48<240 423.5 240 436.5> 498 48<240 423.5>
AnchorPoint: "Anchor-6" 300 0 basechar 0
AnchorPoint: "Anchor-5" 417 649 basechar 0
AnchorPoint: "Anchor-3" 300 -20 basechar 0
AnchorPoint: "Anchor-2" 300 0 basechar 0
AnchorPoint: "Anchor-0" 300 679 basechar 0
LayerCount: 2
Fore
SplineSet
300 -12 m 0
 156 -12 54 122 54 332 c 0
 54 541 156 671 300 671 c 0
 444 671 546 541 546 332 c 0
 546 122 444 -12 300 -12 c 0
300 30 m 0
 418 30 498 148 498 332 c 0
 498 515 418 629 300 629 c 0
 182 629 102 515 102 332 c 0
 102 148 182 30 300 30 c 0
EndSplineSet
Validated: 1
EndChar

StartChar: P
Encoding: 80 80 17
Width: 600
GlyphClass: 2
Flags: MW
HStem: 0 21G<118 118 118 164> 283 39<164 286 286 297 164 286> 620 39<164 286 164 164>
VStem: 118 46<0 283 322 620> 485 47<421 530.5>
AnchorPoint: "Anchor-3" 140 -20 basechar 0
AnchorPoint: "Anchor-0" 320 679 basechar 0
LayerCount: 2
Fore
SplineSet
118 0 m 1
 118 659 l 1
 297 659 l 2
 444 659 532 611 532 475 c 0
 532 346 444 283 297 283 c 2
 164 283 l 1
 164 0 l 1
 118 0 l 1
164 322 m 1
 286 322 l 2
 420 322 485 367 485 475 c 0
 485 586 420 620 286 620 c 2
 164 620 l 1
 164 322 l 1
EndSplineSet
Validated: 1
EndChar

StartChar: Q
Encoding: 81 81 18
Width: 600
GlyphClass: 2
Flags: MW
HStem: -153 43<441.5 487.5> -10 37 632 40<240 360>
VStem: 57 47<239.5 423.5 239.5 436.5> 496 47<239.5 423.5>
AnchorPoint: "Anchor-0" 301 692 basechar 0
LayerCount: 2
Fore
SplineSet
300 27 m 0
 420 27 496 147 496 332 c 0
 496 515 420 632 300 632 c 0
 180 632 104 515 104 332 c 0
 104 147 180 27 300 27 c 0
477 -153 m 0
 368 -153 304 -91 275 -11 c 1
 145 4 57 135 57 332 c 0
 57 541 156 672 300 672 c 0
 445 672 543 541 543 332 c 0
 543 136 457 5 326 -10 c 1
 348 -74 401 -110 482 -110 c 0
 502 -110 518 -107 529 -102 c 1
 538 -144 l 1
 517 -150 498 -153 477 -153 c 0
EndSplineSet
Validated: 1
EndChar

StartChar: R
Encoding: 82 82 19
Width: 600
GlyphClass: 2
Flags: MW
HStem: 0 21G<117 117 117 163 481 481 481 535> 303 38<163 293 293 303 163 293> 620 39<163 293 163 163>
VStem: 117 46<0 303 341 620> 475 47<436.5 534.5>
AnchorPoint: "Anchor-3" 320 -20 basechar 0
AnchorPoint: "Anchor-2" 133 0 basechar 0
AnchorPoint: "Anchor-0" 305 679 basechar 0
LayerCount: 2
Fore
SplineSet
117 0 m 1
 117 659 l 1
 305 659 l 2
 436 659 522 611 522 485 c 0
 522 380 456 320 353 306 c 1
 535 0 l 1
 481 0 l 1
 303 303 l 1
 163 303 l 1
 163 0 l 1
 117 0 l 1
163 341 m 1
 293 341 l 2
 410 341 475 388 475 485 c 0
 475 584 410 620 293 620 c 2
 163 620 l 1
 163 341 l 1
EndSplineSet
Validated: 1
EndChar

StartChar: S
Encoding: 83 83 20
Width: 600
GlyphClass: 2
Flags: MW
HStem: -12 42<269 363 269 375.5> 629 42<265 346.5>
VStem: 111 46<473 547 473 556.5> 483 46<122.5 202.5>
AnchorPoint: "Anchor-3" 318 -20 basechar 0
AnchorPoint: "Anchor-2" 327 0 basechar 0
AnchorPoint: "Anchor-0" 315 679 basechar 0
LayerCount: 2
Fore
SplineSet
309 -12 m 0
 208 -12 131 29 76 87 c 1
 106 119 l 1
 156 65 228 30 310 30 c 0
 416 30 483 84 483 161 c 0
 483 244 424 270 354 300 c 2
 255 345 l 2
 193 370 111 411 111 509 c 0
 111 604 197 671 312 671 c 0
 396 671 463 635 506 592 c 1
 479 562 l 1
 438 602 382 629 311 629 c 0
 219 629 157 583 157 511 c 0
 157 435 229 406 281 384 c 2
 380 340 l 2
 459 307 529 266 529 165 c 0
 529 64 442 -12 309 -12 c 0
EndSplineSet
Validated: 1
EndChar

StartChar: T
Encoding: 84 84 21
Width: 600
GlyphClass: 2
Flags: MW
HStem: 0 21G<277 277 277 323> 619 40<48 277 48 552 323 323 323 552>
VStem: 277 46<0 619 0 619>
AnchorPoint: "Anchor-3" 300 -20 basechar 0
AnchorPoint: "Anchor-2" 300 0 basechar 0
AnchorPoint: "Anchor-0" 300 679 basechar 0
LayerCount: 2
Fore
SplineSet
277 0 m 1
 277 619 l 1
 48 619 l 1
 48 659 l 1
 552 659 l 1
 552 619 l 1
 323 619 l 1
 323 0 l 1
 277 0 l 1
EndSplineSet
Validated: 1
EndChar

StartChar: U
Encoding: 85 85 22
Width: 600
GlyphClass: 2
Flags: MW
HStem: -12 42<256 345 256 355.5> 639 20G<89 135 135 135 468 511 511 511>
VStem: 89 46<247 252 252 659> 468 43<252 659>
AnchorPoint: "Anchor-6" 300 0 basechar 0
AnchorPoint: "Anchor-5" 497 669 basechar 0
AnchorPoint: "Anchor-3" 300 -20 basechar 0
AnchorPoint: "Anchor-2" 300 0 basechar 0
AnchorPoint: "Anchor-0" 300 679 basechar 0
LayerCount: 2
Fore
SplineSet
300 -12 m 0
 190 -12 89 47 89 247 c 2
 89 659 l 1
 135 659 l 1
 135 252 l 2
 135 82 212 30 300 30 c 0
 390 30 468 82 468 252 c 2
 468 659 l 1
 511 659 l 1
 511 247 l 2
 511 47 411 -12 300 -12 c 0
EndSplineSet
Validated: 1
EndChar

StartChar: V
Encoding: 86 86 23
Width: 600
GlyphClass: 2
Flags: MW
HStem: 0 53<276 303 299 303 299 326> 639 20G<59 108 108 108 495 541 541 541>
VStem: 59 482<659 659>
AnchorPoint: "Anchor-3" 303 -20 basechar 0
AnchorPoint: "Anchor-0" 300 679 basechar 0
LayerCount: 2
Fore
SplineSet
276 0 m 1
 59 659 l 1
 108 659 l 1
 230 274 l 2
 255 194 272 133 299 53 c 1
 303 53 l 1
 330 133 348 194 373 274 c 2
 495 659 l 1
 541 659 l 1
 326 0 l 1
 276 0 l 1
EndSplineSet
Validated: 1
EndChar

StartChar: W
Encoding: 87 87 24
Width: 600
GlyphClass: 2
Flags: MW
HStem: 0 53<122 153 150 153 150 181 450 454> 428 60<299 302 299 299> 640 20G<14 60 60 60 541 586 586 586>
VStem: 14 572<660 660>
AnchorPoint: "Anchor-3" 304 -20 basechar 0
AnchorPoint: "Anchor-0" 300 679 basechar 0
LayerCount: 2
Fore
SplineSet
122 0 m 1
 14 660 l 1
 60 660 l 1
 130 209 l 2
 136 156 145 109 150 53 c 1
 153 53 l 1
 168 109 182 156 196 209 c 2
 278 488 l 1
 325 488 l 1
 407 209 l 2
 421 156 435 108 450 53 c 1
 454 53 l 1
 460 108 467 156 474 209 c 2
 541 660 l 1
 586 660 l 1
 480 0 l 1
 421 0 l 1
 330 313 l 2
 320 351 312 389 302 428 c 1
 299 428 l 1
 289 389 281 351 269 313 c 2
 181 0 l 1
 122 0 l 1
EndSplineSet
Validated: 1
EndChar

StartChar: X
Encoding: 88 88 25
Width: 600
GlyphClass: 2
Flags: MW
HStem: 0 21G<75 75 75 122 475 475 475 525> 639 20G<89 139 139 139 464 511 511 511>
VStem: 75 450<0 0>
AnchorPoint: "Anchor-3" 300 -20 basechar 0
AnchorPoint: "Anchor-2" 494 0 basechar 0
AnchorPoint: "Anchor-0" 300 679 basechar 0
LayerCount: 2
Fore
SplineSet
75 0 m 1
 274 341 l 1
 89 659 l 1
 139 659 l 1
 248 465 l 2
 266 435 280 411 302 375 c 1
 306 375 l 1
 325 411 338 435 355 465 c 2
 464 659 l 1
 511 659 l 1
 326 339 l 1
 525 0 l 1
 475 0 l 1
 359 202 l 2
 341 235 322 267 299 307 c 1
 295 307 l 1
 273 267 256 235 238 202 c 2
 122 0 l 1
 75 0 l 1
EndSplineSet
Validated: 1
EndChar

StartChar: Y
Encoding: 89 89 26
Width: 600
GlyphClass: 2
Flags: MW
HStem: 0 21G<277 277 277 323> 639 20G<51 98 98 98 504 549 549 549>
VStem: 277 46<0 242 0 242>
AnchorPoint: "Anchor-6" 300 0 basechar 0
AnchorPoint: "Anchor-3" 300 -20 basechar 0
AnchorPoint: "Anchor-0" 300 679 basechar 0
LayerCount: 2
Fore
SplineSet
277 0 m 1
 277 242 l 1
 51 659 l 1
 98 659 l 1
 215 441 l 2
 245 391 270 339 300 286 c 1
 304 286 l 1
 335 339 363 391 390 442 c 2
 504 659 l 1
 549 659 l 1
 323 242 l 1
 323 0 l 1
 277 0 l 1
EndSplineSet
Validated: 1
EndChar

StartChar: Z
Encoding: 90 90 27
Width: 600
GlyphClass: 2
Flags: MW
HStem: 0 40<125 535 125 535> 621 39<104 473 104 528>
VStem: 70 465<0 28 28 28>
AnchorPoint: "Anchor-3" 319 -20 basechar 0
AnchorPoint: "Anchor-2" 320 0 basechar 0
AnchorPoint: "Anchor-0" 316 679 basechar 0
LayerCount: 2
Fore
SplineSet
70 0 m 1
 70 28 l 1
 473 621 l 1
 104 621 l 1
 104 660 l 1
 528 660 l 1
 528 632 l 1
 125 40 l 1
 535 40 l 1
 535 0 l 1
 70 0 l 1
EndSplineSet
Validated: 1
EndChar

StartChar: a
Encoding: 97 97 28
Width: 600
GlyphClass: 2
Flags: MW
HStem: -12 38<234.5 294.5> 0 21G<467 504 467 467> 453 39<281 372>
VStem: 92 45<87.5 160.5 87.5 173.5> 460 44<72 72 113 267 267 267>
AnchorPoint: "Anchor-6" 439 0 basechar 0
AnchorPoint: "Anchor-3" 300 -20 basechar 0
AnchorPoint: "Anchor-2" 474 0 basechar 0
AnchorPoint: "Anchor-0" 320 502 basechar 0
LayerCount: 2
Fore
SplineSet
259 -12 m 0xb8
 173 -12 92 29 92 120 c 0
 92 227 200 278 460 301 c 1
 459 380 427 453 317 453 c 0
 245 453 175 416 135 388 c 1
 115 421 l 1
 153 448 237 492 322 492 c 0
 451 492 504 410 504 307 c 2
 504 0 l 1
 467 0 l 1x78
 462 72 l 1
 460 72 l 1
 405 28 330 -12 259 -12 c 0xb8
267 26 m 0
 328 26 393 56 460 113 c 1
 460 267 l 1
 216 245 137 199 137 122 c 0
 137 53 202 26 267 26 c 0
EndSplineSet
Validated: 1
Substitution2: "'sups' Superscript lookup 24 subtable" a.sups
Substitution2: "'ss02' Style Set 2 lookup 0 subtable" a.a
EndChar

StartChar: b
Encoding: 98 98 29
Width: 600
GlyphClass: 2
Flags: MW
HStem: -12 39<288 359.5 288 369> 0 21G<105 142 105 105> 453 39<298 381> 699 20G<105 150 150 150>
VStem: 105 45<98 365 511 719> 486 47<182 306>
AnchorPoint: "Anchor-3" 310 -20 basechar 0
AnchorPoint: "Anchor-0" 132 739 basechar 0
LayerCount: 2
Fore
SplineSet
310 -12 m 0xbc
 261 -12 197 14 149 54 c 1
 147 54 l 1xbc
 142 0 l 1
 105 0 l 1x7c
 105 719 l 1
 150 719 l 1
 150 511 l 1
 147 408 l 1
 149 408 l 1
 198 458 267 492 329 492 c 0
 465 492 533 396 533 247 c 0
 533 84 428 -12 310 -12 c 0xbc
308 27 m 0
 411 27 486 117 486 247 c 0
 486 365 440 453 322 453 c 0
 272 453 210 425 150 365 c 1
 150 98 l 1
 206 47 268 27 308 27 c 0
EndSplineSet
Validated: 1
Substitution2: "'sups' Superscript lookup 24 subtable" b.sups
EndChar

StartChar: c
Encoding: 99 99 30
Width: 600
GlyphClass: 2
Flags: MW
HStem: -12 39<284.5 381.5 284.5 384.5> 453 39<286 379.5>
VStem: 87 47<176 302.5 176 319.5>
AnchorPoint: "Anchor-3" 340 -20 basechar 0
AnchorPoint: "Anchor-2" 349 0 basechar 0
AnchorPoint: "Anchor-0" 349 502 basechar 0
LayerCount: 2
Fore
SplineSet
347 -12 m 0
 198 -12 87 80 87 239 c 0
 87 400 205 492 349 492 c 0
 429 492 482 457 522 419 c 1
 496 389 l 1
 455 427 409 453 350 453 c 0
 222 453 134 366 134 239 c 0
 134 113 220 27 349 27 c 0
 414 27 468 56 511 96 c 1
 534 65 l 1
 484 19 422 -12 347 -12 c 0
EndSplineSet
Validated: 1
Substitution2: "'sups' Superscript lookup 24 subtable" c.sups
EndChar

StartChar: d
Encoding: 100 100 31
Width: 600
GlyphClass: 2
Flags: MW
HStem: -12 39<231.5 312.5> 0 21G<457 495 457 457> 453 39<245.5 321> 699 20G<450 495 495 495>
VStem: 67 47<175.5 299.5 175.5 316.5> 450 45<71 71 115 382 382 382 521 719 0 719>
AnchorPoint: "Anchor-3" 301 -20 basechar 0
AnchorPoint: "Anchor-2" 306 0 basechar 0
AnchorPoint: "Anchor-0" 467 739 basechar 0
LayerCount: 2
Fore
SplineSet
279 -12 m 0xbc
 153 -12 67 77 67 239 c 0
 67 394 174 492 293 492 c 0
 354 492 403 467 451 424 c 1
 453 424 l 1
 450 521 l 1
 450 719 l 1
 495 719 l 1
 495 0 l 1
 457 0 l 1x7c
 452 71 l 1
 450 71 l 1
 408 27 346 -12 279 -12 c 0xbc
285 27 m 0
 341 27 397 59 450 115 c 1
 450 382 l 1
 396 434 346 453 296 453 c 0
 195 453 114 360 114 239 c 0
 114 112 178 27 285 27 c 0
EndSplineSet
Validated: 1
Substitution2: "'sups' Superscript lookup 24 subtable" d.sups
EndChar

StartChar: e
Encoding: 101 101 32
Width: 600
GlyphClass: 2
Flags: MW
HStem: -12 38<277 365.5 277 372.5> 233 38<124 492 124 530 122 492> 454 38<272 367>
VStem: 77 45<233 233 233 318> 492 40<271 271>
AnchorPoint: "Anchor-6" 405 0 basechar 0
AnchorPoint: "Anchor-3" 319 -20 basechar 0
AnchorPoint: "Anchor-2" 319 0 basechar 0
AnchorPoint: "Anchor-0" 319 502 basechar 0
LayerCount: 2
Fore
SplineSet
330 -12 m 0
 191 -12 77 82 77 240 c 0
 77 396 192 492 317 492 c 0
 449 492 532 408 532 270 c 0
 532 258 532 245 530 233 c 1
 122 233 l 1
 126 99 221 26 333 26 c 0
 398 26 449 47 494 78 c 1
 512 45 l 1
 469 16 415 -12 330 -12 c 0
318 454 m 0
 226 454 137 388 124 271 c 1
 492 271 l 1
 485 395 416 454 318 454 c 0
EndSplineSet
Validated: 1
Substitution2: "'sups' Superscript lookup 24 subtable" e.sups
EndChar

StartChar: f
Encoding: 102 102 33
Width: 600
GlyphClass: 2
Flags: MW
HStem: 0 21G<260 260 260 302> 442 38<115 260 302 525> 693 38<391.5 460.5 379 464.5>
VStem: 260 42<0 442 0 442 480 538 538 542>
AnchorPoint: "Anchor-3" 290 -20 basechar 0
AnchorPoint: "Anchor-2" 299 0 basechar 0
AnchorPoint: "Anchor-0" 424 739 basechar 0
LayerCount: 2
Fore
SplineSet
260 0 m 1
 260 442 l 1
 115 442 l 1
 115 476 l 1
 260 480 l 1
 260 538 l 2
 260 659 319 731 439 731 c 0
 482 731 525 725 574 702 c 1
 560 668 l 1
 515 688 487 693 442 693 c 0
 341 693 302 632 302 542 c 2
 302 480 l 1
 525 480 l 1
 525 442 l 1
 302 442 l 1
 302 0 l 1
 260 0 l 1
EndSplineSet
Validated: 1
Substitution2: "'sups' Superscript lookup 24 subtable" f.sups
EndChar

StartChar: g
Encoding: 103 103 34
Width: 600
GlyphClass: 2
Flags: MW
HStem: -231 36<245 371 245 385.5> -1 21G<265 277 277 391> -1 42<268 277 277 387 387 391> 153 35<280.5 331.5 258 344> 442 38<416 561 416 416> 455 25 455 37<258 308 246 331.5>
VStem: 84 42<-122 -75.5 -122 -73> 115 42<85 117.5> 116 45<292 360 281.5 370.5> 428 44<281.5 345.5 271 360> 516 46<-102 -45>
AnchorPoint: "Anchor-3" 309 -227 basechar 0
AnchorPoint: "Anchor-0" 309 502 basechar 0
LayerCount: 2
Fore
SplineSet
308 -231 m 0xb930
 158 -231 84 -176 84 -92 c 0xd930
 84 -54 113 -11 165 21 c 1
 165 25 l 1
 141 37 115 62 115 102 c 0xd8b0
 115 133 135 167 173 193 c 1
 173 197 l 1
 142 222 116 263 116 321 c 0
 116 420 197 492 295 492 c 0xb270
 321 492 342 488 361 480 c 1
 561 480 l 1
 561 442 l 1
 416 442 l 1
 445 413 472 371 472 320 c 0
 472 222 393 153 295 153 c 0
 266 153 233 160 204 175 c 1
 176 158 157 134 157 108 c 0xb8b0
 157 62 201 41 268 41 c 2
 387 41 l 2
 509 41 562 11 562 -67 c 0
 562 -150 463 -231 308 -231 c 0xb930
295 188 m 0xb470
 368 188 428 242 428 321 c 0
 428 399 368 455 295 455 c 0
 221 455 161 399 161 321 c 0
 161 242 221 188 295 188 c 0xb470
305 -195 m 0
 437 -195 516 -132 516 -72 c 0
 516 -18 475 -1 391 -1 c 2
 277 -1 l 2
 253 -1 226 1 204 8 c 1
 146 -23 126 -58 126 -93 c 0xb930
 126 -151 185 -195 305 -195 c 0
EndSplineSet
Validated: 1
Substitution2: "'sups' Superscript lookup 24 subtable" g.sups
Substitution2: "'ss03' Style Set 3 lookup 1 subtable" g.a
EndChar

StartChar: h
Encoding: 104 104 35
Width: 600
GlyphClass: 2
Flags: MW
HStem: 0 21G<105 105 105 150 469 469 469 514> 452 40<303 381.5> 699 20G<105 150 150 150>
VStem: 105 45<0 344 511 719> 469 45<0 293 293 299 0 347>
AnchorPoint: "Anchor-3" 319 -20 basechar 0
AnchorPoint: "Anchor-2" 127 0 basechar 0
AnchorPoint: "Anchor-0" 123 739 basechar 0
LayerCount: 2
Fore
SplineSet
105 0 m 1
 105 719 l 1
 150 719 l 1
 150 511 l 1
 147 385 l 1
 149 385 l 1
 206 447 265 492 341 492 c 0
 458 492 514 429 514 299 c 2
 514 0 l 1
 469 0 l 1
 469 293 l 2
 469 401 429 452 334 452 c 0
 266 452 219 417 150 344 c 1
 150 0 l 1
 105 0 l 1
EndSplineSet
Validated: 1
Substitution2: "'sups' Superscript lookup 24 subtable" h.sups
EndChar

StartChar: i
Encoding: 105 105 36
Width: 600
GlyphClass: 2
Flags: MW
HStem: 0 21G<338 338 338 382> 442 38<97 338 97 382> 597 96<336 362>
VStem: 302 94<630 659.5> 338 44<0 442 442 442>
AnchorPoint: "Anchor-6" 359 0 basechar 0
AnchorPoint: "Anchor-3" 349 -20 basechar 0
AnchorPoint: "Anchor-2" 354 0 basechar 0
AnchorPoint: "Anchor-0" 349 725 basechar 0
LayerCount: 2
Fore
SplineSet
338 0 m 1xe8
 338 442 l 1
 97 442 l 1
 97 480 l 1
 382 480 l 1
 382 0 l 1
 338 0 l 1xe8
349 597 m 0xf0
 323 597 302 615 302 645 c 0
 302 674 323 693 349 693 c 0
 375 693 396 674 396 645 c 0
 396 615 375 597 349 597 c 0xf0
EndSplineSet
Validated: 1
Substitution2: "Single Substitution lookup 31 subtable" dotlessi
Substitution2: "'sups' Superscript lookup 24 subtable" i.sups
Substitution2: "'ss04' Style Set 4 lookup 2 subtable" i.a
EndChar

StartChar: j
Encoding: 106 106 37
Width: 600
GlyphClass: 2
Flags: MW
HStem: -229 38<176.5 253 176.5 265.5> 442 38<97 338 97 382> 597 96<336 362>
VStem: 302 94<630 659.5> 338 44<-43 -37 -37 442 442 442>
AnchorPoint: "Anchor-3" 232 -227 basechar 0
AnchorPoint: "Anchor-0" 349 725 basechar 0
LayerCount: 2
Fore
SplineSet
194 -229 m 0xc8
 149 -229 99 -215 63 -197 c 1
 81 -162 l 1
 113 -178 156 -191 197 -191 c 0
 309 -191 338 -132 338 -43 c 2
 338 442 l 1
 97 442 l 1
 97 480 l 1
 382 480 l 1
 382 -37 l 2
 382 -155 337 -229 194 -229 c 0xc8
349 597 m 0xf0
 323 597 302 615 302 645 c 0
 302 674 323 693 349 693 c 0
 375 693 396 674 396 645 c 0
 396 615 375 597 349 597 c 0xf0
EndSplineSet
Validated: 1
Substitution2: "Single Substitution lookup 31 subtable" uni0237
Substitution2: "'sups' Superscript lookup 24 subtable" j.sups
EndChar

StartChar: k
Encoding: 107 107 38
Width: 600
GlyphClass: 2
Flags: MW
HStem: 0 21G<123 123 123 168 516 516 516 567> 460 20G<480 535 535 535> 699 20G<123 168 168 168>
VStem: 123 45<0 136 191 719>
AnchorPoint: "Anchor-3" 342 -20 basechar 0
AnchorPoint: "Anchor-0" 185 739 basechar 0
LayerCount: 2
Fore
SplineSet
123 0 m 1
 123 719 l 1
 168 719 l 1
 168 191 l 1
 172 191 l 1
 480 480 l 1
 535 480 l 1
 338 295 l 1
 567 0 l 1
 516 0 l 1
 308 267 l 1
 168 136 l 1
 168 0 l 1
 123 0 l 1
EndSplineSet
Validated: 1
Substitution2: "'sups' Superscript lookup 24 subtable" k.sups
EndChar

StartChar: l
Encoding: 108 108 39
Width: 600
GlyphClass: 2
Flags: MW
HStem: -12 39<386 435.5 386 437.5> 681 38<92 271 92 315>
VStem: 271 44<145 681 681 681>
AnchorPoint: "Anchor-4" 294 396 basechar 0
AnchorPoint: "Anchor-3" 396 -20 basechar 0
AnchorPoint: "Anchor-2" 390 0 basechar 0
AnchorPoint: "Anchor-0" 292 739 basechar 0
LayerCount: 2
Fore
SplineSet
414 -12 m 0
 323 -12 271 36 271 145 c 2
 271 681 l 1
 92 681 l 1
 92 719 l 1
 315 719 l 1
 315 139 l 2
 315 63 352 27 420 27 c 0
 451 27 484 35 519 52 c 1
 533 18 l 1
 492 -2 461 -12 414 -12 c 0
EndSplineSet
Validated: 1
Substitution2: "'sups' Superscript lookup 24 subtable" l.sups
EndChar

StartChar: m
Encoding: 109 109 40
Width: 600
GlyphClass: 2
Flags: MW
HStem: 0 21G<74 74 74 118 289 289 289 331 502 502 502 546> 452 40<202 244 415 456.5> 460 20G<74 111 111 111>
VStem: 74 44<0 362> 289 42<0 343 343 362 0 379> 502 44<0 343 343 348 0 379>
CounterMasks: 1 1c
AnchorPoint: "Anchor-3" 312 -20 basechar 0
AnchorPoint: "Anchor-2" 517 0 basechar 0
AnchorPoint: "Anchor-0" 311 501 basechar 0
LayerCount: 2
Fore
SplineSet
74 0 m 1xdc
 74 480 l 1
 111 480 l 1xbc
 116 415 l 1
 118 415 l 1
 146 462 175 492 229 492 c 0
 281 492 311 464 324 407 c 1
 359 462 388 492 442 492 c 0
 509 492 546 444 546 348 c 2
 546 0 l 1
 502 0 l 1
 502 343 l 2
 502 415 480 452 433 452 c 0
 390 452 363 422 331 362 c 1
 331 0 l 1
 289 0 l 1
 289 343 l 2
 289 415 267 452 221 452 c 0
 177 452 149 422 118 362 c 1
 118 0 l 1
 74 0 l 1xdc
EndSplineSet
Validated: 1
Substitution2: "'sups' Superscript lookup 24 subtable" m.sups
EndChar

StartChar: n
Encoding: 110 110 41
Width: 600
GlyphClass: 2
Flags: MW
HStem: 0 21G<105 105 105 150 469 469 469 514> 452 40<302.5 381.5> 460 20G<105 143 143 143>
VStem: 105 45<0 344 0 480> 469 45<0 293 293 299 0 347>
AnchorPoint: "Anchor-3" 317 -20 basechar 0
AnchorPoint: "Anchor-2" 486 0 basechar 0
AnchorPoint: "Anchor-0" 319 502 basechar 0
LayerCount: 2
Fore
SplineSet
105 0 m 1xd8
 105 480 l 1
 143 480 l 1xb8
 148 388 l 1
 152 388 l 1
 207 447 264 492 341 492 c 0
 458 492 514 429 514 299 c 2
 514 0 l 1
 469 0 l 1
 469 293 l 2
 469 401 429 452 334 452 c 0
 266 452 219 417 150 344 c 1
 150 0 l 1
 105 0 l 1xd8
EndSplineSet
Validated: 1
Substitution2: "'sups' Superscript lookup 24 subtable" n.sups
EndChar

StartChar: o
Encoding: 111 111 42
Width: 600
GlyphClass: 2
Flags: MW
HStem: -12 39<246 354 246 363> 453 39<246 354>
VStem: 67 47<176 302.5 176 319.5> 486 47<176 302.5>
AnchorPoint: "Anchor-6" 300 0 basechar 0
AnchorPoint: "Anchor-5" 410 480 basechar 0
AnchorPoint: "Anchor-3" 300 -20 basechar 0
AnchorPoint: "Anchor-2" 300 0 basechar 0
AnchorPoint: "Anchor-0" 300 502 basechar 0
LayerCount: 2
Fore
SplineSet
300 -12 m 0
 174 -12 67 80 67 239 c 0
 67 400 174 492 300 492 c 0
 426 492 533 400 533 239 c 0
 533 80 426 -12 300 -12 c 0
300 27 m 0
 408 27 486 113 486 239 c 0
 486 366 408 453 300 453 c 0
 192 453 114 366 114 239 c 0
 114 113 192 27 300 27 c 0
EndSplineSet
Validated: 1
Substitution2: "'sups' Superscript lookup 24 subtable" o.sups
EndChar

StartChar: p
Encoding: 112 112 43
Width: 600
GlyphClass: 2
Flags: MW
HStem: -217 21G<105 105 105 150> -12 39<287 358.5 287 368> 453 39<298 381> 460 20G<105 143 143 143>
VStem: 105 45<-217 -42 98 365> 486 47<182 306>
AnchorPoint: "Anchor-3" 132 -227 basechar 0
AnchorPoint: "Anchor-0" 320 502 basechar 0
LayerCount: 2
Fore
SplineSet
105 -217 m 1xec
 105 480 l 1
 143 480 l 1xdc
 148 411 l 1
 150 411 l 1
 198 457 267 492 329 492 c 0
 465 492 533 396 533 247 c 0
 533 84 428 -12 308 -12 c 0
 262 -12 197 13 149 56 c 1
 147 56 l 1
 150 -42 l 1
 150 -217 l 1
 105 -217 l 1xec
306 27 m 0
 411 27 486 117 486 247 c 0
 486 365 440 453 322 453 c 0
 272 453 210 425 150 365 c 1xec
 150 98 l 1
 206 47 268 27 306 27 c 0
EndSplineSet
Validated: 1
Substitution2: "'sups' Superscript lookup 24 subtable" p.sups
EndChar

StartChar: q
Encoding: 113 113 44
Width: 600
GlyphClass: 2
Flags: MW
HStem: -217 21G<450 450 450 495> -12 39<231.5 312.5> 453 39<245.5 321> 460 20G<458 495 495 495>
VStem: 67 47<175.5 299.5 175.5 316.5> 450 45<-217 -24 -24 -24 115 382 382 382>
AnchorPoint: "Anchor-3" 468 -227 basechar 0
AnchorPoint: "Anchor-0" 301 502 basechar 0
LayerCount: 2
Fore
SplineSet
450 -217 m 1xec
 450 -24 l 1
 453 72 l 1
 451 72 l 1
 406 26 346 -12 279 -12 c 0
 153 -12 67 77 67 239 c 0
 67 394 174 492 293 492 c 0
 355 492 403 467 451 425 c 1
 453 425 l 1xec
 458 480 l 1
 495 480 l 1xdc
 495 -217 l 1
 450 -217 l 1xec
285 27 m 0
 341 27 397 59 450 115 c 1
 450 382 l 1
 396 434 346 453 296 453 c 0
 195 453 114 360 114 239 c 0
 114 112 178 27 285 27 c 0
EndSplineSet
Validated: 1
Substitution2: "'sups' Superscript lookup 24 subtable" q.sups
EndChar

StartChar: r
Encoding: 114 114 45
Width: 600
GlyphClass: 2
Flags: MW
HStem: 0 21G<163 163 163 208> 450 42<387 446> 460 20G<163 201 201 201> 472 20
VStem: 163 45<0 300>
AnchorPoint: "Anchor-3" 190 -20 basechar 0
AnchorPoint: "Anchor-2" 178 0 basechar 0
AnchorPoint: "Anchor-0" 359 502 basechar 0
LayerCount: 2
Fore
SplineSet
163 0 m 1xc8
 163 480 l 1
 201 480 l 1xa8
 206 362 l 1
 208 362 l 1
 260 438 338 492 434 492 c 0xc8
 466 492 500 488 530 472 c 1x98
 518 433 l 1
 483 445 465 450 427 450 c 0
 347 450 274 409 208 300 c 1
 208 0 l 1
 163 0 l 1xc8
EndSplineSet
Validated: 1
Substitution2: "'sups' Superscript lookup 24 subtable" r.sups
EndChar

StartChar: s
Encoding: 115 115 46
Width: 600
GlyphClass: 2
Flags: MW
HStem: -12 38<272.5 372 272.5 382> 454 38<242.5 327.5>
VStem: 110 46<341.5 389.5 341.5 399> 471 46<95.5 142.5>
AnchorPoint: "Anchor-3" 310 -20 basechar 0
AnchorPoint: "Anchor-2" 315 0 basechar 0
AnchorPoint: "Anchor-0" 298 502 basechar 0
LayerCount: 2
Fore
SplineSet
319 -12 m 0
 220 -12 139 24 82 64 c 1
 105 96 l 1
 159 55 222 26 323 26 c 0
 421 26 471 70 471 121 c 0
 471 164 454 199 302 230 c 0
 180 254 110 294 110 364 c 0
 110 434 169 492 298 492 c 0
 362 492 436 467 482 433 c 1
 458 401 l 1
 415 433 360 454 295 454 c 0
 190 454 156 412 156 367 c 0
 156 316 206 291 314 268 c 0
 480 233 517 195 517 123 c 0
 517 51 445 -12 319 -12 c 0
EndSplineSet
Validated: 1
Substitution2: "'sups' Superscript lookup 24 subtable" s.sups
EndChar

StartChar: t
Encoding: 116 116 47
Width: 600
GlyphClass: 2
Flags: MW
HStem: -12 39<349.5 426.5> 442 38<80 226 269 525>
VStem: 225 44<180 442>
AnchorPoint: "Anchor-3" 387 -20 basechar 0
AnchorPoint: "Anchor-2" 397 0 basechar 0
AnchorPoint: "Anchor-0" 252 633 basechar 0
LayerCount: 2
Fore
SplineSet
397 -12 m 0
 265 -12 225 65 225 180 c 2
 225 442 l 1
 80 442 l 1
 80 476 l 1
 226 480 l 1
 232 639 l 1
 269 639 l 1
 269 480 l 1
 525 480 l 1
 525 442 l 1
 269 442 l 1
 269 176 l 2
 269 83 296 27 403 27 c 0
 453 27 492 36 531 52 c 1
 543 18 l 1
 499 0 456 -12 397 -12 c 0
EndSplineSet
Validated: 1
Substitution2: "'sups' Superscript lookup 24 subtable" t.sups
EndChar

StartChar: u
Encoding: 117 117 48
Width: 600
GlyphClass: 2
Flags: MW
HStem: -12 40<218.5 297.5> 0 21G<457 494 457 457> 460 20G<87 131 131 131 450 494 494 494>
VStem: 87 44<181 187 187 480> 450 44<137 480 0 480>
AnchorPoint: "Anchor-6" 429 0 basechar 0
AnchorPoint: "Anchor-3" 293 -20 basechar 0
AnchorPoint: "Anchor-2" 465 0 basechar 0
AnchorPoint: "Anchor-0" 294 502 basechar 0
LayerCount: 2
Fore
SplineSet
259 -12 m 0xb8
 143 -12 87 51 87 181 c 2
 87 480 l 1
 131 480 l 1
 131 187 l 2
 131 80 171 28 266 28 c 0xb8
 334 28 384 62 450 137 c 1
 450 480 l 1
 494 480 l 1
 494 0 l 1
 457 0 l 1x78
 452 93 l 1
 448 93 l 1
 396 32 336 -12 259 -12 c 0xb8
EndSplineSet
Validated: 1
Substitution2: "'sups' Superscript lookup 24 subtable" u.sups
EndChar

StartChar: v
Encoding: 118 118 49
Width: 600
GlyphClass: 2
Flags: MW
HStem: 0 41<278 304 300 304 300 325> 460 20G<62 108 108 108 495 538 538 538>
VStem: 62 476<480 480>
AnchorPoint: "Anchor-3" 300 -20 basechar 0
AnchorPoint: "Anchor-0" 300 502 basechar 0
LayerCount: 2
Fore
SplineSet
278 0 m 1
 62 480 l 1
 108 480 l 1
 240 179 l 2
 262 131 282 85 300 41 c 1
 304 41 l 1
 323 85 341 131 362 179 c 2
 495 480 l 1
 538 480 l 1
 325 0 l 1
 278 0 l 1
EndSplineSet
Validated: 1
Substitution2: "'sups' Superscript lookup 24 subtable" v.sups
EndChar

StartChar: w
Encoding: 119 119 50
Width: 600
GlyphClass: 2
Flags: MW
HStem: 0 41<134 167 163 167 163 194 436 440> 428 44<298 302 298 298> 460 20G<11 58 58 58 545 589 589 589>
VStem: 11 578<480 480>
AnchorPoint: "Anchor-3" 300 -20 basechar 0
AnchorPoint: "Anchor-0" 300 502 basechar 0
LayerCount: 2
Fore
SplineSet
134 0 m 1xb0
 11 480 l 1
 58 480 l 1xb0
 134 169 l 2
 145 125 155 84 163 41 c 1
 167 41 l 1
 176 84 187 125 198 169 c 2
 275 472 l 1
 328 472 l 1xd0
 404 169 l 2
 415 125 427 84 436 41 c 1
 440 41 l 1
 451 84 460 125 470 169 c 2
 545 480 l 1
 589 480 l 1xb0
 468 0 l 1
 408 0 l 1
 333 290 l 2
 322 333 314 378 302 428 c 1
 298 428 l 1xd0
 288 378 279 332 267 289 c 2
 194 0 l 1
 134 0 l 1xb0
EndSplineSet
Validated: 1
Substitution2: "'sups' Superscript lookup 24 subtable" w.sups
EndChar

StartChar: x
Encoding: 120 120 51
Width: 600
GlyphClass: 2
Flags: MW
HStem: 0 21G<80 80 80 129 469 469 469 520> 460 20G<96 146 146 146 456 505 505 505>
VStem: 80 440<0 0>
AnchorPoint: "Anchor-3" 300 -20 basechar 0
AnchorPoint: "Anchor-2" 484 0 basechar 0
AnchorPoint: "Anchor-0" 300 502 basechar 0
LayerCount: 2
Fore
SplineSet
80 0 m 1
 272 249 l 1
 96 480 l 1
 146 480 l 1
 239 358 l 2
 258 332 278 304 299 277 c 1
 303 277 l 1
 324 304 347 334 366 360 c 2
 456 480 l 1
 505 480 l 1
 326 247 l 1
 520 0 l 1
 469 0 l 1
 367 130 l 2
 346 157 322 191 299 219 c 1
 295 219 l 1
 272 189 251 161 228 129 c 2
 129 0 l 1
 80 0 l 1
EndSplineSet
Validated: 1
Substitution2: "'sups' Superscript lookup 24 subtable" x.sups
EndChar

StartChar: y
Encoding: 121 121 52
Width: 600
GlyphClass: 2
Flags: MW
HStem: -219 41<117.5 163 117.5 175.5> 460 20G<60 106 106 106 497 540 540 540>
VStem: 60 480<480 480>
AnchorPoint: "Anchor-6" 246 -116 basechar 0
AnchorPoint: "Anchor-3" 266 -227 basechar 0
AnchorPoint: "Anchor-0" 301 502 basechar 0
LayerCount: 2
Fore
SplineSet
125 -219 m 0
 105 -219 81 -215 67 -209 c 1
 79 -170 l 1
 91 -174 109 -178 126 -178 c 0
 200 -178 247 -124 276 -51 c 2
 293 -9 l 1
 60 480 l 1
 106 480 l 1
 246 178 l 2
 265 138 289 86 312 43 c 1
 316 43 l 1
 335 86 355 137 372 178 c 2
 497 480 l 1
 540 480 l 1
 314 -60 l 1
 286 -141 226 -219 125 -219 c 0
EndSplineSet
Validated: 1
Substitution2: "'sups' Superscript lookup 24 subtable" y.sups
EndChar

StartChar: z
Encoding: 122 122 53
Width: 600
GlyphClass: 2
Flags: MW
HStem: 0 39<139 526 139 526> 442 38<112 448 112 515>
VStem: 72 454<0 24 24 24>
AnchorPoint: "Anchor-3" 315 -20 basechar 0
AnchorPoint: "Anchor-2" 320 0 basechar 0
AnchorPoint: "Anchor-0" 319 502 basechar 0
LayerCount: 2
Fore
SplineSet
72 0 m 1
 72 24 l 1
 448 442 l 1
 112 442 l 1
 112 480 l 1
 515 480 l 1
 515 457 l 1
 139 39 l 1
 526 39 l 1
 526 0 l 1
 72 0 l 1
EndSplineSet
Validated: 1
Substitution2: "'sups' Superscript lookup 24 subtable" z.sups
EndChar

StartChar: Agrave
Encoding: 192 192 54
Width: 600
Flags: MW
HStem: 0 21G<45 45 45 91 506 506 506 555> 226 39<183 417 183 430 169 417> 616 43<298 302 298 298> 709 20G<344 344>
VStem: 45 510<0 0>
LayerCount: 2
Fore
SplineSet
225 388 m 2
 183 265 l 1
 417 265 l 1
 375 388 l 2
 348 466 325 535 302 616 c 1
 298 616 l 1
 275 535 251 466 225 388 c 2
45 0 m 1
 277 659 l 1
 323 659 l 1
 555 0 l 1
 506 0 l 1
 430 226 l 1
 169 226 l 1
 91 0 l 1
 45 0 l 1
324 706 m 1
 191 819 l 1
 220 852 l 1
 344 729 l 1
 324 706 l 1
EndSplineSet
Validated: 1
EndChar

StartChar: Aacute
Encoding: 193 193 55
Width: 600
GlyphClass: 2
Flags: MW
HStem: 0 21G<45 45 45 91 506 506 506 555> 226 39<183 417 183 430 169 417> 616 43<298 302 298 298> 709 20G<256 256>
VStem: 45 510<0 0>
AnchorPoint: "Anchor-6" 510 0 basechar 0
LayerCount: 2
Fore
SplineSet
225 388 m 2
 183 265 l 1
 417 265 l 1
 375 388 l 2
 348 466 325 535 302 616 c 1
 298 616 l 1
 275 535 251 466 225 388 c 2
45 0 m 1
 277 659 l 1
 323 659 l 1
 555 0 l 1
 506 0 l 1
 430 226 l 1
 169 226 l 1
 91 0 l 1
 45 0 l 1
276 706 m 1
 256 729 l 1
 380 852 l 1
 409 819 l 1
 276 706 l 1
EndSplineSet
Validated: 1
EndChar

StartChar: Acircumflex
Encoding: 194 194 56
Width: 600
Flags: MW
HStem: 0 21G<45 45 45 91 506 506 506 555> 226 39<183 417 183 430 169 417> 616 43<298 302 298 298> 706 20G<165 165 435 435> 805 34<298 302 298 298>
VStem: 45 510<0 0>
LayerCount: 2
Fore
SplineSet
225 388 m 2
 183 265 l 1
 417 265 l 1
 375 388 l 2
 348 466 325 535 302 616 c 1
 298 616 l 1
 275 535 251 466 225 388 c 2
45 0 m 1
 277 659 l 1
 323 659 l 1
 555 0 l 1
 506 0 l 1
 430 226 l 1
 169 226 l 1
 91 0 l 1
 45 0 l 1
185 707 m 1
 165 726 l 1
 278 839 l 1
 322 839 l 1
 435 726 l 1
 415 707 l 1
 302 805 l 1
 298 805 l 1
 185 707 l 1
EndSplineSet
Validated: 1
EndChar

StartChar: Atilde
Encoding: 195 195 57
Width: 600
Flags: MW
HStem: 0 21G<45 45 45 91 506 506 506 555> 226 39<183 417 183 430 169 417> 616 43<298 302 298 298> 704 20G<135 135> 718 37<349.5 391.5 349.5 404> 797 37<208.5 250.5>
VStem: 135 33<721 724> 432 33<829 832>
LayerCount: 2
Fore
SplineSet
225 388 m 2xf7
 183 265 l 1
 417 265 l 1
 375 388 l 2
 348 466 325 535 302 616 c 1
 298 616 l 1
 275 535 251 466 225 388 c 2xf7
45 0 m 1
 277 659 l 1
 323 659 l 1
 555 0 l 1
 506 0 l 1
 430 226 l 1
 169 226 l 1
 91 0 l 1
 45 0 l 1
377 718 m 0xef
 300 718 278 797 223 797 c 0
 194 797 172 768 168 721 c 1
 135 724 l 1xf7
 138 786 169 834 223 834 c 0
 300 834 322 755 377 755 c 0
 406 755 426 785 432 832 c 1
 465 829 l 1
 462 767 431 718 377 718 c 0xef
EndSplineSet
Validated: 1
EndChar

StartChar: Adieresis
Encoding: 196 196 58
Width: 600
GlyphClass: 2
Flags: MW
HStem: 0 21G<45 45 45 91 506 506 506 555> 226 39<183 417 183 430 169 417> 616 43<298 302 298 298> 725 74<209.5 230.5 369.5 390.5>
VStem: 183 74<750.5 773> 343 74<750.5 773>
AnchorPoint: "Anchor-6" 510 0 basechar 0
LayerCount: 2
Fore
SplineSet
225 388 m 2
 183 265 l 1
 417 265 l 1
 375 388 l 2
 348 466 325 535 302 616 c 1
 298 616 l 1
 275 535 251 466 225 388 c 2
45 0 m 1
 277 659 l 1
 323 659 l 1
 555 0 l 1
 506 0 l 1
 430 226 l 1
 169 226 l 1
 91 0 l 1
 45 0 l 1
220 725 m 0
 199 725 183 739 183 762 c 0
 183 784 199 799 220 799 c 0
 241 799 257 784 257 762 c 0
 257 739 241 725 220 725 c 0
380 725 m 0
 359 725 343 739 343 762 c 0
 343 784 359 799 380 799 c 0
 401 799 417 784 417 762 c 0
 417 739 401 725 380 725 c 0
EndSplineSet
Validated: 1
EndChar

StartChar: Amacron
Encoding: 256 256 59
Width: 600
Flags: MW
HStem: 0 21G<45 45 45 91 506 506 506 555> 226 39<183 417 183 430 169 417> 616 43<298 302 298 298> 743 36<176 424 176 424>
VStem: 45 510<0 0>
LayerCount: 2
Fore
SplineSet
225 388 m 2
 183 265 l 1
 417 265 l 1
 375 388 l 2
 348 466 325 535 302 616 c 1
 298 616 l 1
 275 535 251 466 225 388 c 2
45 0 m 1
 277 659 l 1
 323 659 l 1
 555 0 l 1
 506 0 l 1
 430 226 l 1
 169 226 l 1
 91 0 l 1
 45 0 l 1
176 743 m 1
 176 779 l 1
 424 779 l 1
 424 743 l 1
 176 743 l 1
EndSplineSet
Validated: 1
EndChar

StartChar: Abreve
Encoding: 258 258 60
Width: 600
Flags: MW
HStem: 0 21G<45 45 45 91 506 506 506 555> 226 39<183 417 183 430 169 417> 616 43<298 302 298 298> 710 33<268 332 268 344.5>
VStem: 164 33<834 839> 403 33<834 839>
LayerCount: 2
Fore
SplineSet
225 388 m 2
 183 265 l 1
 417 265 l 1
 375 388 l 2
 348 466 325 535 302 616 c 1
 298 616 l 1
 275 535 251 466 225 388 c 2
45 0 m 1
 277 659 l 1
 323 659 l 1
 555 0 l 1
 506 0 l 1
 430 226 l 1
 169 226 l 1
 91 0 l 1
 45 0 l 1
300 710 m 0
 212 710 172 775 164 834 c 1
 197 839 l 1
 204 789 236 743 300 743 c 0
 364 743 396 789 403 839 c 1
 436 834 l 1
 429 775 389 710 300 710 c 0
EndSplineSet
Validated: 1
EndChar

StartChar: Aring
Encoding: 197 197 61
Width: 600
GlyphClass: 2
Flags: MW
HStem: 0 21G<45 45 45 91 506 506 506 555> 226 39<183 417 183 430 169 417> 616 43<298 302 298 298> 700 26<284 315 284 324> 845 26<284 315>
VStem: 212 30<765.5 804 765.5 811.5> 356 32<765.5 804>
AnchorPoint: "Anchor-6" 510 0 basechar 0
LayerCount: 2
Fore
SplineSet
225 388 m 2
 183 265 l 1
 417 265 l 1
 375 388 l 2
 348 466 325 535 302 616 c 1
 298 616 l 1
 275 535 251 466 225 388 c 2
45 0 m 1
 277 659 l 1
 323 659 l 1
 555 0 l 1
 506 0 l 1
 430 226 l 1
 169 226 l 1
 91 0 l 1
 45 0 l 1
300 700 m 0
 251 700 212 734 212 785 c 0
 212 838 251 871 300 871 c 0
 348 871 388 838 388 785 c 0
 388 734 348 700 300 700 c 0
300 726 m 0
 330 726 356 746 356 785 c 0
 356 823 330 845 300 845 c 0
 268 845 242 823 242 785 c 0
 242 746 268 726 300 726 c 0
EndSplineSet
Validated: 1
EndChar

StartChar: Aringacute
Encoding: 506 506 62
Width: 600
Flags: MW
HStem: 0 21G<45 45 45 91 506 506 506 555> 226 39<183 417 183 430 169 417> 616 43<298 302 298 298> 700 26<284 315 284 324> 845 24<284 318>
VStem: 212 30<765.5 802> 356 32<765.5 804>
LayerCount: 2
Fore
SplineSet
225 388 m 2
 183 265 l 1
 417 265 l 1
 375 388 l 2
 348 466 325 535 302 616 c 1
 298 616 l 1
 275 535 251 466 225 388 c 2
45 0 m 1
 277 659 l 1
 323 659 l 1
 555 0 l 1
 506 0 l 1
 430 226 l 1
 169 226 l 1
 91 0 l 1
 45 0 l 1
300 700 m 0
 251 700 212 734 212 785 c 0
 212 819 228 844 252 859 c 2
 371 945 l 1
 394 914 l 1
 318 869 l 1
 357 862 388 831 388 785 c 0
 388 734 348 700 300 700 c 0
300 726 m 0
 330 726 356 746 356 785 c 0
 356 823 330 845 300 845 c 0
 268 845 242 823 242 785 c 0
 242 746 268 726 300 726 c 0
EndSplineSet
Validated: 1
EndChar

StartChar: uni01CD
Encoding: 461 461 63
Width: 600
Flags: MW
HStem: 0 21G<45 45 45 91 506 506 506 555> 226 39<183 417 183 430 169 417> 616 43<298 302 298 298> 709 34<278 302 298 302 298 322>
VStem: 45 510<0 0>
LayerCount: 2
Fore
SplineSet
225 388 m 2
 183 265 l 1
 417 265 l 1
 375 388 l 2
 348 466 325 535 302 616 c 1
 298 616 l 1
 275 535 251 466 225 388 c 2
45 0 m 1
 277 659 l 1
 323 659 l 1
 555 0 l 1
 506 0 l 1
 430 226 l 1
 169 226 l 1
 91 0 l 1
 45 0 l 1
278 709 m 1
 165 823 l 1
 185 841 l 1
 298 743 l 1
 302 743 l 1
 415 841 l 1
 435 823 l 1
 322 709 l 1
 278 709 l 1
EndSplineSet
Validated: 1
EndChar

StartChar: Aogonek
Encoding: 260 260 64
Width: 600
GlyphClass: 2
Flags: MW
HStem: -224 36<510 538.5 510 539> 0 21G<45 91 45 45 506 513 506 506 555 555> 226 39<183 417 183 430 169 417> 616 43<298 302 298 298>
VStem: 425 40<-149 -105>
AnchorPoint: "Anchor-0" 300 679 basechar 0
LayerCount: 2
Fore
SplineSet
520 -224 m 0
 466 -224 425 -196 425 -135 c 0
 425 -75 470 -31 513 0 c 1
 506 0 l 1
 430 226 l 1
 169 226 l 1
 91 0 l 1
 45 0 l 1
 277 659 l 1
 323 659 l 1
 555 0 l 1
 506 -32 465 -76 465 -129 c 0
 465 -169 494 -188 526 -188 c 0
 551 -188 568 -177 582 -163 c 1
 602 -188 l 1
 581 -208 558 -224 520 -224 c 0
225 388 m 2
 183 265 l 1
 417 265 l 1
 375 388 l 2
 348 466 325 535 302 616 c 1
 298 616 l 1
 275 535 251 466 225 388 c 2
EndSplineSet
Validated: 1
Ligature2: "'ccmp' Glyph Composition/Decomposition lookup 18 subtable" A uni0328
EndChar

StartChar: uni1EA0
Encoding: 7840 7840 65
Width: 600
Flags: MW
HStem: -197 96<287 313> 0 21G<45 45 45 91 506 506 506 555> 226 39<183 417 183 430 169 417> 616 43<298 302 298 298>
VStem: 253 94<-164 -134.5>
LayerCount: 2
Fore
SplineSet
225 388 m 2
 183 265 l 1
 417 265 l 1
 375 388 l 2
 348 466 325 535 302 616 c 1
 298 616 l 1
 275 535 251 466 225 388 c 2
45 0 m 1
 277 659 l 1
 323 659 l 1
 555 0 l 1
 506 0 l 1
 430 226 l 1
 169 226 l 1
 91 0 l 1
 45 0 l 1
300 -197 m 0
 274 -197 253 -179 253 -149 c 0
 253 -120 274 -101 300 -101 c 0
 326 -101 347 -120 347 -149 c 0
 347 -179 326 -197 300 -197 c 0
EndSplineSet
Validated: 1
EndChar

StartChar: uni1EA2
Encoding: 7842 7842 66
Width: 600
Flags: MW
HStem: 0 21G<45 45 45 91 506 506 506 555> 226 39<183 417 183 430 169 417> 616 43<298 302 298 298> 831 32<245 249>
VStem: 330 40<769 798.5>
LayerCount: 2
Fore
SplineSet
225 388 m 2
 183 265 l 1
 417 265 l 1
 375 388 l 2
 348 466 325 535 302 616 c 1
 298 616 l 1
 275 535 251 466 225 388 c 2
45 0 m 1
 277 659 l 1
 323 659 l 1
 555 0 l 1
 506 0 l 1
 430 226 l 1
 169 226 l 1
 91 0 l 1
 45 0 l 1
275 702 m 1
 267 729 l 1
 303 740 330 755 330 783 c 0
 330 814 300 829 245 831 c 1
 249 863 l 1
 315 861 370 839 370 789 c 0
 370 737 323 715 275 702 c 1
EndSplineSet
Validated: 1
EndChar

StartChar: uni1EA4
Encoding: 7844 7844 67
Width: 600
Flags: MW
HStem: 0 21G<45 45 45 91 506 506 506 555> 226 39<183 417 183 430 169 417> 616 43<298 302 298 298> 706 20G<185 185 415 415> 775 35<298 302 298 298>
VStem: 45 510<0 0>
LayerCount: 2
Fore
SplineSet
225 388 m 2
 183 265 l 1
 417 265 l 1
 375 388 l 2
 348 466 325 535 302 616 c 1
 298 616 l 1
 275 535 251 466 225 388 c 2
45 0 m 1
 277 659 l 1
 323 659 l 1
 555 0 l 1
 506 0 l 1
 430 226 l 1
 169 226 l 1
 91 0 l 1
 45 0 l 1
204 707 m 1
 185 726 l 1
 280 810 l 1
 320 810 l 1
 415 726 l 1
 396 707 l 1
 302 775 l 1
 298 775 l 1
 204 707 l 1
403 765 m 1
 382 787 l 1
 476 884 l 1
 503 857 l 1
 403 765 l 1
EndSplineSet
Validated: 1
EndChar

StartChar: uni1EA6
Encoding: 7846 7846 68
Width: 600
Flags: MW
HStem: 0 21G<45 45 45 91 506 506 506 555> 226 39<183 417 183 430 169 417> 616 43<298 302 298 298> 706 20G<185 185 415 415> 775 35<298 302 298 298>
VStem: 45 510<0 0>
LayerCount: 2
Fore
SplineSet
225 388 m 2
 183 265 l 1
 417 265 l 1
 375 388 l 2
 348 466 325 535 302 616 c 1
 298 616 l 1
 275 535 251 466 225 388 c 2
45 0 m 1
 277 659 l 1
 323 659 l 1
 555 0 l 1
 506 0 l 1
 430 226 l 1
 169 226 l 1
 91 0 l 1
 45 0 l 1
204 707 m 1
 185 726 l 1
 280 810 l 1
 320 810 l 1
 415 726 l 1
 396 707 l 1
 302 775 l 1
 298 775 l 1
 204 707 l 1
197 765 m 1
 115 861 l 1
 142 884 l 1
 218 783 l 1
 197 765 l 1
EndSplineSet
Validated: 1
EndChar

StartChar: uni1EA8
Encoding: 7848 7848 69
Width: 600
Flags: MW
HStem: 0 21G<45 45 45 91 506 506 506 555> 226 39<183 417 183 430 169 417> 616 43<298 302 298 298> 706 20G<185 185 415 415> 775 35<298 302 298 298> 868 31<370 375>
VStem: 443 38<814.5 841>
LayerCount: 2
Fore
SplineSet
225 388 m 2
 183 265 l 1
 417 265 l 1
 375 388 l 2
 348 466 325 535 302 616 c 1
 298 616 l 1
 275 535 251 466 225 388 c 2
45 0 m 1
 277 659 l 1
 323 659 l 1
 555 0 l 1
 506 0 l 1
 430 226 l 1
 169 226 l 1
 91 0 l 1
 45 0 l 1
204 707 m 1
 185 726 l 1
 280 810 l 1
 320 810 l 1
 415 726 l 1
 396 707 l 1
 302 775 l 1
 298 775 l 1
 204 707 l 1
402 757 m 1
 392 784 l 1
 420 791 443 803 443 826 c 0
 443 856 418 866 370 868 c 1
 375 899 l 1
 434 896 481 878 481 831 c 0
 481 785 440 766 402 757 c 1
EndSplineSet
Validated: 1
EndChar

StartChar: uni1EAA
Encoding: 7850 7850 70
Width: 600
Flags: MW
HStem: 0 21G<45 45 45 91 506 506 506 555> 226 39<183 417 183 430 169 417> 616 43<298 302 298 298> 706 20G<185 185 415 415> 774 35<298 302 298 298> 840 32<344.5 382.5 344.5 396> 893 32<217.5 255.5>
VStem: 160 30<842 845> 410 30<920 923>
LayerCount: 2
Fore
SplineSet
225 388 m 2
 183 265 l 1
 417 265 l 1
 375 388 l 2
 348 466 325 535 302 616 c 1
 298 616 l 1
 275 535 251 466 225 388 c 2
45 0 m 1
 277 659 l 1
 323 659 l 1
 555 0 l 1
 506 0 l 1
 430 226 l 1
 169 226 l 1
 91 0 l 1
 45 0 l 1
204 707 m 1
 185 726 l 1
 280 809 l 1
 320 809 l 1
 415 726 l 1
 396 707 l 1
 302 774 l 1
 298 774 l 1
 204 707 l 1
369 840 m 0xff80
 301 840 280 893 231 893 c 0
 204 893 194 873 190 842 c 1
 160 845 l 1
 162 882 177 925 231 925 c 0xfb80
 299 925 320 872 369 872 c 0
 396 872 406 892 410 923 c 1
 440 920 l 1
 438 883 423 840 369 840 c 0xff80
EndSplineSet
Validated: 1
EndChar

StartChar: uni1EAC
Encoding: 7852 7852 71
Width: 600
Flags: MW
HStem: -197 96<287 313> 0 21G<45 45 45 91 506 506 506 555> 226 39<183 417 183 430 169 417> 616 43<298 302 298 298> 706 20G<165 165 435 435> 805 34<298 302 298 298>
VStem: 253 94<-164 -134.5>
LayerCount: 2
Fore
SplineSet
225 388 m 2
 183 265 l 1
 417 265 l 1
 375 388 l 2
 348 466 325 535 302 616 c 1
 298 616 l 1
 275 535 251 466 225 388 c 2
45 0 m 1
 277 659 l 1
 323 659 l 1
 555 0 l 1
 506 0 l 1
 430 226 l 1
 169 226 l 1
 91 0 l 1
 45 0 l 1
185 707 m 1
 165 726 l 1
 278 839 l 1
 322 839 l 1
 435 726 l 1
 415 707 l 1
 302 805 l 1
 298 805 l 1
 185 707 l 1
300 -197 m 0
 274 -197 253 -179 253 -149 c 0
 253 -120 274 -101 300 -101 c 0
 326 -101 347 -120 347 -149 c 0
 347 -179 326 -197 300 -197 c 0
EndSplineSet
Validated: 1
EndChar

StartChar: uni1EAE
Encoding: 7854 7854 72
Width: 600
Flags: MW
HStem: 0 21G<45 45 45 91 506 506 506 555> 226 39<183 417 183 430 169 417> 616 43<298 302 298 298> 710 32<267.5 332.5 267.5 344.5>
VStem: 164 32<834 839> 404 32<834 839>
LayerCount: 2
Fore
SplineSet
225 388 m 2
 183 265 l 1
 417 265 l 1
 375 388 l 2
 348 466 325 535 302 616 c 1
 298 616 l 1
 275 535 251 466 225 388 c 2
45 0 m 1
 277 659 l 1
 323 659 l 1
 555 0 l 1
 506 0 l 1
 430 226 l 1
 169 226 l 1
 91 0 l 1
 45 0 l 1
300 710 m 0
 212 710 172 775 164 834 c 1
 196 839 l 1
 203 788 235 742 300 742 c 0
 365 742 397 788 404 839 c 1
 436 834 l 1
 429 775 389 710 300 710 c 0
295 802 m 1
 272 820 l 1
 366 925 l 1
 397 900 l 1
 295 802 l 1
EndSplineSet
Validated: 1
EndChar

StartChar: uni1EB0
Encoding: 7856 7856 73
Width: 600
Flags: MW
HStem: 0 21G<45 45 45 91 506 506 506 555> 226 39<183 417 183 430 169 417> 616 43<298 302 298 298> 710 32<267.5 332.5 267.5 344.5>
VStem: 164 32<834 839> 404 32<834 839>
LayerCount: 2
Fore
SplineSet
225 388 m 2
 183 265 l 1
 417 265 l 1
 375 388 l 2
 348 466 325 535 302 616 c 1
 298 616 l 1
 275 535 251 466 225 388 c 2
45 0 m 1
 277 659 l 1
 323 659 l 1
 555 0 l 1
 506 0 l 1
 430 226 l 1
 169 226 l 1
 91 0 l 1
 45 0 l 1
300 710 m 0
 212 710 172 775 164 834 c 1
 196 839 l 1
 203 788 235 742 300 742 c 0
 365 742 397 788 404 839 c 1
 436 834 l 1
 429 775 389 710 300 710 c 0
305 802 m 1
 203 900 l 1
 234 925 l 1
 328 820 l 1
 305 802 l 1
EndSplineSet
Validated: 1
EndChar

StartChar: uni1EB2
Encoding: 7858 7858 74
Width: 600
Flags: MW
HStem: 0 21G<45 45 45 91 506 506 506 555> 226 39<183 417 183 430 169 417> 616 43<298 302 298 298> 710 32<267.5 332.5 267.5 344.5> 909 30<251 256>
VStem: 164 32<834 839> 324 38<854.5 881> 404 32<834 839>
LayerCount: 2
Fore
SplineSet
225 388 m 2
 183 265 l 1
 417 265 l 1
 375 388 l 2
 348 466 325 535 302 616 c 1
 298 616 l 1
 275 535 251 466 225 388 c 2
45 0 m 1
 277 659 l 1
 323 659 l 1
 555 0 l 1
 506 0 l 1
 430 226 l 1
 169 226 l 1
 91 0 l 1
 45 0 l 1
300 710 m 0
 212 710 172 775 164 834 c 1
 196 839 l 1
 203 788 235 742 300 742 c 0
 365 742 397 788 404 839 c 1
 436 834 l 1
 429 775 389 710 300 710 c 0
283 797 m 1
 273 824 l 1
 301 832 324 843 324 866 c 0
 324 896 299 906 251 909 c 1
 256 939 l 1
 315 937 362 919 362 871 c 0
 362 825 321 807 283 797 c 1
EndSplineSet
Validated: 1
EndChar

StartChar: uni1EB4
Encoding: 7860 7860 75
Width: 600
Flags: MW
HStem: 0 21G<45 45 45 91 506 506 506 555> 226 39<183 417 183 430 169 417> 616 43<298 302 298 298> 711 31<267.5 333 267.5 344.5> 841 32<344.5 382.5 344.5 396> 894 32<217.5 255.5>
VStem: 160 30<843 846> 165 31<814 819> 404 31<814 819> 410 30<921 924>
LayerCount: 2
Fore
SplineSet
225 388 m 2xf640
 183 265 l 1
 417 265 l 1
 375 388 l 2
 348 466 325 535 302 616 c 1
 298 616 l 1
 275 535 251 466 225 388 c 2xf640
45 0 m 1
 277 659 l 1
 323 659 l 1
 555 0 l 1
 506 0 l 1
 430 226 l 1
 169 226 l 1
 91 0 l 1
 45 0 l 1
300 711 m 0
 212 711 171 765 165 814 c 1xf640
 196 819 l 1
 203 779 235 742 300 742 c 0
 366 742 397 779 404 819 c 1
 435 814 l 1xf580
 429 765 389 711 300 711 c 0
369 841 m 0xfe40
 301 841 280 894 231 894 c 0
 204 894 194 874 190 843 c 1
 160 846 l 1
 162 883 177 926 231 926 c 0xf640
 299 926 320 873 369 873 c 0
 396 873 406 893 410 924 c 1
 440 921 l 1
 438 884 423 841 369 841 c 0xfe40
EndSplineSet
Validated: 1
EndChar

StartChar: uni1EB6
Encoding: 7862 7862 76
Width: 600
Flags: MW
HStem: -197 96<287 313> 0 21G<45 45 45 91 506 506 506 555> 226 39<183 417 183 430 169 417> 616 43<298 302 298 298> 710 33<268 332 268 344.5>
VStem: 164 33<834 839> 253 94<-164 -134.5> 403 33<834 839>
LayerCount: 2
Fore
SplineSet
225 388 m 2
 183 265 l 1
 417 265 l 1
 375 388 l 2
 348 466 325 535 302 616 c 1
 298 616 l 1
 275 535 251 466 225 388 c 2
45 0 m 1
 277 659 l 1
 323 659 l 1
 555 0 l 1
 506 0 l 1
 430 226 l 1
 169 226 l 1
 91 0 l 1
 45 0 l 1
300 710 m 0
 212 710 172 775 164 834 c 1
 197 839 l 1
 204 789 236 743 300 743 c 0
 364 743 396 789 403 839 c 1
 436 834 l 1
 429 775 389 710 300 710 c 0
300 -197 m 0
 274 -197 253 -179 253 -149 c 0
 253 -120 274 -101 300 -101 c 0
 326 -101 347 -120 347 -149 c 0
 347 -179 326 -197 300 -197 c 0
EndSplineSet
Validated: 1
EndChar

StartChar: AE
Encoding: 198 198 77
Width: 600
GlyphClass: 2
Flags: MW
HStem: 0 40<365 589 365 589> 217 38<159 321 159 321 143 321> 330 40<365 528 365 528> 619 40<317 321 317 317 365 365 365 579>
VStem: 321 44<40 217 217 217 255 330 370 619>
AnchorPoint: "Anchor-3" 339 -20 basechar 0
AnchorPoint: "Anchor-2" 461 0 basechar 0
AnchorPoint: "Anchor-0" 438 679 basechar 0
LayerCount: 2
Fore
SplineSet
217 389 m 2
 159 255 l 1
 321 255 l 1
 321 619 l 1
 317 619 l 1
 285 543 251 468 217 389 c 2
0 0 m 1
 291 659 l 1
 579 659 l 1
 579 619 l 1
 365 619 l 1
 365 370 l 1
 528 370 l 1
 528 330 l 1
 365 330 l 1
 365 40 l 1
 589 40 l 1
 589 0 l 1
 321 0 l 1
 321 217 l 1
 143 217 l 1
 50 0 l 1
 0 0 l 1
EndSplineSet
Validated: 1
EndChar

StartChar: AEacute
Encoding: 508 508 78
Width: 600
Flags: MW
HStem: 0 40<365 589 365 589> 217 38<159 321 159 321 143 321> 330 40<365 528 365 528> 619 40<317 321 317 317 365 365 365 579> 709 20G<394 394>
VStem: 321 44<40 217 217 217 255 330 370 619>
LayerCount: 2
Fore
SplineSet
217 389 m 2
 159 255 l 1
 321 255 l 1
 321 619 l 1
 317 619 l 1
 285 543 251 468 217 389 c 2
0 0 m 1
 291 659 l 1
 579 659 l 1
 579 619 l 1
 365 619 l 1
 365 370 l 1
 528 370 l 1
 528 330 l 1
 365 330 l 1
 365 40 l 1
 589 40 l 1
 589 0 l 1
 321 0 l 1
 321 217 l 1
 143 217 l 1
 50 0 l 1
 0 0 l 1
414 706 m 1
 394 729 l 1
 518 852 l 1
 547 819 l 1
 414 706 l 1
EndSplineSet
Validated: 1
EndChar

StartChar: uni01E2
Encoding: 482 482 79
Width: 600
Flags: MW
HStem: 0 40<365 589 365 589> 217 38<159 321 159 321 143 321> 330 40<365 528 365 528> 619 40<317 321 317 317 365 365 365 579> 743 36<314 562 314 562>
VStem: 321 44<40 217 217 217 255 330 370 619>
LayerCount: 2
Fore
SplineSet
217 389 m 2
 159 255 l 1
 321 255 l 1
 321 619 l 1
 317 619 l 1
 285 543 251 468 217 389 c 2
0 0 m 1
 291 659 l 1
 579 659 l 1
 579 619 l 1
 365 619 l 1
 365 370 l 1
 528 370 l 1
 528 330 l 1
 365 330 l 1
 365 40 l 1
 589 40 l 1
 589 0 l 1
 321 0 l 1
 321 217 l 1
 143 217 l 1
 50 0 l 1
 0 0 l 1
314 743 m 1
 314 779 l 1
 562 779 l 1
 562 743 l 1
 314 743 l 1
EndSplineSet
Validated: 1
EndChar

StartChar: uni0243
Encoding: 579 579 80
Width: 600
Flags: MW
HStem: 0 39<162 284 284 296> 174 37<38 116 162 326> 330 40<162 265 265 284 162 265> 620 39<162 270 162 162>
VStem: 116 46<39 39 39 174 211 330 370 620> 453 46<464.5 541> 494 45<139 237.5 128.5 239>
LayerCount: 2
Fore
SplineSet
116 0 m 1xfa
 116 174 l 1
 38 174 l 1
 38 206 l 1
 116 211 l 1
 116 659 l 1
 283 659 l 2
 418 659 499 609 499 499 c 0xfc
 499 430 460 375 382 355 c 1
 382 351 l 1
 480 337 539 283 539 192 c 0
 539 65 448 0 296 0 c 2
 116 0 l 1xfa
162 39 m 1
 284 39 l 2
 418 39 494 86 494 192 c 0xfa
 494 286 418 330 284 330 c 2
 162 330 l 1
 162 211 l 1
 326 211 l 1
 326 174 l 1
 162 174 l 1
 162 39 l 1
162 370 m 1
 265 370 l 2
 400 370 453 413 453 497 c 0xfc
 453 585 394 620 270 620 c 2
 162 620 l 1
 162 370 l 1
EndSplineSet
Validated: 1
EndChar

StartChar: uni1E06
Encoding: 7686 7686 81
Width: 600
Flags: MW
HStem: -160 36<183 429 183 429> 0 39<160 282 282 294> 330 40<160 263 263 282 160 263> 620 39<160 268 160 160>
VStem: 114 46<39 39 39 330 370 620> 451 46<464.5 541> 492 46<139 237.5 128.5 239>
LayerCount: 2
Fore
SplineSet
114 0 m 1xfa
 114 659 l 1
 281 659 l 2
 417 659 497 609 497 499 c 0xfc
 497 430 458 375 380 355 c 1
 380 351 l 1
 478 337 538 283 538 192 c 0
 538 65 446 0 294 0 c 2
 114 0 l 1xfa
160 370 m 1
 263 370 l 2
 398 370 451 413 451 497 c 0
 451 585 392 620 268 620 c 2
 160 620 l 1
 160 370 l 1
160 39 m 1
 282 39 l 2
 416 39 492 86 492 192 c 0xfa
 492 286 417 330 282 330 c 2
 160 330 l 1
 160 39 l 1
183 -160 m 1
 183 -124 l 1
 429 -124 l 1
 429 -160 l 1
 183 -160 l 1
EndSplineSet
Validated: 1
EndChar

StartChar: Ccedilla
Encoding: 199 199 82
Width: 600
Flags: MW
HStem: -219 30<270 277> -12 42<332 332> 629 42<282.5 385>
VStem: 72 48<239.5 422.5 239.5 435.5> 383 39<-151 -121.5>
LayerCount: 2
Fore
SplineSet
277 -219 m 1
 270 -189 l 1
 357 -183 383 -166 383 -136 c 0
 383 -107 360 -93 305 -85 c 1
 332 -12 l 1
 179 -3 72 128 72 331 c 0
 72 540 186 671 355 671 c 0
 431 671 491 633 526 592 c 1
 498 562 l 1
 463 602 415 629 355 629 c 0
 210 629 120 514 120 331 c 0
 120 148 210 30 352 30 c 0
 419 30 469 57 517 111 c 1
 545 82 l 1
 498 29 444 -6 368 -11 c 1
 351 -65 l 1
 394 -76 422 -94 422 -134 c 0
 422 -186 371 -213 277 -219 c 1
EndSplineSet
Validated: 1
EndChar

StartChar: Cacute
Encoding: 262 262 83
Width: 600
Flags: MW
HStem: -12 42<281 385.5 281 391> 629 42<282.5 385> 709 20G<298 298>
VStem: 72 48<239.5 422.5 239.5 435.5>
LayerCount: 2
Fore
SplineSet
348 -12 m 0
 186 -12 72 121 72 331 c 0
 72 540 186 671 355 671 c 0
 431 671 491 633 526 592 c 1
 498 562 l 1
 463 602 415 629 355 629 c 0
 210 629 120 514 120 331 c 0
 120 148 210 30 352 30 c 0
 419 30 469 57 517 111 c 1
 545 82 l 1
 494 24 434 -12 348 -12 c 0
318 706 m 1
 298 729 l 1
 422 852 l 1
 451 819 l 1
 318 706 l 1
EndSplineSet
Validated: 1
EndChar

StartChar: Ccircumflex
Encoding: 264 264 84
Width: 600
Flags: MW
HStem: -12 42<281 385.5 281 391> 629 42<282.5 385> 706 20G<207 207 477 477> 805 34<340 344 340 340>
VStem: 72 48<239.5 422.5 239.5 435.5>
LayerCount: 2
Fore
SplineSet
348 -12 m 0
 186 -12 72 121 72 331 c 0
 72 540 186 671 355 671 c 0
 431 671 491 633 526 592 c 1
 498 562 l 1
 463 602 415 629 355 629 c 0
 210 629 120 514 120 331 c 0
 120 148 210 30 352 30 c 0
 419 30 469 57 517 111 c 1
 545 82 l 1
 494 24 434 -12 348 -12 c 0
227 707 m 1
 207 726 l 1
 320 839 l 1
 364 839 l 1
 477 726 l 1
 457 707 l 1
 344 805 l 1
 340 805 l 1
 227 707 l 1
EndSplineSet
Validated: 1
EndChar

StartChar: Ccaron
Encoding: 268 268 85
Width: 600
Flags: MW
HStem: -12 42<281 385.5 281 391> 629 42<282.5 385> 709 34<320 344 340 344 340 364>
VStem: 72 48<239.5 422.5 239.5 435.5>
LayerCount: 2
Fore
SplineSet
348 -12 m 0
 186 -12 72 121 72 331 c 0
 72 540 186 671 355 671 c 0
 431 671 491 633 526 592 c 1
 498 562 l 1
 463 602 415 629 355 629 c 0
 210 629 120 514 120 331 c 0
 120 148 210 30 352 30 c 0
 419 30 469 57 517 111 c 1
 545 82 l 1
 494 24 434 -12 348 -12 c 0
320 709 m 1
 207 823 l 1
 227 841 l 1
 340 743 l 1
 344 743 l 1
 457 841 l 1
 477 823 l 1
 364 709 l 1
 320 709 l 1
EndSplineSet
Validated: 1
EndChar

StartChar: Cdotaccent
Encoding: 266 266 86
Width: 600
Flags: MW
HStem: -12 42<281 385.5 281 391> 629 42<282.5 385> 721 82<331 353>
VStem: 72 48<239.5 422.5 239.5 435.5> 301 82<750.5 775>
LayerCount: 2
Fore
SplineSet
348 -12 m 0
 186 -12 72 121 72 331 c 0
 72 540 186 671 355 671 c 0
 431 671 491 633 526 592 c 1
 498 562 l 1
 463 602 415 629 355 629 c 0
 210 629 120 514 120 331 c 0
 120 148 210 30 352 30 c 0
 419 30 469 57 517 111 c 1
 545 82 l 1
 494 24 434 -12 348 -12 c 0
342 721 m 0
 320 721 301 738 301 763 c 0
 301 787 320 803 342 803 c 0
 364 803 383 787 383 763 c 0
 383 738 364 721 342 721 c 0
EndSplineSet
Validated: 1
EndChar

StartChar: Dcaron
Encoding: 270 270 87
Width: 600
Flags: MW
HStem: 0 39<142 244 244 249> 620 39<142 244 142 142> 709 34<278 302 298 302 298 322>
VStem: 96 46<39 39 39 620> 498 48<246 417.5>
LayerCount: 2
Fore
SplineSet
96 0 m 1
 96 659 l 1
 248 659 l 2
 451 659 546 531 546 332 c 0
 546 132 451 0 249 0 c 2
 96 0 l 1
142 39 m 1
 244 39 l 2
 421 39 498 160 498 332 c 0
 498 503 421 620 244 620 c 2
 142 620 l 1
 142 39 l 1
278 709 m 1
 165 823 l 1
 185 841 l 1
 298 743 l 1
 302 743 l 1
 415 841 l 1
 435 823 l 1
 322 709 l 1
 278 709 l 1
EndSplineSet
Validated: 1
EndChar

StartChar: uni1E0C
Encoding: 7692 7692 88
Width: 600
Flags: MW
HStem: -197 96<278 304> 0 39<142 244 244 249> 620 39<142 244 142 142>
VStem: 96 46<39 39 39 620> 244 94<-164 -134.5> 498 48<246 417.5>
LayerCount: 2
Fore
SplineSet
96 0 m 1
 96 659 l 1
 248 659 l 2
 451 659 546 531 546 332 c 0
 546 132 451 0 249 0 c 2
 96 0 l 1
142 39 m 1
 244 39 l 2
 421 39 498 160 498 332 c 0
 498 503 421 620 244 620 c 2
 142 620 l 1
 142 39 l 1
291 -197 m 0
 265 -197 244 -179 244 -149 c 0
 244 -120 265 -101 291 -101 c 0
 317 -101 338 -120 338 -149 c 0
 338 -179 317 -197 291 -197 c 0
EndSplineSet
Validated: 1
EndChar

StartChar: uni1E0E
Encoding: 7694 7694 89
Width: 600
Flags: MW
HStem: -160 36<168 414 168 414> 0 39<142 244 244 249> 620 39<142 244 142 142>
VStem: 96 46<39 39 39 620> 498 48<246 417.5>
LayerCount: 2
Fore
SplineSet
96 0 m 1
 96 659 l 1
 248 659 l 2
 451 659 546 531 546 332 c 0
 546 132 451 0 249 0 c 2
 96 0 l 1
142 39 m 1
 244 39 l 2
 421 39 498 160 498 332 c 0
 498 503 421 620 244 620 c 2
 142 620 l 1
 142 39 l 1
168 -160 m 1
 168 -124 l 1
 414 -124 l 1
 414 -160 l 1
 168 -160 l 1
EndSplineSet
Validated: 1
EndChar

StartChar: uni1E10
Encoding: 7696 7696 90
Width: 600
Flags: MW
HStem: -219 30<205 212> 0 39<142 244 244 249> 620 39<142 244 142 142>
VStem: 96 46<39 39 39 620> 318 39<-151 -121.5> 498 48<246 417.5>
LayerCount: 2
Fore
SplineSet
142 39 m 1
 244 39 l 2
 421 39 498 160 498 332 c 0
 498 503 421 620 244 620 c 2
 142 620 l 1
 142 39 l 1
212 -219 m 1
 205 -189 l 1
 292 -183 318 -166 318 -136 c 0
 318 -107 295 -93 240 -85 c 1
 272 1 l 1
 264 0 257 0 249 0 c 2
 96 0 l 1
 96 659 l 1
 248 659 l 2
 451 659 546 531 546 332 c 0
 546 153 470 28 308 4 c 1
 286 -65 l 1
 329 -76 357 -94 357 -134 c 0
 357 -186 306 -213 212 -219 c 1
EndSplineSet
Validated: 1
EndChar

StartChar: Dcroat
Encoding: 272 272 91
Width: 600
GlyphClass: 2
Flags: MW
HStem: 0 39<142 244 244 249> 331 38<19 96 142 307> 620 39<142 244 142 142>
VStem: 96 46<39 39 39 331 369 620> 498 48<246 417.5>
AnchorPoint: "Anchor-3" 290 -20 basechar 0
AnchorPoint: "Anchor-0" 300 679 basechar 0
LayerCount: 2
Fore
SplineSet
96 0 m 1
 96 331 l 1
 19 331 l 1
 19 364 l 1
 96 369 l 1
 96 659 l 1
 248 659 l 2
 450 659 546 531 546 332 c 0
 546 132 450 0 249 0 c 2
 96 0 l 1
142 39 m 1
 244 39 l 2
 421 39 498 160 498 332 c 0
 498 503 421 620 244 620 c 2
 142 620 l 1
 142 369 l 1
 307 369 l 1
 307 331 l 1
 142 331 l 1
 142 39 l 1
EndSplineSet
Validated: 1
EndChar

StartChar: uni018A
Encoding: 394 394 92
Width: 600
Flags: MW
HStem: 0 39<272 296> 630 41<272 272>
VStem: 35 44<417 499.5 417 516.5> 226 46<39 39 39 628 628 628> 511 48<251 425>
LayerCount: 2
Fore
SplineSet
226 0 m 1
 226 628 l 1
 131 616 79 545 79 454 c 0
 79 380 108 337 167 303 c 1
 143 268 l 1
 75 302 35 360 35 453 c 0
 35 580 113 671 262 671 c 0
 469 671 559 542 559 339 c 0
 559 134 467 0 296 0 c 2
 226 0 l 1
272 39 m 1
 301 39 l 2
 445 39 511 163 511 339 c 0
 511 511 446 627 272 630 c 1
 272 39 l 1
EndSplineSet
Validated: 1
EndChar

StartChar: Egrave
Encoding: 200 200 93
Width: 600
Flags: MW
HStem: 0 40<173 527 173 527> 330 40<173 463 173 463> 619 40<173 517 173 173> 709 20G<380 380>
VStem: 127 46<40 330 370 619>
LayerCount: 2
Fore
SplineSet
127 0 m 1
 127 659 l 1
 517 659 l 1
 517 619 l 1
 173 619 l 1
 173 370 l 1
 463 370 l 1
 463 330 l 1
 173 330 l 1
 173 40 l 1
 527 40 l 1
 527 0 l 1
 127 0 l 1
360 706 m 1
 227 819 l 1
 256 852 l 1
 380 729 l 1
 360 706 l 1
EndSplineSet
Validated: 1
EndChar

StartChar: Eacute
Encoding: 201 201 94
Width: 600
GlyphClass: 2
Flags: MW
HStem: 0 40<173 527 173 527> 330 40<173 463 173 463> 619 40<173 517 173 173> 709 20G<292 292>
VStem: 127 46<40 330 370 619>
AnchorPoint: "Anchor-6" 429 0 basechar 0
LayerCount: 2
Fore
SplineSet
127 0 m 1
 127 659 l 1
 517 659 l 1
 517 619 l 1
 173 619 l 1
 173 370 l 1
 463 370 l 1
 463 330 l 1
 173 330 l 1
 173 40 l 1
 527 40 l 1
 527 0 l 1
 127 0 l 1
312 706 m 1
 292 729 l 1
 416 852 l 1
 445 819 l 1
 312 706 l 1
EndSplineSet
Validated: 1
EndChar

StartChar: Ecircumflex
Encoding: 202 202 95
Width: 600
Flags: MW
HStem: 0 40<173 527 173 527> 330 40<173 463 173 463> 619 40<173 517 173 173> 706 20G<201 201 471 471> 805 34<334 338 334 334>
VStem: 127 46<40 330 370 619>
LayerCount: 2
Fore
SplineSet
127 0 m 1
 127 659 l 1
 517 659 l 1
 517 619 l 1
 173 619 l 1
 173 370 l 1
 463 370 l 1
 463 330 l 1
 173 330 l 1
 173 40 l 1
 527 40 l 1
 527 0 l 1
 127 0 l 1
221 707 m 1
 201 726 l 1
 314 839 l 1
 358 839 l 1
 471 726 l 1
 451 707 l 1
 338 805 l 1
 334 805 l 1
 221 707 l 1
EndSplineSet
Validated: 1
MultipleSubs2: "Multiple Substitution lookup 14 subtable" E uni0302
EndChar

StartChar: Ecaron
Encoding: 282 282 96
Width: 600
Flags: MW
HStem: 0 40<173 527 173 527> 330 40<173 463 173 463> 619 40<173 517 173 173> 709 34<314 338 334 338 334 358>
VStem: 127 46<40 330 370 619>
LayerCount: 2
Fore
SplineSet
127 0 m 1
 127 659 l 1
 517 659 l 1
 517 619 l 1
 173 619 l 1
 173 370 l 1
 463 370 l 1
 463 330 l 1
 173 330 l 1
 173 40 l 1
 527 40 l 1
 527 0 l 1
 127 0 l 1
314 709 m 1
 201 823 l 1
 221 841 l 1
 334 743 l 1
 338 743 l 1
 451 841 l 1
 471 823 l 1
 358 709 l 1
 314 709 l 1
EndSplineSet
Validated: 1
EndChar

StartChar: Edieresis
Encoding: 203 203 97
Width: 600
Flags: MW
HStem: 0 40<173 527 173 527> 330 40<173 463 173 463> 619 40<173 517 173 173> 725 74<245.5 266.5 405.5 426.5>
VStem: 127 46<40 330 370 619> 219 74<750.5 773> 379 74<750.5 773>
LayerCount: 2
Fore
SplineSet
127 0 m 1
 127 659 l 1
 517 659 l 1
 517 619 l 1
 173 619 l 1
 173 370 l 1
 463 370 l 1
 463 330 l 1
 173 330 l 1
 173 40 l 1
 527 40 l 1
 527 0 l 1
 127 0 l 1
256 725 m 0
 235 725 219 739 219 762 c 0
 219 784 235 799 256 799 c 0
 277 799 293 784 293 762 c 0
 293 739 277 725 256 725 c 0
416 725 m 0
 395 725 379 739 379 762 c 0
 379 784 395 799 416 799 c 0
 437 799 453 784 453 762 c 0
 453 739 437 725 416 725 c 0
EndSplineSet
Validated: 1
EndChar

StartChar: Emacron
Encoding: 274 274 98
Width: 600
Flags: MW
HStem: 0 40<173 527 173 527> 330 40<173 463 173 463> 619 40<173 517 173 173> 743 36<212 460 212 460>
VStem: 127 46<40 330 370 619>
LayerCount: 2
Fore
SplineSet
127 0 m 1
 127 659 l 1
 517 659 l 1
 517 619 l 1
 173 619 l 1
 173 370 l 1
 463 370 l 1
 463 330 l 1
 173 330 l 1
 173 40 l 1
 527 40 l 1
 527 0 l 1
 127 0 l 1
212 743 m 1
 212 779 l 1
 460 779 l 1
 460 743 l 1
 212 743 l 1
EndSplineSet
Validated: 1
MultipleSubs2: "Multiple Substitution lookup 14 subtable" E uni0304
EndChar

StartChar: Ebreve
Encoding: 276 276 99
Width: 600
Flags: MW
HStem: 0 40<173 527 173 527> 330 40<173 463 173 463> 619 40<173 517 173 173> 710 33<304 368 304 380.5>
VStem: 127 46<40 330 370 619> 200 33<834 839> 439 33<834 839>
LayerCount: 2
Fore
SplineSet
127 0 m 1
 127 659 l 1
 517 659 l 1
 517 619 l 1
 173 619 l 1
 173 370 l 1
 463 370 l 1
 463 330 l 1
 173 330 l 1
 173 40 l 1
 527 40 l 1
 527 0 l 1
 127 0 l 1
336 710 m 0xfe
 248 710 208 775 200 834 c 1
 233 839 l 1
 240 789 272 743 336 743 c 0
 400 743 432 789 439 839 c 1
 472 834 l 1
 465 775 425 710 336 710 c 0xfe
EndSplineSet
Validated: 1
EndChar

StartChar: Edotaccent
Encoding: 278 278 100
Width: 600
Flags: MW
HStem: 0 40<173 527 173 527> 330 40<173 463 173 463> 619 40<173 517 173 173> 721 82<325 347>
VStem: 127 46<40 330 370 619> 295 82<750.5 775>
LayerCount: 2
Fore
SplineSet
127 0 m 1
 127 659 l 1
 517 659 l 1
 517 619 l 1
 173 619 l 1
 173 370 l 1
 463 370 l 1
 463 330 l 1
 173 330 l 1
 173 40 l 1
 527 40 l 1
 527 0 l 1
 127 0 l 1
336 721 m 0
 314 721 295 738 295 763 c 0
 295 787 314 803 336 803 c 0
 358 803 377 787 377 763 c 0
 377 738 358 721 336 721 c 0
EndSplineSet
Validated: 1
EndChar

StartChar: Eogonek
Encoding: 280 280 101
Width: 600
GlyphClass: 2
Flags: MW
HStem: -224 36<459.5 487.5 459.5 488> 0 40<173 463 525 525 525 527> 330 40<173 463 173 463> 619 40<173 517 173 173>
VStem: 127 46<40 330 370 619> 374 40<-149 -106>
AnchorPoint: "Anchor-0" 336 679 basechar 0
LayerCount: 2
Fore
SplineSet
469 -224 m 0
 415 -224 374 -196 374 -135 c 0
 374 -77 415 -29 463 0 c 1
 127 0 l 1
 127 659 l 1
 517 659 l 1
 517 619 l 1
 173 619 l 1
 173 370 l 1
 463 370 l 1
 463 330 l 1
 173 330 l 1
 173 40 l 1
 527 40 l 1
 527 0 l 1
 525 0 l 1
 471 -11 414 -71 414 -129 c 0
 414 -169 444 -188 475 -188 c 0
 500 -188 517 -177 531 -163 c 1
 551 -188 l 1
 530 -208 507 -224 469 -224 c 0
EndSplineSet
Validated: 1
Ligature2: "'ccmp' Glyph Composition/Decomposition lookup 18 subtable" E uni0328
EndChar

StartChar: uni1EB8
Encoding: 7864 7864 102
Width: 600
Flags: MW
HStem: -197 96<325 351> 0 40<173 527 173 527> 330 40<173 463 173 463> 619 40<173 517 173 173>
VStem: 127 46<40 330 370 619> 291 94<-164 -134.5>
LayerCount: 2
Fore
SplineSet
127 0 m 1
 127 659 l 1
 517 659 l 1
 517 619 l 1
 173 619 l 1
 173 370 l 1
 463 370 l 1
 463 330 l 1
 173 330 l 1
 173 40 l 1
 527 40 l 1
 527 0 l 1
 127 0 l 1
338 -197 m 0
 312 -197 291 -179 291 -149 c 0
 291 -120 312 -101 338 -101 c 0
 364 -101 385 -120 385 -149 c 0
 385 -179 364 -197 338 -197 c 0
EndSplineSet
Validated: 1
EndChar

StartChar: uni1EBA
Encoding: 7866 7866 103
Width: 600
Flags: MW
HStem: 0 40<173 527 173 527> 330 40<173 463 173 463> 619 40<173 517 173 173> 831 32<281 285>
VStem: 127 46<40 330 370 619> 366 40<769 798.5>
LayerCount: 2
Fore
SplineSet
127 0 m 1
 127 659 l 1
 517 659 l 1
 517 619 l 1
 173 619 l 1
 173 370 l 1
 463 370 l 1
 463 330 l 1
 173 330 l 1
 173 40 l 1
 527 40 l 1
 527 0 l 1
 127 0 l 1
311 702 m 1
 303 729 l 1
 339 740 366 755 366 783 c 0
 366 814 336 829 281 831 c 1
 285 863 l 1
 351 861 406 839 406 789 c 0
 406 737 359 715 311 702 c 1
EndSplineSet
Validated: 1
EndChar

StartChar: uni1EBC
Encoding: 7868 7868 104
Width: 600
Flags: MW
HStem: 0 40<173 527 173 527> 330 40<173 463 173 463> 619 40<173 517 173 173> 704 20G<171 171> 718 37<385.5 427.5 385.5 440> 797 37<244.5 286.5>
VStem: 127 46<40 330 370 619> 171 33<721 724> 468 33<829 832>
LayerCount: 2
Fore
SplineSet
127 0 m 1xf680
 127 659 l 1
 517 659 l 1
 517 619 l 1
 173 619 l 1
 173 370 l 1
 463 370 l 1
 463 330 l 1
 173 330 l 1
 173 40 l 1
 527 40 l 1
 527 0 l 1
 127 0 l 1xf680
413 718 m 0xed80
 336 718 314 797 259 797 c 0
 230 797 208 768 204 721 c 1xf680
 171 724 l 1xf580
 174 786 205 834 259 834 c 0
 336 834 358 755 413 755 c 0
 442 755 462 785 468 832 c 1
 501 829 l 1
 498 767 467 718 413 718 c 0xed80
EndSplineSet
Validated: 1
EndChar

StartChar: uni1EBE
Encoding: 7870 7870 105
Width: 600
Flags: MW
HStem: 0 40<173 527 173 527> 330 40<173 463 173 463> 619 40<173 517 173 173> 706 20G<221 221 451 451> 775 35<334 338 334 334>
VStem: 127 46<40 330 370 619>
LayerCount: 2
Fore
SplineSet
127 0 m 1
 127 659 l 1
 517 659 l 1
 517 619 l 1
 173 619 l 1
 173 370 l 1
 463 370 l 1
 463 330 l 1
 173 330 l 1
 173 40 l 1
 527 40 l 1
 527 0 l 1
 127 0 l 1
240 707 m 1
 221 726 l 1
 316 810 l 1
 356 810 l 1
 451 726 l 1
 432 707 l 1
 338 775 l 1
 334 775 l 1
 240 707 l 1
439 765 m 1
 418 787 l 1
 512 884 l 1
 539 857 l 1
 439 765 l 1
EndSplineSet
Validated: 1
EndChar

StartChar: uni1EC0
Encoding: 7872 7872 106
Width: 600
Flags: MW
HStem: 0 40<173 527 173 527> 330 40<173 463 173 463> 619 40<173 517 173 173> 706 20G<221 221 451 451> 775 35<334 338 334 334>
VStem: 127 46<40 330 370 619>
LayerCount: 2
Fore
SplineSet
127 0 m 1
 127 659 l 1
 517 659 l 1
 517 619 l 1
 173 619 l 1
 173 370 l 1
 463 370 l 1
 463 330 l 1
 173 330 l 1
 173 40 l 1
 527 40 l 1
 527 0 l 1
 127 0 l 1
240 707 m 1
 221 726 l 1
 316 810 l 1
 356 810 l 1
 451 726 l 1
 432 707 l 1
 338 775 l 1
 334 775 l 1
 240 707 l 1
233 765 m 1
 151 861 l 1
 178 884 l 1
 254 783 l 1
 233 765 l 1
EndSplineSet
Validated: 1
EndChar

StartChar: uni1EC2
Encoding: 7874 7874 107
Width: 600
Flags: MW
HStem: 0 40<173 527 173 527> 330 40<173 463 173 463> 619 40<173 517 173 173> 706 20G<221 221 451 451> 775 35<334 338 334 334> 868 31<406 411>
VStem: 127 46<40 330 370 619> 479 38<814.5 841>
LayerCount: 2
Fore
SplineSet
127 0 m 1
 127 659 l 1
 517 659 l 1
 517 619 l 1
 173 619 l 1
 173 370 l 1
 463 370 l 1
 463 330 l 1
 173 330 l 1
 173 40 l 1
 527 40 l 1
 527 0 l 1
 127 0 l 1
240 707 m 1
 221 726 l 1
 316 810 l 1
 356 810 l 1
 451 726 l 1
 432 707 l 1
 338 775 l 1
 334 775 l 1
 240 707 l 1
438 757 m 1
 428 784 l 1
 456 791 479 803 479 826 c 0
 479 856 454 866 406 868 c 1
 411 899 l 1
 470 896 517 878 517 831 c 0
 517 785 476 766 438 757 c 1
EndSplineSet
Validated: 1
EndChar

StartChar: uni1EC4
Encoding: 7876 7876 108
Width: 600
Flags: MW
HStem: 0 40<173 527 173 527> 330 40<173 463 173 463> 619 40<173 517 173 173> 706 20G<221 221 451 451> 774 35<334 338 334 334> 840 32<380.5 418.5 380.5 432> 893 32<253.5 291.5>
VStem: 127 46<40 330 370 619> 196 30<842 845> 446 30<920 923>
LayerCount: 2
Fore
SplineSet
127 0 m 1
 127 659 l 1
 517 659 l 1
 517 619 l 1
 173 619 l 1
 173 370 l 1
 463 370 l 1
 463 330 l 1
 173 330 l 1
 173 40 l 1
 527 40 l 1
 527 0 l 1
 127 0 l 1
240 707 m 1
 221 726 l 1
 316 809 l 1
 356 809 l 1
 451 726 l 1
 432 707 l 1
 338 774 l 1
 334 774 l 1
 240 707 l 1
405 840 m 0xff40
 337 840 316 893 267 893 c 0
 240 893 230 873 226 842 c 1
 196 845 l 1
 198 882 213 925 267 925 c 0xfb80
 335 925 356 872 405 872 c 0
 432 872 442 892 446 923 c 1
 476 920 l 1
 474 883 459 840 405 840 c 0xff40
EndSplineSet
Validated: 1
EndChar

StartChar: uni1EC6
Encoding: 7878 7878 109
Width: 600
Flags: MW
HStem: -197 96<325 351> 0 40<173 527 173 527> 330 40<173 463 173 463> 619 40<173 517 173 173> 706 20G<201 201 471 471> 805 34<334 338 334 334>
VStem: 127 46<40 330 370 619> 291 94<-164 -134.5>
LayerCount: 2
Fore
SplineSet
127 0 m 1
 127 659 l 1
 517 659 l 1
 517 619 l 1
 173 619 l 1
 173 370 l 1
 463 370 l 1
 463 330 l 1
 173 330 l 1
 173 40 l 1
 527 40 l 1
 527 0 l 1
 127 0 l 1
221 707 m 1
 201 726 l 1
 314 839 l 1
 358 839 l 1
 471 726 l 1
 451 707 l 1
 338 805 l 1
 334 805 l 1
 221 707 l 1
338 -197 m 0
 312 -197 291 -179 291 -149 c 0
 291 -120 312 -101 338 -101 c 0
 364 -101 385 -120 385 -149 c 0
 385 -179 364 -197 338 -197 c 0
EndSplineSet
Validated: 1
EndChar

StartChar: uni1E16
Encoding: 7702 7702 110
Width: 600
Flags: MW
HStem: 0 40<173 527 173 527> 330 40<173 463 173 463> 619 40<173 517 173 173> 743 36<212 460 212 460>
VStem: 127 46<40 330 370 619>
LayerCount: 2
Fore
SplineSet
127 0 m 1
 127 659 l 1
 517 659 l 1
 517 619 l 1
 173 619 l 1
 173 370 l 1
 463 370 l 1
 463 330 l 1
 173 330 l 1
 173 40 l 1
 527 40 l 1
 527 0 l 1
 127 0 l 1
212 743 m 1
 212 779 l 1
 460 779 l 1
 460 743 l 1
 212 743 l 1
325 823 m 1
 305 844 l 1
 407 945 l 1
 433 917 l 1
 325 823 l 1
EndSplineSet
Validated: 1
EndChar

StartChar: uni01F4
Encoding: 500 500 111
Width: 600
Flags: MW
HStem: -12 42<265 366 265 376.5> 285 39<328 480 328 525> 629 42<270.5 378> 709 20G<286 286>
VStem: 59 48<239.5 422.5 239.5 435.5> 480 45<80 285 285 285>
LayerCount: 2
Fore
SplineSet
334 -12 m 0
 170 -12 59 121 59 331 c 0
 59 540 173 671 343 671 c 0
 430 671 484 629 518 592 c 1
 491 562 l 1
 458 599 413 629 343 629 c 0
 198 629 107 514 107 331 c 0
 107 148 193 30 337 30 c 0
 395 30 449 48 480 80 c 1
 480 285 l 1
 328 285 l 1
 328 324 l 1
 525 324 l 1
 525 63 l 1
 485 19 419 -12 334 -12 c 0
306 706 m 1
 286 729 l 1
 410 852 l 1
 439 819 l 1
 306 706 l 1
EndSplineSet
Validated: 1
EndChar

StartChar: Gcircumflex
Encoding: 284 284 112
Width: 600
Flags: MW
HStem: -12 42<265 366 265 376.5> 285 39<328 480 328 525> 629 42<270.5 378> 706 20G<195 195 465 465> 805 34<328 332 328 328>
VStem: 59 48<239.5 422.5 239.5 435.5> 480 45<80 285 285 285>
LayerCount: 2
Fore
SplineSet
334 -12 m 0
 170 -12 59 121 59 331 c 0
 59 540 173 671 343 671 c 0
 430 671 484 629 518 592 c 1
 491 562 l 1
 458 599 413 629 343 629 c 0
 198 629 107 514 107 331 c 0
 107 148 193 30 337 30 c 0
 395 30 449 48 480 80 c 1
 480 285 l 1
 328 285 l 1
 328 324 l 1
 525 324 l 1
 525 63 l 1
 485 19 419 -12 334 -12 c 0
215 707 m 1
 195 726 l 1
 308 839 l 1
 352 839 l 1
 465 726 l 1
 445 707 l 1
 332 805 l 1
 328 805 l 1
 215 707 l 1
EndSplineSet
Validated: 1
EndChar

StartChar: Gbreve
Encoding: 286 286 113
Width: 600
Flags: MW
HStem: -12 42<265 366 265 376.5> 285 39<328 480 328 525> 629 42<270.5 378> 710 33<298 362 298 374.5>
VStem: 59 48<239.5 422.5 239.5 435.5> 194 33<834 839> 433 33<834 839> 480 45<80 285 285 285>
LayerCount: 2
Fore
SplineSet
334 -12 m 0
 170 -12 59 121 59 331 c 0
 59 540 173 671 343 671 c 0
 430 671 484 629 518 592 c 1
 491 562 l 1
 458 599 413 629 343 629 c 0
 198 629 107 514 107 331 c 0
 107 148 193 30 337 30 c 0
 395 30 449 48 480 80 c 1
 480 285 l 1
 328 285 l 1
 328 324 l 1
 525 324 l 1
 525 63 l 1
 485 19 419 -12 334 -12 c 0
330 710 m 0
 242 710 202 775 194 834 c 1
 227 839 l 1
 234 789 266 743 330 743 c 0
 394 743 426 789 433 839 c 1
 466 834 l 1xff
 459 775 419 710 330 710 c 0
EndSplineSet
Validated: 1
EndChar

StartChar: Gdotaccent
Encoding: 288 288 114
Width: 600
Flags: MW
HStem: -12 42<265 366 265 376.5> 285 39<328 480 328 525> 629 42<270.5 378> 721 82<319 341>
VStem: 59 48<239.5 422.5 239.5 435.5> 289 82<750.5 775> 480 45<80 285 285 285>
LayerCount: 2
Fore
SplineSet
334 -12 m 0
 170 -12 59 121 59 331 c 0
 59 540 173 671 343 671 c 0
 430 671 484 629 518 592 c 1
 491 562 l 1
 458 599 413 629 343 629 c 0
 198 629 107 514 107 331 c 0
 107 148 193 30 337 30 c 0
 395 30 449 48 480 80 c 1
 480 285 l 1
 328 285 l 1
 328 324 l 1
 525 324 l 1
 525 63 l 1
 485 19 419 -12 334 -12 c 0
330 721 m 0
 308 721 289 738 289 763 c 0
 289 787 308 803 330 803 c 0
 352 803 371 787 371 763 c 0
 371 738 352 721 330 721 c 0
EndSplineSet
Validated: 1
EndChar

StartChar: uni0122
Encoding: 290 290 115
Width: 600
Flags: MW
HStem: -219 30<250 257> -12 42<265 366 265 376.5> 285 39<328 480 328 525> 629 42<270.5 378>
VStem: 59 48<239.5 422.5 239.5 435.5> 363 39<-151.5 -121.5> 480 45<80 285 285 285>
LayerCount: 2
Fore
SplineSet
334 -12 m 0
 170 -12 59 121 59 331 c 0
 59 540 173 671 343 671 c 0
 430 671 484 629 518 592 c 1
 491 562 l 1
 458 599 413 629 343 629 c 0
 198 629 107 514 107 331 c 0
 107 148 193 30 337 30 c 0
 395 30 449 48 480 80 c 1
 480 285 l 1
 328 285 l 1
 328 324 l 1
 525 324 l 1
 525 63 l 1
 485 19 419 -12 334 -12 c 0
257 -219 m 1
 250 -189 l 1
 337 -183 363 -166 363 -137 c 0
 363 -106 334 -94 286 -90 c 1
 299 -61 l 1
 375 -72 402 -91 402 -134 c 0
 402 -186 351 -213 257 -219 c 1
EndSplineSet
Validated: 1
EndChar

StartChar: Gcaron
Encoding: 486 486 116
Width: 600
Flags: MW
HStem: -12 42<265 366 265 376.5> 285 39<328 480 328 525> 629 42<270.5 378> 709 34<308 332 328 332 328 352>
VStem: 59 48<239.5 422.5 239.5 435.5> 480 45<80 285 285 285>
LayerCount: 2
Fore
SplineSet
334 -12 m 0
 170 -12 59 121 59 331 c 0
 59 540 173 671 343 671 c 0
 430 671 484 629 518 592 c 1
 491 562 l 1
 458 599 413 629 343 629 c 0
 198 629 107 514 107 331 c 0
 107 148 193 30 337 30 c 0
 395 30 449 48 480 80 c 1
 480 285 l 1
 328 285 l 1
 328 324 l 1
 525 324 l 1
 525 63 l 1
 485 19 419 -12 334 -12 c 0
308 709 m 1
 195 823 l 1
 215 841 l 1
 328 743 l 1
 332 743 l 1
 445 841 l 1
 465 823 l 1
 352 709 l 1
 308 709 l 1
EndSplineSet
Validated: 1
EndChar

StartChar: uni1E20
Encoding: 7712 7712 117
Width: 600
Flags: MW
HStem: -12 42<265 366 265 376.5> 285 39<328 480 328 525> 629 42<270.5 378> 743 36<206 454 206 454>
VStem: 59 48<239.5 422.5 239.5 435.5> 480 45<80 285 285 285>
LayerCount: 2
Fore
SplineSet
334 -12 m 0
 170 -12 59 121 59 331 c 0
 59 540 173 671 343 671 c 0
 430 671 484 629 518 592 c 1
 491 562 l 1
 458 599 413 629 343 629 c 0
 198 629 107 514 107 331 c 0
 107 148 193 30 337 30 c 0
 395 30 449 48 480 80 c 1
 480 285 l 1
 328 285 l 1
 328 324 l 1
 525 324 l 1
 525 63 l 1
 485 19 419 -12 334 -12 c 0
206 743 m 1
 206 779 l 1
 454 779 l 1
 454 743 l 1
 206 743 l 1
EndSplineSet
Validated: 1
EndChar

StartChar: uni00470303
Encoding: 1114113 -1 118
Width: 600
GlyphClass: 3
Flags: MW
HStem: -12 42<265 366 265 376.5> 285 39<328 480 328 525> 629 42<270.5 378> 704 20G<165 165> 718 37<379.5 421.5 379.5 434> 797 37<238.5 280.5>
VStem: 59 48<239.5 422.5 239.5 435.5> 165 33<721 724> 462 33<829 832> 480 45<80 285 285 285>
LayerCount: 2
Fore
SplineSet
334 -12 m 0xf740
 170 -12 59 121 59 331 c 0
 59 540 173 671 343 671 c 0
 430 671 484 629 518 592 c 1
 491 562 l 1
 458 599 413 629 343 629 c 0
 198 629 107 514 107 331 c 0
 107 148 193 30 337 30 c 0
 395 30 449 48 480 80 c 1
 480 285 l 1
 328 285 l 1
 328 324 l 1
 525 324 l 1
 525 63 l 1
 485 19 419 -12 334 -12 c 0xf740
407 718 m 0xef80
 330 718 308 797 253 797 c 0
 224 797 202 768 198 721 c 1
 165 724 l 1xf740
 168 786 199 834 253 834 c 0
 330 834 352 755 407 755 c 0
 436 755 456 785 462 832 c 1
 495 829 l 1
 492 767 461 718 407 718 c 0xef80
EndSplineSet
Validated: 1
Ligature2: "'ccmp' Glyph Composition/Decomposition lookup 18 subtable" G uni0303
EndChar

StartChar: uni0193
Encoding: 403 403 119
Width: 600
Flags: MW
HStem: -12 42<265 366 265 376.5> 285 39<328 480 328 525> 629 42<270.5 364 258 378> 757 38<511.5 537.5 501.5 538>
VStem: 59 48<239.5 422.5 239.5 435.5> 434 41<695.5 714.5 680.5 734.5> 480 45<80 285 285 285>
LayerCount: 2
Fore
SplineSet
518 592 m 1
 491 562 l 1xfc
 458 599 413 629 343 629 c 0
 198 629 107 514 107 331 c 0
 107 148 193 30 337 30 c 0
 395 30 449 48 480 80 c 1
 480 285 l 1
 328 285 l 1
 328 324 l 1
 525 324 l 1
 525 63 l 1xfa
 485 19 419 -12 334 -12 c 0
 170 -12 59 121 59 331 c 0
 59 540 173 671 343 671 c 0
 385 671 420 661 448 647 c 1
 438 667 434 684 434 707 c 0
 434 762 475 795 528 795 c 0
 547 795 563 789 577 783 c 1
 567 747 l 1
 556 751 546 757 530 757 c 0
 493 757 475 729 475 700 c 0
 475 661 487 640 518 592 c 1
EndSplineSet
Validated: 1
EndChar

StartChar: Hcircumflex
Encoding: 292 292 120
Width: 600
Flags: MW
HStem: 0 21G<89 89 89 135 465 465 465 511> 330 40<135 465 135 465> 706 20G<165 165 435 435> 805 34<298 302 298 298>
VStem: 89 46<0 330 370 659> 465 46<0 330 330 330 370 659 0 659>
LayerCount: 2
Fore
SplineSet
89 0 m 1
 89 659 l 1
 135 659 l 1
 135 370 l 1
 465 370 l 1
 465 659 l 1
 511 659 l 1
 511 0 l 1
 465 0 l 1
 465 330 l 1
 135 330 l 1
 135 0 l 1
 89 0 l 1
185 707 m 1
 165 726 l 1
 278 839 l 1
 322 839 l 1
 435 726 l 1
 415 707 l 1
 302 805 l 1
 298 805 l 1
 185 707 l 1
EndSplineSet
Validated: 1
EndChar

StartChar: uni1E26
Encoding: 7718 7718 121
Width: 600
Flags: MW
HStem: 0 21G<89 89 89 135 465 465 465 511> 330 40<135 465 135 465> 725 74<209.5 230.5 369.5 390.5>
VStem: 89 46<0 330 370 659> 183 74<750.5 773> 343 74<750.5 773> 465 46<0 330 330 330 370 659 0 659>
LayerCount: 2
Fore
SplineSet
89 0 m 1
 89 659 l 1
 135 659 l 1
 135 370 l 1
 465 370 l 1
 465 659 l 1
 511 659 l 1
 511 0 l 1
 465 0 l 1
 465 330 l 1
 135 330 l 1
 135 0 l 1
 89 0 l 1
220 725 m 0
 199 725 183 739 183 762 c 0
 183 784 199 799 220 799 c 0
 241 799 257 784 257 762 c 0
 257 739 241 725 220 725 c 0
380 725 m 0
 359 725 343 739 343 762 c 0
 343 784 359 799 380 799 c 0
 401 799 417 784 417 762 c 0
 417 739 401 725 380 725 c 0
EndSplineSet
Validated: 1
EndChar

StartChar: uni1E24
Encoding: 7716 7716 122
Width: 600
Flags: MW
HStem: -197 96<287 313> 0 21G<89 89 89 135 465 465 465 511> 330 40<135 465 135 465>
VStem: 89 46<0 330 370 659> 253 94<-164 -134.5> 465 46<0 330 330 330 370 659 0 659>
LayerCount: 2
Fore
SplineSet
89 0 m 1
 89 659 l 1
 135 659 l 1
 135 370 l 1
 465 370 l 1
 465 659 l 1
 511 659 l 1
 511 0 l 1
 465 0 l 1
 465 330 l 1
 135 330 l 1
 135 0 l 1
 89 0 l 1
300 -197 m 0
 274 -197 253 -179 253 -149 c 0
 253 -120 274 -101 300 -101 c 0
 326 -101 347 -120 347 -149 c 0
 347 -179 326 -197 300 -197 c 0
EndSplineSet
Validated: 1
EndChar

StartChar: uni1E28
Encoding: 7720 7720 123
Width: 600
Flags: MW
HStem: -219 30<28 35> 0 21G<89 89 89 94 130 130 130 135 465 465 465 511> 330 40<135 465 135 465>
VStem: 89 46<0 330 370 659> 141 39<-151 -121.5> 465 46<0 330 330 330 370 659 0 659>
LayerCount: 2
Fore
SplineSet
89 0 m 1
 89 659 l 1
 135 659 l 1
 135 370 l 1
 465 370 l 1
 465 659 l 1
 511 659 l 1
 511 0 l 1
 465 0 l 1
 465 330 l 1
 135 330 l 1
 135 0 l 1
 130 0 l 1xf4
 109 -65 l 1
 152 -76 180 -94 180 -134 c 0
 180 -186 129 -213 35 -219 c 1
 28 -189 l 1
 115 -183 141 -166 141 -136 c 0
 141 -107 118 -93 63 -85 c 1xec
 94 0 l 1
 89 0 l 1
EndSplineSet
Validated: 1
EndChar

StartChar: uni1E2A
Encoding: 7722 7722 124
Width: 600
Flags: MW
HStem: -231 34<264 336 264 351.5> 0 21G<89 89 89 135 465 465 465 511> 330 40<135 465 135 465>
VStem: 89 46<0 330 370 659> 151 33<-83 -78> 416 33<-83 -78> 465 46<0 330 330 330 370 659 0 659>
LayerCount: 2
Fore
SplineSet
89 0 m 1
 89 659 l 1
 135 659 l 1
 135 370 l 1
 465 370 l 1
 465 659 l 1
 511 659 l 1
 511 0 l 1
 465 0 l 1
 465 330 l 1
 135 330 l 1
 135 0 l 1
 89 0 l 1
300 -231 m 0xfe
 197 -231 159 -149 151 -83 c 1
 184 -78 l 1
 192 -134 228 -197 300 -197 c 0
 372 -197 408 -134 416 -78 c 1
 449 -83 l 1
 441 -149 403 -231 300 -231 c 0xfe
EndSplineSet
Validated: 1
EndChar

StartChar: Hbar
Encoding: 294 294 125
Width: 600
Flags: MW
HStem: 0 21G<89 135 89 89 465 511 465 465> 330 40<135 465 135 465> 493 37<14 89 135 465 511 586>
VStem: 89 46<0 330 370 493 530 659> 465 46<0 330 330 330 370 493 0 493 530 659>
LayerCount: 2
Fore
SplineSet
14 493 m 1
 14 525 l 1
 89 530 l 1
 89 659 l 1
 135 659 l 1
 135 530 l 1
 465 530 l 1
 465 659 l 1
 511 659 l 1
 511 530 l 1
 586 530 l 1
 586 493 l 1
 511 493 l 1
 511 0 l 1
 465 0 l 1
 465 330 l 1
 135 330 l 1
 135 0 l 1
 89 0 l 1
 89 493 l 1
 14 493 l 1
135 370 m 1
 465 370 l 1
 465 493 l 1
 135 493 l 1
 135 370 l 1
EndSplineSet
Validated: 1
EndChar

StartChar: Igrave
Encoding: 204 204 126
Width: 600
Flags: MW
HStem: 0 40<107 277 107 277 323 493> 619 40<107 277 107 493 323 323 323 493> 709 20G<344 344>
VStem: 277 46<40 619 40 619>
LayerCount: 2
Fore
SplineSet
107 0 m 1
 107 40 l 1
 277 40 l 1
 277 619 l 1
 107 619 l 1
 107 659 l 1
 493 659 l 1
 493 619 l 1
 323 619 l 1
 323 40 l 1
 493 40 l 1
 493 0 l 1
 107 0 l 1
324 706 m 1
 191 819 l 1
 220 852 l 1
 344 729 l 1
 324 706 l 1
EndSplineSet
Validated: 1
EndChar

StartChar: Iacute
Encoding: 205 205 127
Width: 600
Flags: MW
HStem: 0 40<107 277 107 277 323 493> 619 40<107 277 107 493 323 323 323 493> 709 20G<256 256>
VStem: 277 46<40 619 40 619>
LayerCount: 2
Fore
SplineSet
107 0 m 1
 107 40 l 1
 277 40 l 1
 277 619 l 1
 107 619 l 1
 107 659 l 1
 493 659 l 1
 493 619 l 1
 323 619 l 1
 323 40 l 1
 493 40 l 1
 493 0 l 1
 107 0 l 1
276 706 m 1
 256 729 l 1
 380 852 l 1
 409 819 l 1
 276 706 l 1
EndSplineSet
Validated: 1
EndChar

StartChar: Icircumflex
Encoding: 206 206 128
Width: 600
Flags: MW
HStem: 0 40<107 277 107 277 323 493> 619 40<107 277 107 493 323 323 323 493> 706 20G<165 165 435 435> 805 34<298 302 298 298>
VStem: 277 46<40 619 40 619>
LayerCount: 2
Fore
SplineSet
107 0 m 1
 107 40 l 1
 277 40 l 1
 277 619 l 1
 107 619 l 1
 107 659 l 1
 493 659 l 1
 493 619 l 1
 323 619 l 1
 323 40 l 1
 493 40 l 1
 493 0 l 1
 107 0 l 1
185 707 m 1
 165 726 l 1
 278 839 l 1
 322 839 l 1
 435 726 l 1
 415 707 l 1
 302 805 l 1
 298 805 l 1
 185 707 l 1
EndSplineSet
Validated: 1
EndChar

StartChar: Itilde
Encoding: 296 296 129
Width: 600
Flags: MW
HStem: 0 40<107 277 107 277 323 493> 619 40<107 277 107 493 323 323 323 493> 704 20G<135 135> 718 37<349.5 391.5 349.5 404> 797 37<208.5 250.5>
VStem: 135 33<721 724> 277 46<40 619 40 619> 432 33<829 832>
LayerCount: 2
Fore
SplineSet
107 0 m 1xef
 107 40 l 1
 277 40 l 1
 277 619 l 1
 107 619 l 1
 107 659 l 1
 493 659 l 1
 493 619 l 1
 323 619 l 1
 323 40 l 1
 493 40 l 1
 493 0 l 1
 107 0 l 1xef
377 718 m 0xdf
 300 718 278 797 223 797 c 0
 194 797 172 768 168 721 c 1
 135 724 l 1xef
 138 786 169 834 223 834 c 0
 300 834 322 755 377 755 c 0
 406 755 426 785 432 832 c 1
 465 829 l 1
 462 767 431 718 377 718 c 0xdf
EndSplineSet
Validated: 1
EndChar

StartChar: Idieresis
Encoding: 207 207 130
Width: 600
Flags: MW
HStem: 0 40<107 277 107 277 323 493> 619 40<107 277 107 493 323 323 323 493> 725 74<209.5 230.5 369.5 390.5>
VStem: 183 74<750.5 773> 277 46<40 619 40 619> 343 74<750.5 773>
LayerCount: 2
Fore
SplineSet
107 0 m 1
 107 40 l 1
 277 40 l 1
 277 619 l 1
 107 619 l 1
 107 659 l 1
 493 659 l 1
 493 619 l 1
 323 619 l 1
 323 40 l 1
 493 40 l 1
 493 0 l 1
 107 0 l 1
220 725 m 0xfc
 199 725 183 739 183 762 c 0
 183 784 199 799 220 799 c 0
 241 799 257 784 257 762 c 0
 257 739 241 725 220 725 c 0xfc
380 725 m 0
 359 725 343 739 343 762 c 0
 343 784 359 799 380 799 c 0
 401 799 417 784 417 762 c 0
 417 739 401 725 380 725 c 0
EndSplineSet
Validated: 1
EndChar

StartChar: Imacron
Encoding: 298 298 131
Width: 600
Flags: MW
HStem: 0 40<107 277 107 277 323 493> 619 40<107 277 107 493 323 323 323 493> 743 36<176 424 176 424>
VStem: 277 46<40 619 40 619>
LayerCount: 2
Fore
SplineSet
107 0 m 1
 107 40 l 1
 277 40 l 1
 277 619 l 1
 107 619 l 1
 107 659 l 1
 493 659 l 1
 493 619 l 1
 323 619 l 1
 323 40 l 1
 493 40 l 1
 493 0 l 1
 107 0 l 1
176 743 m 1
 176 779 l 1
 424 779 l 1
 424 743 l 1
 176 743 l 1
EndSplineSet
Validated: 1
EndChar

StartChar: Idotaccent
Encoding: 304 304 132
Width: 600
Flags: MW
HStem: 0 40<107 277 107 277 323 493> 619 40<107 277 107 493 323 323 323 493> 721 82<289 311>
VStem: 259 82<750.5 775> 277 46<40 619 40 619>
LayerCount: 2
Fore
SplineSet
107 0 m 1xc8
 107 40 l 1
 277 40 l 1
 277 619 l 1
 107 619 l 1
 107 659 l 1
 493 659 l 1
 493 619 l 1
 323 619 l 1
 323 40 l 1
 493 40 l 1
 493 0 l 1
 107 0 l 1xc8
300 721 m 0xf0
 278 721 259 738 259 763 c 0
 259 787 278 803 300 803 c 0
 322 803 341 787 341 763 c 0
 341 738 322 721 300 721 c 0xf0
EndSplineSet
Validated: 1
EndChar

StartChar: uni01CF
Encoding: 463 463 133
Width: 600
Flags: MW
HStem: 0 40<107 277 107 277 323 493> 619 40<107 277 107 493 323 323 323 493> 709 34<278 302 298 302 298 322>
VStem: 277 46<40 619 40 619>
LayerCount: 2
Fore
SplineSet
107 0 m 1
 107 40 l 1
 277 40 l 1
 277 619 l 1
 107 619 l 1
 107 659 l 1
 493 659 l 1
 493 619 l 1
 323 619 l 1
 323 40 l 1
 493 40 l 1
 493 0 l 1
 107 0 l 1
278 709 m 1
 165 823 l 1
 185 841 l 1
 298 743 l 1
 302 743 l 1
 415 841 l 1
 435 823 l 1
 322 709 l 1
 278 709 l 1
EndSplineSet
Validated: 1
EndChar

StartChar: Iogonek
Encoding: 302 302 134
Width: 600
GlyphClass: 2
Flags: MW
HStem: -224 36<303.5 331.5 303.5 332> 0 40<107 277 107 287 107 277 330 330 330 493> 619 40<107 277 107 493 323 323 323 493>
VStem: 218 40<-149 -109.5 -149 -109.5> 277 46<40 619 40 619>
AnchorPoint: "Anchor-0" 300 679 basechar 0
LayerCount: 2
Fore
SplineSet
313 -224 m 0
 259 -224 218 -196 218 -135 c 0
 218 -84 252 -38 287 0 c 1xf8
 107 0 l 1
 107 40 l 1
 277 40 l 1
 277 619 l 1
 107 619 l 1
 107 659 l 1
 493 659 l 1
 493 619 l 1
 323 619 l 1
 323 40 l 1xe8
 493 40 l 1
 493 0 l 1
 330 0 l 1
 283 -47 258 -90 258 -129 c 0
 258 -169 288 -188 319 -188 c 0
 344 -188 361 -177 375 -163 c 1
 395 -188 l 1
 374 -208 351 -224 313 -224 c 0
EndSplineSet
Validated: 1
Ligature2: "'ccmp' Glyph Composition/Decomposition lookup 18 subtable" I uni0328
EndChar

StartChar: uni1EC8
Encoding: 7880 7880 135
Width: 600
Flags: MW
HStem: 0 40<107 277 107 277 323 493> 619 40<107 277 107 493 323 323 323 493> 831 32<245 249>
VStem: 277 46<40 619 40 619> 330 40<769 798.5>
LayerCount: 2
Fore
SplineSet
107 0 m 1
 107 40 l 1
 277 40 l 1
 277 619 l 1
 107 619 l 1
 107 659 l 1
 493 659 l 1
 493 619 l 1
 323 619 l 1
 323 40 l 1
 493 40 l 1
 493 0 l 1
 107 0 l 1
275 702 m 1xe8
 267 729 l 1
 303 740 330 755 330 783 c 0
 330 814 300 829 245 831 c 1
 249 863 l 1
 315 861 370 839 370 789 c 0
 370 737 323 715 275 702 c 1xe8
EndSplineSet
Validated: 1
EndChar

StartChar: uni1ECA
Encoding: 7882 7882 136
Width: 600
Flags: MW
HStem: -197 96<287 313> 0 40<107 277 107 277 323 493> 619 40<107 277 107 493 323 323 323 493>
VStem: 253 94<-164 -134.5> 277 46<40 619 40 619>
LayerCount: 2
Fore
SplineSet
107 0 m 1x68
 107 40 l 1
 277 40 l 1
 277 619 l 1
 107 619 l 1
 107 659 l 1
 493 659 l 1
 493 619 l 1
 323 619 l 1
 323 40 l 1
 493 40 l 1
 493 0 l 1
 107 0 l 1x68
300 -197 m 0xf0
 274 -197 253 -179 253 -149 c 0
 253 -120 274 -101 300 -101 c 0
 326 -101 347 -120 347 -149 c 0
 347 -179 326 -197 300 -197 c 0xf0
EndSplineSet
Validated: 1
EndChar

StartChar: Ibreve
Encoding: 300 300 137
Width: 600
Flags: MW
HStem: 0 40<107 277 107 277 323 493> 619 40<107 277 107 493 323 323 323 493> 710 33<268 332 268 344.5>
VStem: 164 33<834 839> 277 46<40 619 40 619> 403 33<834 839>
LayerCount: 2
Fore
SplineSet
107 0 m 1
 107 40 l 1
 277 40 l 1
 277 619 l 1
 107 619 l 1
 107 659 l 1
 493 659 l 1
 493 619 l 1
 323 619 l 1
 323 40 l 1
 493 40 l 1
 493 0 l 1
 107 0 l 1
300 710 m 0
 212 710 172 775 164 834 c 1
 197 839 l 1
 204 789 236 743 300 743 c 0
 364 743 396 789 403 839 c 1
 436 834 l 1
 429 775 389 710 300 710 c 0
EndSplineSet
Validated: 1
EndChar

StartChar: Jcircumflex
Encoding: 308 308 138
Width: 600
Flags: MW
HStem: -12 42<249.5 332 249.5 353.5> 621 39<147 434 147 480> 706 20G<186 186 456 456> 805 34<319 323 319 319>
VStem: 434 46<208 621 621 621>
LayerCount: 2
Fore
SplineSet
277 -12 m 0
 204 -12 132 25 93 98 c 1
 126 125 l 1
 164 59 222 30 277 30 c 0
 387 30 434 88 434 208 c 2
 434 621 l 1
 147 621 l 1
 147 660 l 1
 480 660 l 1
 480 204 l 2
 480 84 430 -12 277 -12 c 0
206 707 m 1
 186 726 l 1
 299 839 l 1
 343 839 l 1
 456 726 l 1
 436 707 l 1
 323 805 l 1
 319 805 l 1
 206 707 l 1
EndSplineSet
Validated: 1
EndChar

StartChar: uni0136
Encoding: 310 310 139
Width: 600
Flags: MW
HStem: -219 30<262 269> 0 21G<115 115 115 162 518 518 518 571>
VStem: 115 47<0 227 293 659> 375 39<-151.5 -121.5>
LayerCount: 2
Fore
SplineSet
115 0 m 1
 115 659 l 1
 162 659 l 1
 162 293 l 1
 164 293 l 1
 489 659 l 1
 544 659 l 1
 329 416 l 1
 571 0 l 1
 518 0 l 1
 298 381 l 1
 162 227 l 1
 162 0 l 1
 115 0 l 1
269 -219 m 1
 262 -189 l 1
 349 -183 375 -166 375 -137 c 0
 375 -106 346 -94 298 -90 c 1
 311 -61 l 1
 387 -72 414 -91 414 -134 c 0
 414 -186 363 -213 269 -219 c 1
EndSplineSet
Validated: 1
EndChar

StartChar: uni1E32
Encoding: 7730 7730 140
Width: 600
Flags: MW
HStem: -197 96<333 359> 0 21G<115 115 115 162 518 518 518 571>
VStem: 115 47<0 227 293 659> 299 94<-164 -134.5>
LayerCount: 2
Fore
SplineSet
115 0 m 1
 115 659 l 1
 162 659 l 1
 162 293 l 1
 164 293 l 1
 489 659 l 1
 544 659 l 1
 329 416 l 1
 571 0 l 1
 518 0 l 1
 298 381 l 1
 162 227 l 1
 162 0 l 1
 115 0 l 1
346 -197 m 0
 320 -197 299 -179 299 -149 c 0
 299 -120 320 -101 346 -101 c 0
 372 -101 393 -120 393 -149 c 0
 393 -179 372 -197 346 -197 c 0
EndSplineSet
Validated: 1
EndChar

StartChar: uni1E34
Encoding: 7732 7732 141
Width: 600
Flags: MW
HStem: -160 36<223 469 223 469> 0 21G<115 115 115 162 518 518 518 571>
VStem: 115 47<0 227 293 659>
LayerCount: 2
Fore
SplineSet
115 0 m 1
 115 659 l 1
 162 659 l 1
 162 293 l 1
 164 293 l 1
 489 659 l 1
 544 659 l 1
 329 416 l 1
 571 0 l 1
 518 0 l 1
 298 381 l 1
 162 227 l 1
 162 0 l 1
 115 0 l 1
223 -160 m 1
 223 -124 l 1
 469 -124 l 1
 469 -160 l 1
 223 -160 l 1
EndSplineSet
Validated: 1
EndChar

StartChar: Lacute
Encoding: 313 313 142
Width: 600
Flags: MW
HStem: 0 40<194 539 194 539> 709 20G<143 143>
VStem: 150 44<40 659 40 659 40 659>
LayerCount: 2
Fore
SplineSet
150 0 m 1
 150 659 l 1
 194 659 l 1
 194 40 l 1
 539 40 l 1
 539 0 l 1
 150 0 l 1
163 706 m 1
 143 729 l 1
 267 852 l 1
 296 819 l 1
 163 706 l 1
EndSplineSet
Validated: 1
EndChar

StartChar: Lcaron
Encoding: 317 317 143
Width: 600
Flags: MW
HStem: 0 40<194 539 194 539>
VStem: 150 44<40 659 40 659 40 659> 388 41
LayerCount: 2
Fore
SplineSet
150 0 m 1
 150 659 l 1
 194 659 l 1
 194 40 l 1
 539 40 l 1
 539 0 l 1
 150 0 l 1
389 517 m 1
 387 782 l 1
 429 782 l 1
 429 711 l 1
 421 517 l 1
 389 517 l 1
EndSplineSet
Validated: 1
EndChar

StartChar: uni013B
Encoding: 315 315 144
Width: 600
Flags: MW
HStem: -219 30<273 280> 0 40<194 539 194 539>
VStem: 150 44<40 659 40 659 40 659> 386 39<-151.5 -121.5>
LayerCount: 2
Fore
SplineSet
150 0 m 1
 150 659 l 1
 194 659 l 1
 194 40 l 1
 539 40 l 1
 539 0 l 1
 150 0 l 1
280 -219 m 1
 273 -189 l 1
 360 -183 386 -166 386 -137 c 0
 386 -106 357 -94 309 -90 c 1
 322 -61 l 1
 398 -72 425 -91 425 -134 c 0
 425 -186 374 -213 280 -219 c 1
EndSplineSet
Validated: 1
EndChar

StartChar: uni1E36
Encoding: 7734 7734 145
Width: 600
Flags: MW
HStem: -197 96<344 370> 0 40<194 539 194 539>
VStem: 150 44<40 659 40 659 40 659> 310 94<-164 -134.5>
LayerCount: 2
Fore
SplineSet
150 0 m 1
 150 659 l 1
 194 659 l 1
 194 40 l 1
 539 40 l 1
 539 0 l 1
 150 0 l 1
357 -197 m 0
 331 -197 310 -179 310 -149 c 0
 310 -120 331 -101 357 -101 c 0
 383 -101 404 -120 404 -149 c 0
 404 -179 383 -197 357 -197 c 0
EndSplineSet
Validated: 1
EndChar

StartChar: uni1E38
Encoding: 7736 7736 146
Width: 600
Flags: MW
HStem: -197 96<344 370> 0 40<194 539 194 539> 743 36<63 311 63 311>
VStem: 150 44<40 659 40 659 40 659> 310 94<-164 -134.5>
LayerCount: 2
Fore
SplineSet
150 0 m 1
 150 659 l 1
 194 659 l 1
 194 40 l 1
 539 40 l 1
 539 0 l 1
 150 0 l 1
63 743 m 1
 63 779 l 1
 311 779 l 1
 311 743 l 1
 63 743 l 1
357 -197 m 0
 331 -197 310 -179 310 -149 c 0
 310 -120 331 -101 357 -101 c 0
 383 -101 404 -120 404 -149 c 0
 404 -179 383 -197 357 -197 c 0
EndSplineSet
Validated: 1
EndChar

StartChar: uni1E3A
Encoding: 7738 7738 147
Width: 600
Flags: MW
HStem: -160 36<234 480 234 480> 0 40<194 539 194 539>
VStem: 150 44<40 659 40 659 40 659>
LayerCount: 2
Fore
SplineSet
150 0 m 1
 150 659 l 1
 194 659 l 1
 194 40 l 1
 539 40 l 1
 539 0 l 1
 150 0 l 1
234 -160 m 1
 234 -124 l 1
 480 -124 l 1
 480 -160 l 1
 234 -160 l 1
EndSplineSet
Validated: 1
EndChar

StartChar: Lslash
Encoding: 321 321 148
Width: 600
GlyphClass: 2
Flags: MW
HStem: 0 40<194 539 194 539>
VStem: 150 44<40 246 246 246 307 659>
AnchorPoint: "Anchor-3" 357 -20 basechar 0
AnchorPoint: "Anchor-0" 187 679 basechar 0
LayerCount: 2
Fore
SplineSet
37 188 m 1
 20 219 l 1
 150 286 l 1
 150 659 l 1
 194 659 l 1
 194 307 l 1
 423 427 l 1
 440 395 l 1
 194 266 l 1
 194 40 l 1
 539 40 l 1
 539 0 l 1
 150 0 l 1
 150 246 l 1
 37 188 l 1
EndSplineSet
Validated: 1
EndChar

StartChar: Ldot
Encoding: 319 319 149
Width: 600
Flags: MW
HStem: 0 40<194 539 194 539> 296 96<449 475>
VStem: 150 44<40 659 40 659 40 659> 415 94<329 358.5>
LayerCount: 2
Fore
SplineSet
150 0 m 1
 150 659 l 1
 194 659 l 1
 194 40 l 1
 539 40 l 1
 539 0 l 1
 150 0 l 1
462 296 m 0
 436 296 415 314 415 344 c 0
 415 373 436 392 462 392 c 0
 488 392 509 373 509 344 c 0
 509 314 488 296 462 296 c 0
EndSplineSet
Validated: 1
EndChar

StartChar: uni1E3E
Encoding: 7742 7742 150
Width: 600
Flags: MW
HStem: 0 21G<81 81 81 125 474 474 474 519> 175 60<298 302 298 317 281 302> 606 53<118 120 118 118 477 480 477 477> 709 20G<256 256>
VStem: 81 44<0 450 0 659> 474 45<0 450 450 473.5>
LayerCount: 2
Fore
SplineSet
81 0 m 1
 81 659 l 1
 142 659 l 1
 257 350 l 1
 298 235 l 1
 302 235 l 1
 341 350 l 1
 458 659 l 1
 519 659 l 1
 519 0 l 1
 474 0 l 1
 474 450 l 2
 474 497 478 561 480 606 c 1
 477 606 l 1
 441 493 l 1
 317 175 l 1
 281 175 l 1
 159 493 l 1
 120 606 l 1
 118 606 l 1
 120 561 125 497 125 450 c 2
 125 0 l 1
 81 0 l 1
276 706 m 1
 256 729 l 1
 380 852 l 1
 409 819 l 1
 276 706 l 1
EndSplineSet
Validated: 1
EndChar

StartChar: uni1E40
Encoding: 7744 7744 151
Width: 600
Flags: MW
HStem: 0 21G<81 81 81 125 474 474 474 519> 175 60<298 302 298 317 281 302> 606 53<118 120 118 118 477 480 477 477> 721 82<289 311>
VStem: 81 44<0 450 0 659> 259 82<750.5 775> 474 45<0 450 450 473.5>
LayerCount: 2
Fore
SplineSet
81 0 m 1
 81 659 l 1
 142 659 l 1
 257 350 l 1
 298 235 l 1
 302 235 l 1
 341 350 l 1
 458 659 l 1
 519 659 l 1
 519 0 l 1
 474 0 l 1
 474 450 l 2
 474 497 478 561 480 606 c 1
 477 606 l 1
 441 493 l 1
 317 175 l 1
 281 175 l 1
 159 493 l 1
 120 606 l 1
 118 606 l 1
 120 561 125 497 125 450 c 2
 125 0 l 1
 81 0 l 1
300 721 m 0
 278 721 259 738 259 763 c 0
 259 787 278 803 300 803 c 0
 322 803 341 787 341 763 c 0
 341 738 322 721 300 721 c 0
EndSplineSet
Validated: 1
EndChar

StartChar: uni1E42
Encoding: 7746 7746 152
Width: 600
Flags: MW
HStem: -197 96<287 313> 0 21G<81 81 81 125 474 474 474 519> 175 60<298 302 298 317 281 302> 606 53<118 120 118 118 477 480 477 477>
VStem: 81 44<0 450 0 659> 253 94<-164 -134.5> 474 45<0 450 450 473.5>
LayerCount: 2
Fore
SplineSet
81 0 m 1
 81 659 l 1
 142 659 l 1
 257 350 l 1
 298 235 l 1
 302 235 l 1
 341 350 l 1
 458 659 l 1
 519 659 l 1
 519 0 l 1
 474 0 l 1
 474 450 l 2
 474 497 478 561 480 606 c 1
 477 606 l 1
 441 493 l 1
 317 175 l 1
 281 175 l 1
 159 493 l 1
 120 606 l 1
 118 606 l 1
 120 561 125 497 125 450 c 2
 125 0 l 1
 81 0 l 1
300 -197 m 0
 274 -197 253 -179 253 -149 c 0
 253 -120 274 -101 300 -101 c 0
 326 -101 347 -120 347 -149 c 0
 347 -179 326 -197 300 -197 c 0
EndSplineSet
Validated: 1
EndChar

StartChar: Nacute
Encoding: 323 323 153
Width: 600
Flags: MW
HStem: 0 21G<92 92 92 136 459 459 459 508> 0 63<459 470 468 470 468 508> 596 63<130 132 130 130> 709 20G<266 266>
VStem: 92 44<0 409 0 659> 464 44<254 659 0 659>
LayerCount: 2
Fore
SplineSet
92 0 m 1xbc
 92 659 l 1
 141 659 l 1
 398 193 l 1
 468 63 l 1
 470 63 l 1x7c
 469 126 464 190 464 254 c 2
 464 659 l 1
 508 659 l 1
 508 0 l 1
 459 0 l 1
 202 466 l 1
 132 596 l 1
 130 596 l 1
 131 532 136 472 136 409 c 2
 136 0 l 1
 92 0 l 1xbc
286 706 m 1
 266 729 l 1
 390 852 l 1
 419 819 l 1
 286 706 l 1
EndSplineSet
Validated: 1
EndChar

StartChar: uni01F8
Encoding: 504 504 154
Width: 600
Flags: MW
HStem: 0 21G<92 92 92 136 459 459 459 508> 0 63<459 470 468 470 468 508> 596 63<130 132 130 130> 709 20G<354 354>
VStem: 92 44<0 409 0 659> 464 44<254 659 0 659>
LayerCount: 2
Fore
SplineSet
92 0 m 1xbc
 92 659 l 1
 141 659 l 1
 398 193 l 1
 468 63 l 1
 470 63 l 1x7c
 469 126 464 190 464 254 c 2
 464 659 l 1
 508 659 l 1
 508 0 l 1
 459 0 l 1
 202 466 l 1
 132 596 l 1
 130 596 l 1
 131 532 136 472 136 409 c 2
 136 0 l 1
 92 0 l 1xbc
334 706 m 1
 201 819 l 1
 230 852 l 1
 354 729 l 1
 334 706 l 1
EndSplineSet
Validated: 1
EndChar

StartChar: Ncaron
Encoding: 327 327 155
Width: 600
Flags: MW
HStem: 0 21G<92 92 92 136 459 459 459 508> 0 63<459 470 468 470 468 508> 596 63<130 132 130 130> 709 34<288 312 308 312 308 332>
VStem: 92 44<0 409 0 659> 464 44<254 659 0 659>
LayerCount: 2
Fore
SplineSet
92 0 m 1xbc
 92 659 l 1
 141 659 l 1
 398 193 l 1
 468 63 l 1
 470 63 l 1x7c
 469 126 464 190 464 254 c 2
 464 659 l 1
 508 659 l 1
 508 0 l 1
 459 0 l 1
 202 466 l 1
 132 596 l 1
 130 596 l 1
 131 532 136 472 136 409 c 2
 136 0 l 1
 92 0 l 1xbc
288 709 m 1
 175 823 l 1
 195 841 l 1
 308 743 l 1
 312 743 l 1
 425 841 l 1
 445 823 l 1
 332 709 l 1
 288 709 l 1
EndSplineSet
Validated: 1
EndChar

StartChar: Ntilde
Encoding: 209 209 156
Width: 600
Flags: MW
HStem: 0 21G<92 92 92 136 459 459 459 508> 0 63<459 470 468 470 468 508> 596 63<130 132 130 130> 704 20G<145 145> 718 37<359.5 401.5 359.5 414> 797 37<218.5 260.5>
VStem: 92 44<0 409 0 659> 145 33<721 724> 442 33<829 832> 464 44<254 659 0 659>
LayerCount: 2
Fore
SplineSet
92 0 m 1xb640
 92 659 l 1
 141 659 l 1
 398 193 l 1
 468 63 l 1
 470 63 l 1x7640
 469 126 464 190 464 254 c 2
 464 659 l 1
 508 659 l 1
 508 0 l 1
 459 0 l 1
 202 466 l 1
 132 596 l 1
 130 596 l 1
 131 532 136 472 136 409 c 2
 136 0 l 1
 92 0 l 1xb640
387 718 m 0xaf80
 310 718 288 797 233 797 c 0
 204 797 182 768 178 721 c 1
 145 724 l 1xb740
 148 786 179 834 233 834 c 0
 310 834 332 755 387 755 c 0
 416 755 436 785 442 832 c 1
 475 829 l 1
 472 767 441 718 387 718 c 0xaf80
EndSplineSet
Validated: 1
EndChar

StartChar: uni0145
Encoding: 325 325 157
Width: 600
Flags: MW
HStem: -219 30<216 223> 0 21G<92 92 92 136 459 459 459 508> 0 63<459 470 468 470 468 508> 596 63<130 132 130 130>
VStem: 92 44<0 409 0 659> 329 39<-151.5 -121.5> 464 44<254 659 0 659>
LayerCount: 2
Fore
SplineSet
92 0 m 1xde
 92 659 l 1
 141 659 l 1
 398 193 l 1
 468 63 l 1
 470 63 l 1xbe
 469 126 464 190 464 254 c 2
 464 659 l 1
 508 659 l 1
 508 0 l 1
 459 0 l 1
 202 466 l 1
 132 596 l 1
 130 596 l 1
 131 532 136 472 136 409 c 2
 136 0 l 1
 92 0 l 1xde
223 -219 m 1
 216 -189 l 1
 303 -183 329 -166 329 -137 c 0
 329 -106 300 -94 252 -90 c 1
 265 -61 l 1
 341 -72 368 -91 368 -134 c 0
 368 -186 317 -213 223 -219 c 1
EndSplineSet
Validated: 1
EndChar

StartChar: uni1E44
Encoding: 7748 7748 158
Width: 600
Flags: MW
HStem: 0 21G<92 92 92 136 459 459 459 508> 0 63<459 470 468 470 468 508> 596 63<130 132 130 130> 721 82<299 321>
VStem: 92 44<0 409 0 659> 269 82<750.5 775> 464 44<254 659 0 659>
LayerCount: 2
Fore
SplineSet
92 0 m 1xba
 92 659 l 1
 141 659 l 1
 398 193 l 1
 468 63 l 1
 470 63 l 1x7e
 469 126 464 190 464 254 c 2
 464 659 l 1
 508 659 l 1
 508 0 l 1
 459 0 l 1
 202 466 l 1
 132 596 l 1
 130 596 l 1
 131 532 136 472 136 409 c 2
 136 0 l 1
 92 0 l 1xba
310 721 m 0
 288 721 269 738 269 763 c 0
 269 787 288 803 310 803 c 0
 332 803 351 787 351 763 c 0
 351 738 332 721 310 721 c 0
EndSplineSet
Validated: 1
EndChar

StartChar: uni1E46
Encoding: 7750 7750 159
Width: 600
Flags: MW
HStem: -197 96<287 313> 0 21G<92 92 92 136 459 459 459 508> 0 63<459 470 468 470 468 508> 596 63<130 132 130 130>
VStem: 92 44<0 409 0 659> 253 94<-164 -134.5> 464 44<254 659 0 659>
LayerCount: 2
Fore
SplineSet
92 0 m 1xda
 92 659 l 1
 141 659 l 1
 398 193 l 1
 468 63 l 1
 470 63 l 1xbe
 469 126 464 190 464 254 c 2
 464 659 l 1
 508 659 l 1
 508 0 l 1
 459 0 l 1
 202 466 l 1
 132 596 l 1
 130 596 l 1
 131 532 136 472 136 409 c 2
 136 0 l 1
 92 0 l 1xda
300 -197 m 0
 274 -197 253 -179 253 -149 c 0
 253 -120 274 -101 300 -101 c 0
 326 -101 347 -120 347 -149 c 0
 347 -179 326 -197 300 -197 c 0
EndSplineSet
Validated: 1
EndChar

StartChar: uni1E48
Encoding: 7752 7752 160
Width: 600
Flags: MW
HStem: -160 36<177 423 177 423> 0 21G<92 92 92 136 459 459 459 508> 0 63<459 470 468 470 468 508> 596 63<130 132 130 130>
VStem: 92 44<0 409 0 659> 464 44<254 659 0 659>
LayerCount: 2
Fore
SplineSet
92 0 m 1xdc
 92 659 l 1
 141 659 l 1
 398 193 l 1
 468 63 l 1
 470 63 l 1xbc
 469 126 464 190 464 254 c 2
 464 659 l 1
 508 659 l 1
 508 0 l 1
 459 0 l 1
 202 466 l 1
 132 596 l 1
 130 596 l 1
 131 532 136 472 136 409 c 2
 136 0 l 1
 92 0 l 1xdc
177 -160 m 1
 177 -124 l 1
 423 -124 l 1
 423 -160 l 1
 177 -160 l 1
EndSplineSet
Validated: 1
EndChar

StartChar: Ograve
Encoding: 210 210 161
Width: 600
Flags: MW
HStem: -12 42<241 359 241 372> 629 42<241 359> 709 20G<344 344>
VStem: 54 48<240 423.5 240 436.5> 498 48<240 423.5>
LayerCount: 2
Fore
SplineSet
300 -12 m 0
 156 -12 54 122 54 332 c 0
 54 541 156 671 300 671 c 0
 444 671 546 541 546 332 c 0
 546 122 444 -12 300 -12 c 0
300 30 m 0
 418 30 498 148 498 332 c 0
 498 515 418 629 300 629 c 0
 182 629 102 515 102 332 c 0
 102 148 182 30 300 30 c 0
324 706 m 1
 191 819 l 1
 220 852 l 1
 344 729 l 1
 324 706 l 1
EndSplineSet
Validated: 1
EndChar

StartChar: Oacute
Encoding: 211 211 162
Width: 600
Flags: MW
HStem: -12 42<241 359 241 372> 629 42<241 359> 709 20G<256 256>
VStem: 54 48<240 423.5 240 436.5> 498 48<240 423.5>
LayerCount: 2
Fore
SplineSet
300 -12 m 0
 156 -12 54 122 54 332 c 0
 54 541 156 671 300 671 c 0
 444 671 546 541 546 332 c 0
 546 122 444 -12 300 -12 c 0
300 30 m 0
 418 30 498 148 498 332 c 0
 498 515 418 629 300 629 c 0
 182 629 102 515 102 332 c 0
 102 148 182 30 300 30 c 0
276 706 m 1
 256 729 l 1
 380 852 l 1
 409 819 l 1
 276 706 l 1
EndSplineSet
Validated: 1
EndChar

StartChar: Ocircumflex
Encoding: 212 212 163
Width: 600
Flags: MW
HStem: -12 42<241 359 241 372> 629 42<241 359> 706 20G<165 165 435 435> 805 34<298 302 298 298>
VStem: 54 48<240 423.5 240 436.5> 498 48<240 423.5>
LayerCount: 2
Fore
SplineSet
300 -12 m 0
 156 -12 54 122 54 332 c 0
 54 541 156 671 300 671 c 0
 444 671 546 541 546 332 c 0
 546 122 444 -12 300 -12 c 0
300 30 m 0
 418 30 498 148 498 332 c 0
 498 515 418 629 300 629 c 0
 182 629 102 515 102 332 c 0
 102 148 182 30 300 30 c 0
185 707 m 1
 165 726 l 1
 278 839 l 1
 322 839 l 1
 435 726 l 1
 415 707 l 1
 302 805 l 1
 298 805 l 1
 185 707 l 1
EndSplineSet
Validated: 1
MultipleSubs2: "Multiple Substitution lookup 14 subtable" O uni0302
EndChar

StartChar: Otilde
Encoding: 213 213 164
Width: 600
Flags: MW
HStem: -12 42<241 359 241 372> 629 42<241 359> 704 20G<135 135> 718 37<349.5 391.5 349.5 404> 797 37<208.5 250.5>
VStem: 54 48<240 423.5 240 436.5> 135 33<721 724> 432 33<829 832> 498 48<240 423.5>
LayerCount: 2
Fore
SplineSet
300 -12 m 0xef80
 156 -12 54 122 54 332 c 0
 54 541 156 671 300 671 c 0
 444 671 546 541 546 332 c 0
 546 122 444 -12 300 -12 c 0xef80
300 30 m 0
 418 30 498 148 498 332 c 0
 498 515 418 629 300 629 c 0
 182 629 102 515 102 332 c 0
 102 148 182 30 300 30 c 0
377 718 m 0xdf80
 300 718 278 797 223 797 c 0
 194 797 172 768 168 721 c 1
 135 724 l 1xef80
 138 786 169 834 223 834 c 0
 300 834 322 755 377 755 c 0
 406 755 426 785 432 832 c 1
 465 829 l 1
 462 767 431 718 377 718 c 0xdf80
EndSplineSet
Validated: 1
EndChar

StartChar: Odieresis
Encoding: 214 214 165
Width: 600
GlyphClass: 2
Flags: MW
HStem: -12 42<241 359 241 372> 629 42<241 359> 725 74<209.5 230.5 369.5 390.5>
VStem: 54 48<240 423.5 240 436.5> 183 74<750.5 773> 343 74<750.5 773> 498 48<240 423.5>
AnchorPoint: "Anchor-6" 300 0 basechar 0
LayerCount: 2
Fore
SplineSet
300 -12 m 0
 156 -12 54 122 54 332 c 0
 54 541 156 671 300 671 c 0
 444 671 546 541 546 332 c 0
 546 122 444 -12 300 -12 c 0
300 30 m 0
 418 30 498 148 498 332 c 0
 498 515 418 629 300 629 c 0
 182 629 102 515 102 332 c 0
 102 148 182 30 300 30 c 0
220 725 m 0
 199 725 183 739 183 762 c 0
 183 784 199 799 220 799 c 0
 241 799 257 784 257 762 c 0
 257 739 241 725 220 725 c 0
380 725 m 0
 359 725 343 739 343 762 c 0
 343 784 359 799 380 799 c 0
 401 799 417 784 417 762 c 0
 417 739 401 725 380 725 c 0
EndSplineSet
Validated: 1
EndChar

StartChar: Omacron
Encoding: 332 332 166
Width: 600
Flags: MW
HStem: -12 42<241 359 241 372> 629 42<241 359> 743 36<176 424 176 424>
VStem: 54 48<240 423.5 240 436.5> 498 48<240 423.5>
LayerCount: 2
Fore
SplineSet
300 -12 m 0
 156 -12 54 122 54 332 c 0
 54 541 156 671 300 671 c 0
 444 671 546 541 546 332 c 0
 546 122 444 -12 300 -12 c 0
300 30 m 0
 418 30 498 148 498 332 c 0
 498 515 418 629 300 629 c 0
 182 629 102 515 102 332 c 0
 102 148 182 30 300 30 c 0
176 743 m 1
 176 779 l 1
 424 779 l 1
 424 743 l 1
 176 743 l 1
EndSplineSet
Validated: 1
MultipleSubs2: "Multiple Substitution lookup 14 subtable" O uni0304
EndChar

StartChar: Ohungarumlaut
Encoding: 336 336 167
Width: 600
Flags: MW
HStem: -12 42<241 359 241 372> 629 42<241 359> 701 20G<199 199 343 343>
VStem: 54 48<240 423.5 240 436.5> 498 48<240 423.5>
LayerCount: 2
Fore
SplineSet
300 -12 m 0
 156 -12 54 122 54 332 c 0
 54 541 156 671 300 671 c 0
 444 671 546 541 546 332 c 0
 546 122 444 -12 300 -12 c 0
300 30 m 0
 418 30 498 148 498 332 c 0
 498 515 418 629 300 629 c 0
 182 629 102 515 102 332 c 0
 102 148 182 30 300 30 c 0
225 708 m 1
 199 721 l 1
 287 869 l 1
 321 848 l 1
 225 708 l 1
369 708 m 1
 343 721 l 1
 431 869 l 1
 465 848 l 1
 369 708 l 1
EndSplineSet
Validated: 1
EndChar

StartChar: Obreve
Encoding: 334 334 168
Width: 600
Flags: MW
HStem: -12 42<241 359 241 372> 629 42<241 359> 710 33<268 332 268 344.5>
VStem: 54 48<240 423.5 240 436.5> 164 33<834 839> 403 33<834 839> 498 48<240 423.5>
LayerCount: 2
Fore
SplineSet
300 -12 m 0
 156 -12 54 122 54 332 c 0
 54 541 156 671 300 671 c 0
 444 671 546 541 546 332 c 0
 546 122 444 -12 300 -12 c 0
300 30 m 0
 418 30 498 148 498 332 c 0
 498 515 418 629 300 629 c 0
 182 629 102 515 102 332 c 0
 102 148 182 30 300 30 c 0
300 710 m 0
 212 710 172 775 164 834 c 1
 197 839 l 1
 204 789 236 743 300 743 c 0
 364 743 396 789 403 839 c 1
 436 834 l 1
 429 775 389 710 300 710 c 0
EndSplineSet
Validated: 1
EndChar

StartChar: uni01D1
Encoding: 465 465 169
Width: 600
Flags: MW
HStem: -12 42<241 359 241 372> 629 42<241 359> 709 34<278 302 298 302 298 322>
VStem: 54 48<240 423.5 240 436.5> 498 48<240 423.5>
LayerCount: 2
Fore
SplineSet
300 -12 m 0
 156 -12 54 122 54 332 c 0
 54 541 156 671 300 671 c 0
 444 671 546 541 546 332 c 0
 546 122 444 -12 300 -12 c 0
300 30 m 0
 418 30 498 148 498 332 c 0
 498 515 418 629 300 629 c 0
 182 629 102 515 102 332 c 0
 102 148 182 30 300 30 c 0
278 709 m 1
 165 823 l 1
 185 841 l 1
 298 743 l 1
 302 743 l 1
 415 841 l 1
 435 823 l 1
 322 709 l 1
 278 709 l 1
EndSplineSet
Validated: 1
EndChar

StartChar: uni01EA
Encoding: 490 490 170
Width: 600
GlyphClass: 2
Flags: MW
HStem: -224 36<305 333.5 305 334> -12 41 629 42<241 359>
VStem: 54 48<239.5 423.5 239.5 436> 220 39<-149 -109> 498 48<245.5 423.5>
AnchorPoint: "Anchor-0" 300 679 basechar 0
LayerCount: 2
Fore
SplineSet
315 -224 m 0
 261 -224 220 -196 220 -135 c 0
 220 -83 254 -45 295 -12 c 1
 140 -4 54 138 54 332 c 0
 54 540 156 671 300 671 c 0
 444 671 546 540 546 332 c 0
 546 159 483 46 361 -5 c 0
 297 -32 259 -83 259 -129 c 0
 259 -169 289 -188 321 -188 c 0
 346 -188 363 -177 377 -163 c 1
 397 -188 l 1
 376 -208 353 -224 315 -224 c 0
300 29 m 0
 418 29 498 147 498 332 c 0
 498 515 418 629 300 629 c 0
 182 629 102 515 102 332 c 0
 102 147 182 29 300 29 c 0
EndSplineSet
Validated: 1
Ligature2: "'ccmp' Glyph Composition/Decomposition lookup 18 subtable" O uni0328
EndChar

StartChar: uni1ECC
Encoding: 7884 7884 171
Width: 600
Flags: MW
HStem: -197 96<287 313> -12 42<241 359 241 372> 629 42<241 359>
VStem: 54 48<240 423.5 240 436.5> 253 94<-164 -134.5> 498 48<240 423.5>
LayerCount: 2
Fore
SplineSet
300 -12 m 0
 156 -12 54 122 54 332 c 0
 54 541 156 671 300 671 c 0
 444 671 546 541 546 332 c 0
 546 122 444 -12 300 -12 c 0
300 30 m 0
 418 30 498 148 498 332 c 0
 498 515 418 629 300 629 c 0
 182 629 102 515 102 332 c 0
 102 148 182 30 300 30 c 0
300 -197 m 0
 274 -197 253 -179 253 -149 c 0
 253 -120 274 -101 300 -101 c 0
 326 -101 347 -120 347 -149 c 0
 347 -179 326 -197 300 -197 c 0
EndSplineSet
Validated: 1
EndChar

StartChar: uni1ECE
Encoding: 7886 7886 172
Width: 600
Flags: MW
HStem: -12 42<241 359 241 372> 629 42<241 359> 831 32<245 249>
VStem: 54 48<240 423.5 240 436.5> 330 40<769 798.5> 498 48<240 423.5>
LayerCount: 2
Fore
SplineSet
300 -12 m 0
 156 -12 54 122 54 332 c 0
 54 541 156 671 300 671 c 0
 444 671 546 541 546 332 c 0
 546 122 444 -12 300 -12 c 0
300 30 m 0
 418 30 498 148 498 332 c 0
 498 515 418 629 300 629 c 0
 182 629 102 515 102 332 c 0
 102 148 182 30 300 30 c 0
275 702 m 1
 267 729 l 1
 303 740 330 755 330 783 c 0
 330 814 300 829 245 831 c 1
 249 863 l 1
 315 861 370 839 370 789 c 0
 370 737 323 715 275 702 c 1
EndSplineSet
Validated: 1
EndChar

StartChar: uni1ED0
Encoding: 7888 7888 173
Width: 600
Flags: MW
HStem: -12 42<241 359 241 372> 629 42<241 359> 706 20G<185 185 415 415> 775 35<298 302 298 298>
VStem: 54 48<240 423.5 240 436.5> 498 48<240 423.5>
LayerCount: 2
Fore
SplineSet
300 -12 m 0
 156 -12 54 122 54 332 c 0
 54 541 156 671 300 671 c 0
 444 671 546 541 546 332 c 0
 546 122 444 -12 300 -12 c 0
300 30 m 0
 418 30 498 148 498 332 c 0
 498 515 418 629 300 629 c 0
 182 629 102 515 102 332 c 0
 102 148 182 30 300 30 c 0
204 707 m 1
 185 726 l 1
 280 810 l 1
 320 810 l 1
 415 726 l 1
 396 707 l 1
 302 775 l 1
 298 775 l 1
 204 707 l 1
403 765 m 1
 382 787 l 1
 476 884 l 1
 503 857 l 1
 403 765 l 1
EndSplineSet
Validated: 1
EndChar

StartChar: uni1ED2
Encoding: 7890 7890 174
Width: 600
Flags: MW
HStem: -12 42<241 359 241 372> 629 42<241 359> 706 20G<185 185 415 415> 775 35<298 302 298 298>
VStem: 54 48<240 423.5 240 436.5> 498 48<240 423.5>
LayerCount: 2
Fore
SplineSet
300 -12 m 0
 156 -12 54 122 54 332 c 0
 54 541 156 671 300 671 c 0
 444 671 546 541 546 332 c 0
 546 122 444 -12 300 -12 c 0
300 30 m 0
 418 30 498 148 498 332 c 0
 498 515 418 629 300 629 c 0
 182 629 102 515 102 332 c 0
 102 148 182 30 300 30 c 0
204 707 m 1
 185 726 l 1
 280 810 l 1
 320 810 l 1
 415 726 l 1
 396 707 l 1
 302 775 l 1
 298 775 l 1
 204 707 l 1
197 765 m 1
 115 861 l 1
 142 884 l 1
 218 783 l 1
 197 765 l 1
EndSplineSet
Validated: 1
EndChar

StartChar: uni1ED4
Encoding: 7892 7892 175
Width: 600
Flags: MW
HStem: -12 42<241 359 241 372> 629 42<241 359> 706 20G<185 185 415 415> 775 35<298 302 298 298> 868 31<370 375>
VStem: 54 48<240 423.5 240 436.5> 443 38<814.5 841> 498 48<240 423.5>
LayerCount: 2
Fore
SplineSet
300 -12 m 0
 156 -12 54 122 54 332 c 0
 54 541 156 671 300 671 c 0
 444 671 546 541 546 332 c 0
 546 122 444 -12 300 -12 c 0
300 30 m 0
 418 30 498 148 498 332 c 0
 498 515 418 629 300 629 c 0
 182 629 102 515 102 332 c 0
 102 148 182 30 300 30 c 0
204 707 m 1
 185 726 l 1
 280 810 l 1
 320 810 l 1
 415 726 l 1
 396 707 l 1
 302 775 l 1
 298 775 l 1
 204 707 l 1
402 757 m 1xff
 392 784 l 1
 420 791 443 803 443 826 c 0
 443 856 418 866 370 868 c 1
 375 899 l 1
 434 896 481 878 481 831 c 0
 481 785 440 766 402 757 c 1xff
EndSplineSet
Validated: 1
EndChar

StartChar: uni1ED6
Encoding: 7894 7894 176
Width: 600
Flags: MW
HStem: -12 42<241 359 241 372> 629 42<241 359> 706 20G<185 185 415 415> 774 35<298 302 298 298> 840 32<344.5 382.5 344.5 396> 893 32<217.5 255.5>
VStem: 54 48<240 423.5 240 436.5> 160 30<842 845> 410 30<920 923> 498 48<240 423.5>
LayerCount: 2
Fore
SplineSet
300 -12 m 0
 156 -12 54 122 54 332 c 0
 54 541 156 671 300 671 c 0
 444 671 546 541 546 332 c 0
 546 122 444 -12 300 -12 c 0
300 30 m 0
 418 30 498 148 498 332 c 0
 498 515 418 629 300 629 c 0
 182 629 102 515 102 332 c 0
 102 148 182 30 300 30 c 0
204 707 m 1
 185 726 l 1
 280 809 l 1
 320 809 l 1
 415 726 l 1
 396 707 l 1
 302 774 l 1
 298 774 l 1
 204 707 l 1
369 840 m 0xfec0
 301 840 280 893 231 893 c 0
 204 893 194 873 190 842 c 1
 160 845 l 1
 162 882 177 925 231 925 c 0xf740
 299 925 320 872 369 872 c 0
 396 872 406 892 410 923 c 1
 440 920 l 1
 438 883 423 840 369 840 c 0xfec0
EndSplineSet
Validated: 1
EndChar

StartChar: uni1ED8
Encoding: 7896 7896 177
Width: 600
Flags: MW
HStem: -197 96<287 313> -12 42<241 359 241 372> 629 42<241 359> 706 20G<165 165 435 435> 805 34<298 302 298 298>
VStem: 54 48<240 423.5 240 436.5> 253 94<-164 -134.5> 498 48<240 423.5>
LayerCount: 2
Fore
SplineSet
300 -12 m 0
 156 -12 54 122 54 332 c 0
 54 541 156 671 300 671 c 0
 444 671 546 541 546 332 c 0
 546 122 444 -12 300 -12 c 0
300 30 m 0
 418 30 498 148 498 332 c 0
 498 515 418 629 300 629 c 0
 182 629 102 515 102 332 c 0
 102 148 182 30 300 30 c 0
185 707 m 1
 165 726 l 1
 278 839 l 1
 322 839 l 1
 435 726 l 1
 415 707 l 1
 302 805 l 1
 298 805 l 1
 185 707 l 1
300 -197 m 0
 274 -197 253 -179 253 -149 c 0
 253 -120 274 -101 300 -101 c 0
 326 -101 347 -120 347 -149 c 0
 347 -179 326 -197 300 -197 c 0
EndSplineSet
Validated: 1
EndChar

StartChar: Ohorn
Encoding: 416 416 178
Width: 600
GlyphClass: 2
Flags: MW
HStem: -12 42<241 359 241 372> 629 42<241 320 228 359>
VStem: 54 48<240 423.5 240 436.5> 498 48<240 396 227 423.5>
AnchorPoint: "Anchor-3" 300 -20 basechar 0
AnchorPoint: "Anchor-0" 300 679 basechar 0
LayerCount: 2
Fore
SplineSet
300 -12 m 0
 156 -12 54 122 54 332 c 0
 54 541 156 671 300 671 c 0
 340 671 377 661 410 641 c 1
 471 653 498 683 498 729 c 0
 498 745 494 766 484 783 c 1
 524 802 l 1
 536 780 543 756 543 732 c 0
 543 670 504 633 444 616 c 1
 507 559 546 460 546 332 c 0
 546 122 444 -12 300 -12 c 0
300 30 m 0
 418 30 498 148 498 332 c 0
 498 515 418 629 300 629 c 0
 182 629 102 515 102 332 c 0
 102 148 182 30 300 30 c 0
EndSplineSet
Validated: 1
EndChar

StartChar: uni1EDA
Encoding: 7898 7898 179
Width: 600
Flags: MW
HStem: -12 42<241 359 241 372> 629 42<241 320 228 359> 709 20G<256 256>
VStem: 54 48<240 423.5 240 436.5> 498 48<240 396 227 423.5>
LayerCount: 2
Fore
SplineSet
300 -12 m 0
 156 -12 54 122 54 332 c 0
 54 541 156 671 300 671 c 0
 340 671 377 661 410 641 c 1
 471 653 498 683 498 729 c 0
 498 745 494 766 484 783 c 1
 524 802 l 1
 536 780 543 756 543 732 c 0
 543 670 504 633 444 616 c 1
 507 559 546 460 546 332 c 0
 546 122 444 -12 300 -12 c 0
300 30 m 0
 418 30 498 148 498 332 c 0
 498 515 418 629 300 629 c 0
 182 629 102 515 102 332 c 0
 102 148 182 30 300 30 c 0
276 706 m 1
 256 729 l 1
 380 852 l 1
 409 819 l 1
 276 706 l 1
EndSplineSet
Validated: 1
EndChar

StartChar: uni1EDC
Encoding: 7900 7900 180
Width: 600
Flags: MW
HStem: -12 42<241 359 241 372> 629 42<241 320 228 359> 709 20G<344 344>
VStem: 54 48<240 423.5 240 436.5> 498 48<240 396 227 423.5>
LayerCount: 2
Fore
SplineSet
300 -12 m 0
 156 -12 54 122 54 332 c 0
 54 541 156 671 300 671 c 0
 340 671 377 661 410 641 c 1
 471 653 498 683 498 729 c 0
 498 745 494 766 484 783 c 1
 524 802 l 1
 536 780 543 756 543 732 c 0
 543 670 504 633 444 616 c 1
 507 559 546 460 546 332 c 0
 546 122 444 -12 300 -12 c 0
300 30 m 0
 418 30 498 148 498 332 c 0
 498 515 418 629 300 629 c 0
 182 629 102 515 102 332 c 0
 102 148 182 30 300 30 c 0
324 706 m 1
 191 819 l 1
 220 852 l 1
 344 729 l 1
 324 706 l 1
EndSplineSet
Validated: 1
EndChar

StartChar: uni1EDE
Encoding: 7902 7902 181
Width: 600
Flags: MW
HStem: -12 42<241 359 241 372> 629 42<241 320 228 359> 831 32<245 249>
VStem: 54 48<240 423.5 240 436.5> 330 40<769 798.5> 498 48<240 396 227 423.5>
LayerCount: 2
Fore
SplineSet
300 -12 m 0
 156 -12 54 122 54 332 c 0
 54 541 156 671 300 671 c 0
 340 671 377 661 410 641 c 1
 471 653 498 683 498 729 c 0
 498 745 494 766 484 783 c 1
 524 802 l 1
 536 780 543 756 543 732 c 0
 543 670 504 633 444 616 c 1
 507 559 546 460 546 332 c 0
 546 122 444 -12 300 -12 c 0
300 30 m 0
 418 30 498 148 498 332 c 0
 498 515 418 629 300 629 c 0
 182 629 102 515 102 332 c 0
 102 148 182 30 300 30 c 0
275 702 m 1
 267 729 l 1
 303 740 330 755 330 783 c 0
 330 814 300 829 245 831 c 1
 249 863 l 1
 315 861 370 839 370 789 c 0
 370 737 323 715 275 702 c 1
EndSplineSet
Validated: 1
EndChar

StartChar: uni1EE0
Encoding: 7904 7904 182
Width: 600
Flags: MW
HStem: -12 42<241 359 241 372> 629 42<241 320 228 359> 704 20G<115 115> 718 37<329.5 371.5 329.5 384> 797 37<188.5 230.5>
VStem: 54 48<240 423.5 240 436.5> 115 33<721 724> 412 33<829 832> 498 48<240 396 227 423.5>
LayerCount: 2
Fore
SplineSet
300 -12 m 0xed80
 156 -12 54 122 54 332 c 0
 54 541 156 671 300 671 c 0
 340 671 377 661 410 641 c 1
 471 653 498 683 498 729 c 0
 498 745 494 766 484 783 c 1
 524 802 l 1
 536 780 543 756 543 732 c 0
 543 670 504 633 444 616 c 1
 507 559 546 460 546 332 c 0
 546 122 444 -12 300 -12 c 0xed80
300 30 m 0
 418 30 498 148 498 332 c 0
 498 515 418 629 300 629 c 0
 182 629 102 515 102 332 c 0
 102 148 182 30 300 30 c 0
357 718 m 0xdf80
 280 718 258 797 203 797 c 0
 174 797 152 768 148 721 c 1
 115 724 l 1xef80
 118 786 149 834 203 834 c 0
 280 834 302 755 357 755 c 0
 386 755 406 785 412 832 c 1
 445 829 l 1
 442 767 411 718 357 718 c 0xdf80
EndSplineSet
Validated: 1
EndChar

StartChar: uni1EE2
Encoding: 7906 7906 183
Width: 600
Flags: MW
HStem: -197 96<287 313> -12 42<241 359 241 372> 629 42<241 320 228 359>
VStem: 54 48<240 423.5 240 436.5> 253 94<-164 -134.5> 498 48<240 396 227 423.5>
LayerCount: 2
Fore
SplineSet
300 -12 m 0
 156 -12 54 122 54 332 c 0
 54 541 156 671 300 671 c 0
 340 671 377 661 410 641 c 1
 471 653 498 683 498 729 c 0
 498 745 494 766 484 783 c 1
 524 802 l 1
 536 780 543 756 543 732 c 0
 543 670 504 633 444 616 c 1
 507 559 546 460 546 332 c 0
 546 122 444 -12 300 -12 c 0
300 30 m 0
 418 30 498 148 498 332 c 0
 498 515 418 629 300 629 c 0
 182 629 102 515 102 332 c 0
 102 148 182 30 300 30 c 0
300 -197 m 0
 274 -197 253 -179 253 -149 c 0
 253 -120 274 -101 300 -101 c 0
 326 -101 347 -120 347 -149 c 0
 347 -179 326 -197 300 -197 c 0
EndSplineSet
Validated: 1
EndChar

StartChar: uni1E52
Encoding: 7762 7762 184
Width: 600
Flags: MW
HStem: -12 42<241 359 241 372> 629 42<241 359> 743 36<176 424 176 424>
VStem: 54 48<240 423.5 240 436.5> 498 48<240 423.5>
LayerCount: 2
Fore
SplineSet
300 -12 m 0
 156 -12 54 122 54 332 c 0
 54 541 156 671 300 671 c 0
 444 671 546 541 546 332 c 0
 546 122 444 -12 300 -12 c 0
300 30 m 0
 418 30 498 148 498 332 c 0
 498 515 418 629 300 629 c 0
 182 629 102 515 102 332 c 0
 102 148 182 30 300 30 c 0
176 743 m 1
 176 779 l 1
 424 779 l 1
 424 743 l 1
 176 743 l 1
289 823 m 1
 269 844 l 1
 371 945 l 1
 397 917 l 1
 289 823 l 1
EndSplineSet
Validated: 1
EndChar

StartChar: Oslash
Encoding: 216 216 185
Width: 600
GlyphClass: 2
Flags: MW
HStem: -12 42<273 359 273 372> -2 21G<52 52> 629 42<241 326.5>
VStem: 54 48<292 423.5 292 436.5> 498 48<240 372>
AnchorPoint: "Anchor-2" 300 0 basechar 0
AnchorPoint: "Anchor-0" 300 679 basechar 0
LayerCount: 2
Fore
SplineSet
300 -12 m 0xb8
 237 -12 181 14 139 61 c 1
 83 -23 l 1xb8
 52 -2 l 1
 115 92 l 1x78
 77 151 54 233 54 332 c 0
 54 541 156 671 300 671 c 0
 363 671 417 647 459 602 c 1
 513 682 l 1
 544 661 l 1
 483 571 l 1
 523 513 546 431 546 332 c 0
 546 122 444 -12 300 -12 c 0xb8
102 332 m 0
 102 252 117 185 144 134 c 1
 433 563 l 1
 399 606 353 629 300 629 c 0
 182 629 102 515 102 332 c 0
300 30 m 0
 418 30 498 148 498 332 c 0
 498 412 483 479 455 529 c 1
 166 100 l 1
 200 55 246 30 300 30 c 0
EndSplineSet
Validated: 1
EndChar

StartChar: Oslashacute
Encoding: 510 510 186
Width: 600
Flags: MW
HStem: -12 42<273 359 273 372> -2 21G<52 52> 629 42<241 326.5> 709 20G<256 256>
VStem: 54 48<292 423.5 292 436.5> 498 48<240 372>
LayerCount: 2
Fore
SplineSet
300 -12 m 0xbc
 237 -12 181 14 139 61 c 1
 83 -23 l 1xbc
 52 -2 l 1
 115 92 l 1x7c
 77 151 54 233 54 332 c 0
 54 541 156 671 300 671 c 0
 363 671 417 647 459 602 c 1
 513 682 l 1
 544 661 l 1
 483 571 l 1
 523 513 546 431 546 332 c 0
 546 122 444 -12 300 -12 c 0xbc
102 332 m 0
 102 252 117 185 144 134 c 1
 433 563 l 1
 399 606 353 629 300 629 c 0
 182 629 102 515 102 332 c 0
300 30 m 0
 418 30 498 148 498 332 c 0
 498 412 483 479 455 529 c 1
 166 100 l 1
 200 55 246 30 300 30 c 0
276 706 m 1
 256 729 l 1
 380 852 l 1
 409 819 l 1
 276 706 l 1
EndSplineSet
Validated: 1
EndChar

StartChar: OE
Encoding: 338 338 187
Width: 600
GlyphClass: 2
Flags: MW
HStem: 0 40<364 589 364 589> 330 40<364 528 364 528> 621 39<224 579 301 320 364 579 364 364>
VStem: 41 48<246 418 246 431.5> 320 44<40 330 370 621>
AnchorPoint: "Anchor-2" 465 0 basechar 0
AnchorPoint: "Anchor-0" 388 679 basechar 0
LayerCount: 2
Fore
SplineSet
301 0 m 2
 130 0 41 132 41 332 c 0
 41 531 131 660 301 660 c 2
 579 660 l 1
 579 621 l 1
 364 621 l 1
 364 370 l 1
 528 370 l 1
 528 330 l 1
 364 330 l 1
 364 40 l 1
 589 40 l 1
 589 0 l 1
 301 0 l 2
296 39 m 2
 320 39 l 1
 320 621 l 1
 296 621 l 2
 152 621 89 504 89 332 c 0
 89 160 152 39 296 39 c 2
EndSplineSet
Validated: 1
EndChar

StartChar: Racute
Encoding: 340 340 188
Width: 600
Flags: MW
HStem: 0 21G<117 117 117 163 481 481 481 535> 303 38<163 293 293 303 163 293> 620 39<163 293 163 163> 709 20G<261 261>
VStem: 117 46<0 303 341 620> 475 47<436.5 534.5>
LayerCount: 2
Fore
SplineSet
117 0 m 1
 117 659 l 1
 305 659 l 2
 436 659 522 611 522 485 c 0
 522 380 456 320 353 306 c 1
 535 0 l 1
 481 0 l 1
 303 303 l 1
 163 303 l 1
 163 0 l 1
 117 0 l 1
163 341 m 1
 293 341 l 2
 410 341 475 388 475 485 c 0
 475 584 410 620 293 620 c 2
 163 620 l 1
 163 341 l 1
281 706 m 1
 261 729 l 1
 385 852 l 1
 414 819 l 1
 281 706 l 1
EndSplineSet
Validated: 1
EndChar

StartChar: Rcaron
Encoding: 344 344 189
Width: 600
Flags: MW
HStem: 0 21G<117 117 117 163 481 481 481 535> 303 38<163 293 293 303 163 293> 620 39<163 293 163 163> 709 34<283 307 303 307 303 327>
VStem: 117 46<0 303 341 620> 475 47<436.5 534.5>
LayerCount: 2
Fore
SplineSet
117 0 m 1
 117 659 l 1
 305 659 l 2
 436 659 522 611 522 485 c 0
 522 380 456 320 353 306 c 1
 535 0 l 1
 481 0 l 1
 303 303 l 1
 163 303 l 1
 163 0 l 1
 117 0 l 1
163 341 m 1
 293 341 l 2
 410 341 475 388 475 485 c 0
 475 584 410 620 293 620 c 2
 163 620 l 1
 163 341 l 1
283 709 m 1
 170 823 l 1
 190 841 l 1
 303 743 l 1
 307 743 l 1
 420 841 l 1
 440 823 l 1
 327 709 l 1
 283 709 l 1
EndSplineSet
Validated: 1
EndChar

StartChar: uni1E58
Encoding: 7768 7768 190
Width: 600
Flags: MW
HStem: 0 21G<117 117 117 163 481 481 481 535> 303 38<163 293 293 303 163 293> 620 39<163 293 163 163> 721 82<294 316>
VStem: 117 46<0 303 341 620> 264 82<750.5 775> 475 47<436.5 534.5>
LayerCount: 2
Fore
SplineSet
117 0 m 1
 117 659 l 1
 305 659 l 2
 436 659 522 611 522 485 c 0
 522 380 456 320 353 306 c 1
 535 0 l 1
 481 0 l 1
 303 303 l 1
 163 303 l 1
 163 0 l 1
 117 0 l 1
163 341 m 1
 293 341 l 2
 410 341 475 388 475 485 c 0
 475 584 410 620 293 620 c 2
 163 620 l 1
 163 341 l 1
305 721 m 0
 283 721 264 738 264 763 c 0
 264 787 283 803 305 803 c 0
 327 803 346 787 346 763 c 0
 346 738 327 721 305 721 c 0
EndSplineSet
Validated: 1
EndChar

StartChar: uni0156
Encoding: 342 342 191
Width: 600
Flags: MW
HStem: -219 30<236 243> 0 21G<117 117 117 163 481 481 481 535> 303 38<163 293 293 303 163 293> 620 39<163 293 163 163>
VStem: 117 46<0 303 341 620> 349 39<-151.5 -121.5> 475 47<436.5 534.5>
LayerCount: 2
Fore
SplineSet
117 0 m 1
 117 659 l 1
 305 659 l 2
 436 659 522 611 522 485 c 0
 522 380 456 320 353 306 c 1
 535 0 l 1
 481 0 l 1
 303 303 l 1
 163 303 l 1
 163 0 l 1
 117 0 l 1
163 341 m 1
 293 341 l 2
 410 341 475 388 475 485 c 0
 475 584 410 620 293 620 c 2
 163 620 l 1
 163 341 l 1
243 -219 m 1
 236 -189 l 1
 323 -183 349 -166 349 -137 c 0
 349 -106 320 -94 272 -90 c 1
 285 -61 l 1
 361 -72 388 -91 388 -134 c 0
 388 -186 337 -213 243 -219 c 1
EndSplineSet
Validated: 1
EndChar

StartChar: uni1E5A
Encoding: 7770 7770 192
Width: 600
Flags: MW
HStem: -197 96<307 333> 0 21G<117 117 117 163 481 481 481 535> 303 38<163 293 293 303 163 293> 620 39<163 293 163 163>
VStem: 117 46<0 303 341 620> 273 94<-164 -134.5> 475 47<436.5 534.5>
LayerCount: 2
Fore
SplineSet
117 0 m 1
 117 659 l 1
 305 659 l 2
 436 659 522 611 522 485 c 0
 522 380 456 320 353 306 c 1
 535 0 l 1
 481 0 l 1
 303 303 l 1
 163 303 l 1
 163 0 l 1
 117 0 l 1
163 341 m 1
 293 341 l 2
 410 341 475 388 475 485 c 0
 475 584 410 620 293 620 c 2
 163 620 l 1
 163 341 l 1
320 -197 m 0
 294 -197 273 -179 273 -149 c 0
 273 -120 294 -101 320 -101 c 0
 346 -101 367 -120 367 -149 c 0
 367 -179 346 -197 320 -197 c 0
EndSplineSet
Validated: 1
EndChar

StartChar: uni1E5C
Encoding: 7772 7772 193
Width: 600
Flags: MW
HStem: -197 96<307 333> 0 21G<117 117 117 163 481 481 481 535> 303 38<163 293 293 303 163 293> 620 39<163 293 163 163> 743 36<181 429 181 429>
VStem: 117 46<0 303 341 620> 273 94<-164 -134.5> 475 47<436.5 534.5>
LayerCount: 2
Fore
SplineSet
117 0 m 1
 117 659 l 1
 305 659 l 2
 436 659 522 611 522 485 c 0
 522 380 456 320 353 306 c 1
 535 0 l 1
 481 0 l 1
 303 303 l 1
 163 303 l 1
 163 0 l 1
 117 0 l 1
163 341 m 1
 293 341 l 2
 410 341 475 388 475 485 c 0
 475 584 410 620 293 620 c 2
 163 620 l 1
 163 341 l 1
181 743 m 1
 181 779 l 1
 429 779 l 1
 429 743 l 1
 181 743 l 1
320 -197 m 0
 294 -197 273 -179 273 -149 c 0
 273 -120 294 -101 320 -101 c 0
 346 -101 367 -120 367 -149 c 0
 367 -179 346 -197 320 -197 c 0
EndSplineSet
Validated: 1
EndChar

StartChar: uni1E5E
Encoding: 7774 7774 194
Width: 600
Flags: MW
HStem: -160 36<197 443 197 443> 0 21G<117 117 117 163 481 481 481 535> 303 38<163 293 293 303 163 293> 620 39<163 293 163 163>
VStem: 117 46<0 303 341 620> 475 47<436.5 534.5>
LayerCount: 2
Fore
SplineSet
117 0 m 1
 117 659 l 1
 305 659 l 2
 436 659 522 611 522 485 c 0
 522 380 456 320 353 306 c 1
 535 0 l 1
 481 0 l 1
 303 303 l 1
 163 303 l 1
 163 0 l 1
 117 0 l 1
163 341 m 1
 293 341 l 2
 410 341 475 388 475 485 c 0
 475 584 410 620 293 620 c 2
 163 620 l 1
 163 341 l 1
197 -160 m 1
 197 -124 l 1
 443 -124 l 1
 443 -160 l 1
 197 -160 l 1
EndSplineSet
Validated: 1
EndChar

StartChar: Sacute
Encoding: 346 346 195
Width: 600
Flags: MW
HStem: -12 42<269 363 269 375.5> 629 42<265 346.5> 709 20G<271 271>
VStem: 111 46<473 547 473 556.5> 483 46<122.5 202.5>
LayerCount: 2
Fore
SplineSet
309 -12 m 0
 208 -12 131 29 76 87 c 1
 106 119 l 1
 156 65 228 30 310 30 c 0
 416 30 483 84 483 161 c 0
 483 244 424 270 354 300 c 2
 255 345 l 2
 193 370 111 411 111 509 c 0
 111 604 197 671 312 671 c 0
 396 671 463 635 506 592 c 1
 479 562 l 1
 438 602 382 629 311 629 c 0
 219 629 157 583 157 511 c 0
 157 435 229 406 281 384 c 2
 380 340 l 2
 459 307 529 266 529 165 c 0
 529 64 442 -12 309 -12 c 0
291 706 m 1
 271 729 l 1
 395 852 l 1
 424 819 l 1
 291 706 l 1
EndSplineSet
Validated: 1
EndChar

StartChar: Scircumflex
Encoding: 348 348 196
Width: 600
Flags: MW
HStem: -12 42<269 363 269 375.5> 629 42<265 346.5> 706 20G<180 180 450 450> 805 34<313 317 313 313>
VStem: 111 46<473 547 473 556.5> 483 46<122.5 202.5>
LayerCount: 2
Fore
SplineSet
309 -12 m 0
 208 -12 131 29 76 87 c 1
 106 119 l 1
 156 65 228 30 310 30 c 0
 416 30 483 84 483 161 c 0
 483 244 424 270 354 300 c 2
 255 345 l 2
 193 370 111 411 111 509 c 0
 111 604 197 671 312 671 c 0
 396 671 463 635 506 592 c 1
 479 562 l 1
 438 602 382 629 311 629 c 0
 219 629 157 583 157 511 c 0
 157 435 229 406 281 384 c 2
 380 340 l 2
 459 307 529 266 529 165 c 0
 529 64 442 -12 309 -12 c 0
200 707 m 1
 180 726 l 1
 293 839 l 1
 337 839 l 1
 450 726 l 1
 430 707 l 1
 317 805 l 1
 313 805 l 1
 200 707 l 1
EndSplineSet
Validated: 1
EndChar

StartChar: Scaron
Encoding: 352 352 197
Width: 600
Flags: MW
HStem: -12 42<269 363 269 375.5> 629 42<265 346.5> 709 34<293 317 313 317 313 337>
VStem: 111 46<473 547 473 556.5> 483 46<122.5 202.5>
LayerCount: 2
Fore
SplineSet
309 -12 m 0
 208 -12 131 29 76 87 c 1
 106 119 l 1
 156 65 228 30 310 30 c 0
 416 30 483 84 483 161 c 0
 483 244 424 270 354 300 c 2
 255 345 l 2
 193 370 111 411 111 509 c 0
 111 604 197 671 312 671 c 0
 396 671 463 635 506 592 c 1
 479 562 l 1
 438 602 382 629 311 629 c 0
 219 629 157 583 157 511 c 0
 157 435 229 406 281 384 c 2
 380 340 l 2
 459 307 529 266 529 165 c 0
 529 64 442 -12 309 -12 c 0
293 709 m 1
 180 823 l 1
 200 841 l 1
 313 743 l 1
 317 743 l 1
 430 841 l 1
 450 823 l 1
 337 709 l 1
 293 709 l 1
EndSplineSet
Validated: 1
EndChar

StartChar: Scarondot
Encoding: 1114114 -1 198
Width: 600
Flags: MW
HStem: -12 42<269 363 269 375.5> 629 42<265 346.5> 709 34<293 317 313 317 313 337> 823 79<304.5 325.5>
VStem: 111 46<473 547 473 556.5> 276 78<851.5 875> 483 46<122.5 202.5>
LayerCount: 2
Fore
SplineSet
309 -12 m 0
 208 -12 131 29 76 87 c 1
 106 119 l 1
 156 65 228 30 310 30 c 0
 416 30 483 84 483 161 c 0
 483 244 424 270 354 300 c 2
 255 345 l 2
 193 370 111 411 111 509 c 0
 111 604 197 671 312 671 c 0
 396 671 463 635 506 592 c 1
 479 562 l 1
 438 602 382 629 311 629 c 0
 219 629 157 583 157 511 c 0
 157 435 229 406 281 384 c 2
 380 340 l 2
 459 307 529 266 529 165 c 0
 529 64 442 -12 309 -12 c 0
315 823 m 0
 294 823 276 839 276 864 c 0
 276 886 294 902 315 902 c 0
 336 902 354 886 354 864 c 0
 354 839 336 823 315 823 c 0
293 709 m 1
 179 822 l 1
 197 841 l 1
 313 743 l 1
 317 743 l 1
 433 841 l 1
 451 822 l 1
 337 709 l 1
 293 709 l 1
EndSplineSet
Validated: 1
EndChar

StartChar: uni015E
Encoding: 350 350 199
Width: 600
Flags: MW
HStem: -219 30<243 250> -12 42<305 305> 629 42<265 346.5>
VStem: 111 46<473 547 473 556.5> 356 39<-151 -121.5> 483 46<122.5 202.5>
LayerCount: 2
Fore
SplineSet
250 -219 m 1
 243 -189 l 1
 330 -183 356 -166 356 -136 c 0
 356 -107 333 -93 278 -85 c 1
 305 -12 l 1
 206 -11 130 30 76 87 c 1
 106 119 l 1
 156 65 228 30 310 30 c 0
 416 30 483 84 483 161 c 0
 483 244 424 270 354 300 c 2
 255 345 l 2
 193 370 111 411 111 509 c 0
 111 604 197 671 312 671 c 0
 396 671 463 635 506 592 c 1
 479 562 l 1
 438 602 382 629 311 629 c 0
 219 629 157 583 157 511 c 0
 157 435 229 406 281 384 c 2
 380 340 l 2
 459 307 529 266 529 165 c 0
 529 72 456 1 341 -10 c 1
 324 -65 l 1
 367 -76 395 -94 395 -134 c 0
 395 -186 344 -213 250 -219 c 1
EndSplineSet
Validated: 1
EndChar

StartChar: uni0218
Encoding: 536 536 200
Width: 600
Flags: MW
HStem: -219 30<234 241> -12 42<269 363 269 375.5> 629 42<265 346.5>
VStem: 111 46<473 547 473 556.5> 347 39<-151.5 -121.5> 483 46<122.5 202.5>
LayerCount: 2
Fore
SplineSet
309 -12 m 0
 208 -12 131 29 76 87 c 1
 106 119 l 1
 156 65 228 30 310 30 c 0
 416 30 483 84 483 161 c 0
 483 244 424 270 354 300 c 2
 255 345 l 2
 193 370 111 411 111 509 c 0
 111 604 197 671 312 671 c 0
 396 671 463 635 506 592 c 1
 479 562 l 1
 438 602 382 629 311 629 c 0
 219 629 157 583 157 511 c 0
 157 435 229 406 281 384 c 2
 380 340 l 2
 459 307 529 266 529 165 c 0
 529 64 442 -12 309 -12 c 0
241 -219 m 1
 234 -189 l 1
 321 -183 347 -166 347 -137 c 0
 347 -106 318 -94 270 -90 c 1
 283 -61 l 1
 359 -72 386 -91 386 -134 c 0
 386 -186 335 -213 241 -219 c 1
EndSplineSet
Validated: 1
EndChar

StartChar: uni1E60
Encoding: 7776 7776 201
Width: 600
Flags: MW
HStem: -12 42<269 363 269 375.5> 629 42<265 346.5> 721 82<304 326>
VStem: 111 46<473 547 473 556.5> 274 82<750.5 775> 483 46<122.5 202.5>
LayerCount: 2
Fore
SplineSet
309 -12 m 0
 208 -12 131 29 76 87 c 1
 106 119 l 1
 156 65 228 30 310 30 c 0
 416 30 483 84 483 161 c 0
 483 244 424 270 354 300 c 2
 255 345 l 2
 193 370 111 411 111 509 c 0
 111 604 197 671 312 671 c 0
 396 671 463 635 506 592 c 1
 479 562 l 1
 438 602 382 629 311 629 c 0
 219 629 157 583 157 511 c 0
 157 435 229 406 281 384 c 2
 380 340 l 2
 459 307 529 266 529 165 c 0
 529 64 442 -12 309 -12 c 0
315 721 m 0
 293 721 274 738 274 763 c 0
 274 787 293 803 315 803 c 0
 337 803 356 787 356 763 c 0
 356 738 337 721 315 721 c 0
EndSplineSet
Validated: 1
EndChar

StartChar: uni1E62
Encoding: 7778 7778 202
Width: 600
Flags: MW
HStem: -197 96<305 331> -12 42<269 363 269 375.5> 629 42<265 346.5>
VStem: 111 46<473 547 473 556.5> 271 94<-164 -134.5> 483 46<122.5 202.5>
LayerCount: 2
Fore
SplineSet
309 -12 m 0
 208 -12 131 29 76 87 c 1
 106 119 l 1
 156 65 228 30 310 30 c 0
 416 30 483 84 483 161 c 0
 483 244 424 270 354 300 c 2
 255 345 l 2
 193 370 111 411 111 509 c 0
 111 604 197 671 312 671 c 0
 396 671 463 635 506 592 c 1
 479 562 l 1
 438 602 382 629 311 629 c 0
 219 629 157 583 157 511 c 0
 157 435 229 406 281 384 c 2
 380 340 l 2
 459 307 529 266 529 165 c 0
 529 64 442 -12 309 -12 c 0
318 -197 m 0
 292 -197 271 -179 271 -149 c 0
 271 -120 292 -101 318 -101 c 0
 344 -101 365 -120 365 -149 c 0
 365 -179 344 -197 318 -197 c 0
EndSplineSet
Validated: 1
EndChar

StartChar: uni1E9E
Encoding: 7838 7838 203
Width: 600
Flags: MW
HStem: -12 41<359.5 428 359.5 440> 0 21G<87 134 87 87> 630 41<255.5 341>
VStem: 87 47<0 412 0 425 0 502.5> 514 49<125.5 202.5>
LayerCount: 2
Fore
SplineSet
389 -12 m 0xb8
 324 -12 262 16 222 66 c 1
 251 98 l 1
 290 51 331 29 388 29 c 0xb8
 468 29 514 86 514 165 c 0
 514 240 478 301 311 330 c 1
 308 365 l 1
 453 537 l 1
 424 599 376 630 306 630 c 0
 205 630 134 562 134 412 c 2
 134 0 l 1
 87 0 l 1x78
 87 425 l 2
 87 580 180 671 307 671 c 0
 412 671 471 616 505 533 c 1
 361 365 l 1
 515 330 563 260 563 166 c 0
 563 64 491 -12 389 -12 c 0xb8
EndSplineSet
Validated: 1
EndChar

StartChar: Tcaron
Encoding: 356 356 204
Width: 600
Flags: MW
HStem: 0 21G<277 277 277 323> 619 40<48 277 48 552 323 323 323 552> 709 34<278 302 298 302 298 322>
VStem: 277 46<0 619 0 619>
LayerCount: 2
Fore
SplineSet
277 0 m 1
 277 619 l 1
 48 619 l 1
 48 659 l 1
 552 659 l 1
 552 619 l 1
 323 619 l 1
 323 0 l 1
 277 0 l 1
278 709 m 1
 165 823 l 1
 185 841 l 1
 298 743 l 1
 302 743 l 1
 415 841 l 1
 435 823 l 1
 322 709 l 1
 278 709 l 1
EndSplineSet
Validated: 1
EndChar

StartChar: uni0162
Encoding: 354 354 205
Width: 600
Flags: MW
HStem: -219 30<216 223> 0 21G<277 277 277 282 318 318 318 323> 619 40<48 277 48 552 323 323 323 552>
VStem: 277 46<0 619 0 619> 329 39<-151 -121.5>
LayerCount: 2
Fore
SplineSet
277 0 m 1
 277 619 l 1
 48 619 l 1
 48 659 l 1
 552 659 l 1
 552 619 l 1
 323 619 l 1
 323 0 l 1
 318 0 l 1xf0
 297 -65 l 1
 340 -76 368 -94 368 -134 c 0
 368 -186 317 -213 223 -219 c 1
 216 -189 l 1
 303 -183 329 -166 329 -136 c 0
 329 -107 306 -93 251 -85 c 1xe8
 282 0 l 1
 277 0 l 1
EndSplineSet
Validated: 1
EndChar

StartChar: uni021A
Encoding: 538 538 206
Width: 600
Flags: MW
HStem: -219 30<216 223> 0 21G<277 277 277 323> 619 40<48 277 48 552 323 323 323 552>
VStem: 277 46<0 619 0 619> 329 39<-151.5 -121.5>
LayerCount: 2
Fore
SplineSet
277 0 m 1
 277 619 l 1
 48 619 l 1
 48 659 l 1
 552 659 l 1
 552 619 l 1
 323 619 l 1
 323 0 l 1
 277 0 l 1
223 -219 m 1
 216 -189 l 1
 303 -183 329 -166 329 -137 c 0
 329 -106 300 -94 252 -90 c 1
 265 -61 l 1
 341 -72 368 -91 368 -134 c 0xe8
 368 -186 317 -213 223 -219 c 1
EndSplineSet
Validated: 1
EndChar

StartChar: uni1E6C
Encoding: 7788 7788 207
Width: 600
Flags: MW
HStem: -197 96<287 313> 0 21G<277 277 277 323> 619 40<48 277 48 552 323 323 323 552>
VStem: 253 94<-164 -134.5> 277 46<0 619 0 619>
LayerCount: 2
Fore
SplineSet
277 0 m 1xe8
 277 619 l 1
 48 619 l 1
 48 659 l 1
 552 659 l 1
 552 619 l 1
 323 619 l 1
 323 0 l 1
 277 0 l 1xe8
300 -197 m 0xf0
 274 -197 253 -179 253 -149 c 0
 253 -120 274 -101 300 -101 c 0
 326 -101 347 -120 347 -149 c 0
 347 -179 326 -197 300 -197 c 0xf0
EndSplineSet
Validated: 1
EndChar

StartChar: uni1E6E
Encoding: 7790 7790 208
Width: 600
Flags: MW
HStem: -160 36<177 423 177 423> 0 21G<277 277 277 323> 619 40<48 277 48 552 323 323 323 552>
VStem: 277 46<0 619 0 619>
LayerCount: 2
Fore
SplineSet
277 0 m 1
 277 619 l 1
 48 619 l 1
 48 659 l 1
 552 659 l 1
 552 619 l 1
 323 619 l 1
 323 0 l 1
 277 0 l 1
177 -160 m 1
 177 -124 l 1
 423 -124 l 1
 423 -160 l 1
 177 -160 l 1
EndSplineSet
Validated: 1
EndChar

StartChar: Tbar
Encoding: 358 358 209
Width: 600
GlyphClass: 2
Flags: MW
HStem: 0 21G<277 323 277 277> 328 37<216 277 216 277 323 469> 619 40<48 277 48 552 323 323 323 552>
VStem: 277 46<0 328 0 328 365 619>
AnchorPoint: "Anchor-3" 300 -20 basechar 0
AnchorPoint: "Anchor-0" 300 679 basechar 0
LayerCount: 2
Fore
SplineSet
131 328 m 1
 131 363 l 1
 216 365 l 1
 277 365 l 1
 277 619 l 1
 48 619 l 1
 48 659 l 1
 552 659 l 1
 552 619 l 1
 323 619 l 1
 323 365 l 1
 469 365 l 1
 469 328 l 1
 323 328 l 1
 323 0 l 1
 277 0 l 1
 277 328 l 1
 131 328 l 1
EndSplineSet
Validated: 1
EndChar

StartChar: Ugrave
Encoding: 217 217 210
Width: 600
Flags: MW
HStem: -12 42<256 345 256 355.5> 709 20G<344 344>
VStem: 89 46<247 252 252 659> 468 43<252 659>
LayerCount: 2
Fore
SplineSet
300 -12 m 0
 190 -12 89 47 89 247 c 2
 89 659 l 1
 135 659 l 1
 135 252 l 2
 135 82 212 30 300 30 c 0
 390 30 468 82 468 252 c 2
 468 659 l 1
 511 659 l 1
 511 247 l 2
 511 47 411 -12 300 -12 c 0
324 706 m 1
 191 819 l 1
 220 852 l 1
 344 729 l 1
 324 706 l 1
EndSplineSet
Validated: 1
EndChar

StartChar: Uacute
Encoding: 218 218 211
Width: 600
Flags: MW
HStem: -12 42<256 345 256 355.5> 709 20G<256 256>
VStem: 89 46<247 252 252 659> 468 43<252 659>
LayerCount: 2
Fore
SplineSet
300 -12 m 0
 190 -12 89 47 89 247 c 2
 89 659 l 1
 135 659 l 1
 135 252 l 2
 135 82 212 30 300 30 c 0
 390 30 468 82 468 252 c 2
 468 659 l 1
 511 659 l 1
 511 247 l 2
 511 47 411 -12 300 -12 c 0
276 706 m 1
 256 729 l 1
 380 852 l 1
 409 819 l 1
 276 706 l 1
EndSplineSet
Validated: 1
EndChar

StartChar: Ucircumflex
Encoding: 219 219 212
Width: 600
Flags: MW
HStem: -12 42<256 345 256 355.5> 706 20G<165 165 435 435> 805 34<298 302 298 298>
VStem: 89 46<247 252 252 659> 468 43<252 659>
LayerCount: 2
Fore
SplineSet
300 -12 m 0
 190 -12 89 47 89 247 c 2
 89 659 l 1
 135 659 l 1
 135 252 l 2
 135 82 212 30 300 30 c 0
 390 30 468 82 468 252 c 2
 468 659 l 1
 511 659 l 1
 511 247 l 2
 511 47 411 -12 300 -12 c 0
185 707 m 1
 165 726 l 1
 278 839 l 1
 322 839 l 1
 435 726 l 1
 415 707 l 1
 302 805 l 1
 298 805 l 1
 185 707 l 1
EndSplineSet
Validated: 1
EndChar

StartChar: Utilde
Encoding: 360 360 213
Width: 600
Flags: MW
HStem: -12 42<256 345 256 355.5> 704 20G<135 135> 718 37<349.5 391.5 349.5 404> 797 37<208.5 250.5>
VStem: 89 46<247 252 252 659> 135 33<721 724> 432 33<829 832> 468 43<252 659>
LayerCount: 2
Fore
SplineSet
300 -12 m 0xd9
 190 -12 89 47 89 247 c 2
 89 659 l 1
 135 659 l 1
 135 252 l 2
 135 82 212 30 300 30 c 0
 390 30 468 82 468 252 c 2
 468 659 l 1
 511 659 l 1
 511 247 l 2
 511 47 411 -12 300 -12 c 0xd9
377 718 m 0xb6
 300 718 278 797 223 797 c 0
 194 797 172 768 168 721 c 1
 135 724 l 1xd5
 138 786 169 834 223 834 c 0
 300 834 322 755 377 755 c 0
 406 755 426 785 432 832 c 1
 465 829 l 1
 462 767 431 718 377 718 c 0xb6
EndSplineSet
Validated: 1
EndChar

StartChar: Udieresis
Encoding: 220 220 214
Width: 600
Flags: MW
HStem: -12 42<256 345 256 355.5> 725 74<209.5 230.5 369.5 390.5>
VStem: 89 46<247 252 252 659> 183 74<750.5 773> 343 74<750.5 773> 468 43<252 659>
LayerCount: 2
Fore
SplineSet
300 -12 m 0
 190 -12 89 47 89 247 c 2
 89 659 l 1
 135 659 l 1
 135 252 l 2
 135 82 212 30 300 30 c 0
 390 30 468 82 468 252 c 2
 468 659 l 1
 511 659 l 1
 511 247 l 2
 511 47 411 -12 300 -12 c 0
220 725 m 0
 199 725 183 739 183 762 c 0
 183 784 199 799 220 799 c 0
 241 799 257 784 257 762 c 0
 257 739 241 725 220 725 c 0
380 725 m 0
 359 725 343 739 343 762 c 0
 343 784 359 799 380 799 c 0
 401 799 417 784 417 762 c 0
 417 739 401 725 380 725 c 0
EndSplineSet
Validated: 1
EndChar

StartChar: Umacron
Encoding: 362 362 215
Width: 600
Flags: MW
HStem: -12 42<256 345 256 355.5> 743 36<176 424 176 424>
VStem: 89 46<247 252 252 659> 468 43<252 659>
LayerCount: 2
Fore
SplineSet
300 -12 m 0
 190 -12 89 47 89 247 c 2
 89 659 l 1
 135 659 l 1
 135 252 l 2
 135 82 212 30 300 30 c 0
 390 30 468 82 468 252 c 2
 468 659 l 1
 511 659 l 1
 511 247 l 2
 511 47 411 -12 300 -12 c 0
176 743 m 1
 176 779 l 1
 424 779 l 1
 424 743 l 1
 176 743 l 1
EndSplineSet
Validated: 1
EndChar

StartChar: Ubreve
Encoding: 364 364 216
Width: 600
Flags: MW
HStem: -12 42<256 345 256 355.5> 710 33<268 332 268 344.5>
VStem: 89 46<247 252 252 659> 164 33<834 839> 403 33<834 839> 468 43<252 659>
LayerCount: 2
Fore
SplineSet
300 -12 m 0
 190 -12 89 47 89 247 c 2
 89 659 l 1
 135 659 l 1
 135 252 l 2
 135 82 212 30 300 30 c 0
 390 30 468 82 468 252 c 2
 468 659 l 1
 511 659 l 1
 511 247 l 2
 511 47 411 -12 300 -12 c 0
300 710 m 0xfc
 212 710 172 775 164 834 c 1
 197 839 l 1
 204 789 236 743 300 743 c 0
 364 743 396 789 403 839 c 1
 436 834 l 1
 429 775 389 710 300 710 c 0xfc
EndSplineSet
Validated: 1
EndChar

StartChar: Uring
Encoding: 366 366 217
Width: 600
Flags: MW
HStem: -12 42<256 345 256 355.5> 700 26<284 315 284 324> 845 26<284 315>
VStem: 89 46<247 252 252 659> 212 30<765.5 804 765.5 811.5> 356 32<765.5 804> 468 43<252 659>
LayerCount: 2
Fore
SplineSet
300 -12 m 0
 190 -12 89 47 89 247 c 2
 89 659 l 1
 135 659 l 1
 135 252 l 2
 135 82 212 30 300 30 c 0
 390 30 468 82 468 252 c 2
 468 659 l 1
 511 659 l 1
 511 247 l 2
 511 47 411 -12 300 -12 c 0
300 700 m 0
 251 700 212 734 212 785 c 0
 212 838 251 871 300 871 c 0
 348 871 388 838 388 785 c 0
 388 734 348 700 300 700 c 0
300 726 m 0
 330 726 356 746 356 785 c 0
 356 823 330 845 300 845 c 0
 268 845 242 823 242 785 c 0
 242 746 268 726 300 726 c 0
EndSplineSet
Validated: 1
EndChar

StartChar: Uhungarumlaut
Encoding: 368 368 218
Width: 600
Flags: MW
HStem: -12 42<256 345 256 355.5> 701 20G<199 199 343 343>
VStem: 89 46<247 252 252 659> 468 43<252 659>
LayerCount: 2
Fore
SplineSet
300 -12 m 0
 190 -12 89 47 89 247 c 2
 89 659 l 1
 135 659 l 1
 135 252 l 2
 135 82 212 30 300 30 c 0
 390 30 468 82 468 252 c 2
 468 659 l 1
 511 659 l 1
 511 247 l 2
 511 47 411 -12 300 -12 c 0
225 708 m 1
 199 721 l 1
 287 869 l 1
 321 848 l 1
 225 708 l 1
369 708 m 1
 343 721 l 1
 431 869 l 1
 465 848 l 1
 369 708 l 1
EndSplineSet
Validated: 1
EndChar

StartChar: uni01D3
Encoding: 467 467 219
Width: 600
Flags: MW
HStem: -12 42<256 345 256 355.5> 709 34<278 302 298 302 298 322>
VStem: 89 46<247 252 252 659> 468 43<252 659>
LayerCount: 2
Fore
SplineSet
300 -12 m 0
 190 -12 89 47 89 247 c 2
 89 659 l 1
 135 659 l 1
 135 252 l 2
 135 82 212 30 300 30 c 0
 390 30 468 82 468 252 c 2
 468 659 l 1
 511 659 l 1
 511 247 l 2
 511 47 411 -12 300 -12 c 0
278 709 m 1
 165 823 l 1
 185 841 l 1
 298 743 l 1
 302 743 l 1
 415 841 l 1
 435 823 l 1
 322 709 l 1
 278 709 l 1
EndSplineSet
Validated: 1
EndChar

StartChar: Uogonek
Encoding: 370 370 220
Width: 600
GlyphClass: 2
Flags: MW
HStem: -224 36<305 333.5 305 334> -12 42
VStem: 89 46<247 252 252 659> 220 39<-149 -108> 468 43<252 659>
AnchorPoint: "Anchor-0" 300 679 basechar 0
LayerCount: 2
Fore
SplineSet
315 -224 m 0
 261 -224 220 -196 220 -135 c 0
 220 -81 256 -40 289 -12 c 1
 171 -7 89 67 89 247 c 2
 89 659 l 1
 135 659 l 1
 135 252 l 2
 135 82 210 30 299 30 c 0
 389 30 468 82 468 252 c 2
 468 659 l 1
 511 659 l 1
 511 247 l 2
 511 96 461 30 368 -4 c 0
 289 -34 259 -83 259 -129 c 0
 259 -169 289 -188 321 -188 c 0
 346 -188 363 -177 377 -163 c 1
 397 -188 l 1
 376 -208 353 -224 315 -224 c 0
EndSplineSet
Validated: 1
Ligature2: "'ccmp' Glyph Composition/Decomposition lookup 18 subtable" U uni0328
EndChar

StartChar: uni01D5
Encoding: 469 469 221
Width: 600
Flags: MW
HStem: -12 42<256 345 256 355.5> 725 71<192 212 388 408> 854 33<176 424 176 424>
VStem: 89 46<247 252 252 659> 167 71<749 771> 362 71<749 771> 468 43<252 659>
LayerCount: 2
Fore
SplineSet
300 -12 m 0
 190 -12 89 47 89 247 c 2
 89 659 l 1
 135 659 l 1
 135 252 l 2
 135 82 212 30 300 30 c 0
 390 30 468 82 468 252 c 2
 468 659 l 1
 511 659 l 1
 511 247 l 2
 511 47 411 -12 300 -12 c 0
202 725 m 0
 182 725 167 738 167 760 c 0
 167 782 182 796 202 796 c 0
 222 796 238 782 238 760 c 0
 238 738 222 725 202 725 c 0
398 725 m 0
 378 725 362 738 362 760 c 0
 362 782 378 796 398 796 c 0
 418 796 433 782 433 760 c 0
 433 738 418 725 398 725 c 0
176 854 m 1
 176 887 l 1
 424 887 l 1
 424 854 l 1
 176 854 l 1
EndSplineSet
Validated: 1
EndChar

StartChar: uni01D7
Encoding: 471 471 222
Width: 600
Flags: MW
HStem: -12 42<256 345 256 355.5> 725 71<192 212 388 408>
VStem: 89 46<247 252 252 659> 167 71<749 771> 362 71<749 771> 468 43<252 659>
LayerCount: 2
Fore
SplineSet
300 -12 m 0
 190 -12 89 47 89 247 c 2
 89 659 l 1
 135 659 l 1
 135 252 l 2
 135 82 212 30 300 30 c 0
 390 30 468 82 468 252 c 2
 468 659 l 1
 511 659 l 1
 511 247 l 2
 511 47 411 -12 300 -12 c 0
202 725 m 0
 182 725 167 738 167 760 c 0
 167 782 182 796 202 796 c 0
 222 796 238 782 238 760 c 0
 238 738 222 725 202 725 c 0
398 725 m 0
 378 725 362 738 362 760 c 0
 362 782 378 796 398 796 c 0
 418 796 433 782 433 760 c 0
 433 738 418 725 398 725 c 0
294 822 m 1
 272 839 l 1
 366 945 l 1
 397 920 l 1
 294 822 l 1
EndSplineSet
Validated: 1
EndChar

StartChar: uni01D9
Encoding: 473 473 223
Width: 600
Flags: MW
HStem: -12 42<256 345 256 355.5> 725 71<192 212 388 408> 829 37<280 302 298 302 298 320>
VStem: 89 46<247 252 252 659> 167 71<749 771> 362 71<749 771> 468 43<252 659>
LayerCount: 2
Fore
SplineSet
300 -12 m 0
 190 -12 89 47 89 247 c 2
 89 659 l 1
 135 659 l 1
 135 252 l 2
 135 82 212 30 300 30 c 0
 390 30 468 82 468 252 c 2
 468 659 l 1
 511 659 l 1
 511 247 l 2
 511 47 411 -12 300 -12 c 0
202 725 m 0
 182 725 167 738 167 760 c 0
 167 782 182 796 202 796 c 0
 222 796 238 782 238 760 c 0
 238 738 222 725 202 725 c 0
398 725 m 0
 378 725 362 738 362 760 c 0
 362 782 378 796 398 796 c 0
 418 796 433 782 433 760 c 0
 433 738 418 725 398 725 c 0
280 829 m 1
 176 923 l 1
 195 943 l 1
 298 866 l 1
 302 866 l 1
 405 943 l 1
 424 923 l 1
 320 829 l 1
 280 829 l 1
EndSplineSet
Validated: 1
EndChar

StartChar: uni01DB
Encoding: 475 475 224
Width: 600
Flags: MW
HStem: -12 42<256 345 256 355.5> 725 71<192 212 388 408>
VStem: 89 46<247 252 252 659> 167 71<749 771> 362 71<749 771> 468 43<252 659>
LayerCount: 2
Fore
SplineSet
300 -12 m 0
 190 -12 89 47 89 247 c 2
 89 659 l 1
 135 659 l 1
 135 252 l 2
 135 82 212 30 300 30 c 0
 390 30 468 82 468 252 c 2
 468 659 l 1
 511 659 l 1
 511 247 l 2
 511 47 411 -12 300 -12 c 0
202 725 m 0
 182 725 167 738 167 760 c 0
 167 782 182 796 202 796 c 0
 222 796 238 782 238 760 c 0
 238 738 222 725 202 725 c 0
398 725 m 0
 378 725 362 738 362 760 c 0
 362 782 378 796 398 796 c 0
 418 796 433 782 433 760 c 0
 433 738 418 725 398 725 c 0
306 822 m 1
 203 920 l 1
 234 945 l 1
 328 839 l 1
 306 822 l 1
EndSplineSet
Validated: 1
EndChar

StartChar: uni1EE4
Encoding: 7908 7908 225
Width: 600
Flags: MW
HStem: -197 96<287 313> -12 42<256 345 256 355.5>
VStem: 89 46<247 252 252 659> 253 94<-164 -134.5> 468 43<252 659>
LayerCount: 2
Fore
SplineSet
300 -12 m 0
 190 -12 89 47 89 247 c 2
 89 659 l 1
 135 659 l 1
 135 252 l 2
 135 82 212 30 300 30 c 0
 390 30 468 82 468 252 c 2
 468 659 l 1
 511 659 l 1
 511 247 l 2
 511 47 411 -12 300 -12 c 0
300 -197 m 0
 274 -197 253 -179 253 -149 c 0
 253 -120 274 -101 300 -101 c 0
 326 -101 347 -120 347 -149 c 0
 347 -179 326 -197 300 -197 c 0
EndSplineSet
Validated: 1
EndChar

StartChar: uni1EE6
Encoding: 7910 7910 226
Width: 600
Flags: MW
HStem: -12 42<256 345 256 355.5> 831 32<245 249>
VStem: 89 46<247 252 252 659> 330 40<769 798.5> 468 43<252 659>
LayerCount: 2
Fore
SplineSet
300 -12 m 0
 190 -12 89 47 89 247 c 2
 89 659 l 1
 135 659 l 1
 135 252 l 2
 135 82 212 30 300 30 c 0
 390 30 468 82 468 252 c 2
 468 659 l 1
 511 659 l 1
 511 247 l 2
 511 47 411 -12 300 -12 c 0
275 702 m 1
 267 729 l 1
 303 740 330 755 330 783 c 0
 330 814 300 829 245 831 c 1
 249 863 l 1
 315 861 370 839 370 789 c 0
 370 737 323 715 275 702 c 1
EndSplineSet
Validated: 1
EndChar

StartChar: Uhorn
Encoding: 431 431 227
Width: 600
GlyphClass: 2
Flags: MW
HStem: -12 42<256 345 256 355.5>
VStem: 89 46<247 252 252 659> 468 43<252 633> 568 45<720.5 755>
AnchorPoint: "Anchor-3" 300 -20 basechar 0
AnchorPoint: "Anchor-0" 300 679 basechar 0
LayerCount: 2
Fore
SplineSet
300 -12 m 0
 190 -12 89 47 89 247 c 2
 89 659 l 1
 135 659 l 1
 135 252 l 2
 135 82 212 30 300 30 c 0
 390 30 468 82 468 252 c 2
 468 659 l 1
 478 659 l 1
 542 668 568 694 568 747 c 0
 568 763 563 784 554 801 c 1
 593 820 l 1
 606 798 613 774 613 750 c 0
 613 677 563 647 511 633 c 1
 511 247 l 2
 511 47 411 -12 300 -12 c 0
EndSplineSet
Validated: 1
EndChar

StartChar: uni1EE8
Encoding: 7912 7912 228
Width: 600
Flags: MW
HStem: -12 42<256 345 256 355.5> 709 20G<256 256>
VStem: 89 46<247 252 252 659> 468 43<252 633> 568 45<720.5 755>
LayerCount: 2
Fore
SplineSet
300 -12 m 0
 190 -12 89 47 89 247 c 2
 89 659 l 1
 135 659 l 1
 135 252 l 2
 135 82 212 30 300 30 c 0
 390 30 468 82 468 252 c 2
 468 659 l 1
 478 659 l 1
 542 668 568 694 568 747 c 0
 568 763 563 784 554 801 c 1
 593 820 l 1
 606 798 613 774 613 750 c 0
 613 677 563 647 511 633 c 1
 511 247 l 2
 511 47 411 -12 300 -12 c 0
276 706 m 1
 256 729 l 1
 380 852 l 1
 409 819 l 1
 276 706 l 1
EndSplineSet
Validated: 1
EndChar

StartChar: uni1EEA
Encoding: 7914 7914 229
Width: 600
Flags: MW
HStem: -12 42<256 345 256 355.5> 709 20G<344 344>
VStem: 89 46<247 252 252 659> 468 43<252 633> 568 45<720.5 755>
LayerCount: 2
Fore
SplineSet
300 -12 m 0
 190 -12 89 47 89 247 c 2
 89 659 l 1
 135 659 l 1
 135 252 l 2
 135 82 212 30 300 30 c 0
 390 30 468 82 468 252 c 2
 468 659 l 1
 478 659 l 1
 542 668 568 694 568 747 c 0
 568 763 563 784 554 801 c 1
 593 820 l 1
 606 798 613 774 613 750 c 0
 613 677 563 647 511 633 c 1
 511 247 l 2
 511 47 411 -12 300 -12 c 0
324 706 m 1
 191 819 l 1
 220 852 l 1
 344 729 l 1
 324 706 l 1
EndSplineSet
Validated: 1
EndChar

StartChar: uni1EEC
Encoding: 7916 7916 230
Width: 600
Flags: MW
HStem: -12 42<256 345 256 355.5> 831 32<245 249>
VStem: 89 46<247 252 252 659> 330 40<769 798.5> 468 43<252 633> 568 45<720.5 755>
LayerCount: 2
Fore
SplineSet
300 -12 m 0
 190 -12 89 47 89 247 c 2
 89 659 l 1
 135 659 l 1
 135 252 l 2
 135 82 212 30 300 30 c 0
 390 30 468 82 468 252 c 2
 468 659 l 1
 478 659 l 1
 542 668 568 694 568 747 c 0
 568 763 563 784 554 801 c 1
 593 820 l 1
 606 798 613 774 613 750 c 0
 613 677 563 647 511 633 c 1
 511 247 l 2
 511 47 411 -12 300 -12 c 0
275 702 m 1
 267 729 l 1
 303 740 330 755 330 783 c 0
 330 814 300 829 245 831 c 1
 249 863 l 1
 315 861 370 839 370 789 c 0
 370 737 323 715 275 702 c 1
EndSplineSet
Validated: 1
EndChar

StartChar: uni1EEE
Encoding: 7918 7918 231
Width: 600
Flags: MW
HStem: -12 42<256 345 256 355.5> 704 20G<135 135> 718 37<349.5 391.5 349.5 404> 797 37<208.5 250.5>
VStem: 89 46<247 252 252 659> 135 33<721 724> 432 33<829 832> 468 43<252 633> 568 45<720.5 755>
LayerCount: 2
Fore
SplineSet
300 -12 m 0xd980
 190 -12 89 47 89 247 c 2
 89 659 l 1
 135 659 l 1
 135 252 l 2
 135 82 212 30 300 30 c 0
 390 30 468 82 468 252 c 2
 468 659 l 1
 478 659 l 1
 542 668 568 694 568 747 c 0
 568 763 563 784 554 801 c 1
 593 820 l 1
 606 798 613 774 613 750 c 0
 613 677 563 647 511 633 c 1
 511 247 l 2
 511 47 411 -12 300 -12 c 0xd980
377 718 m 0xb680
 300 718 278 797 223 797 c 0
 194 797 172 768 168 721 c 1
 135 724 l 1xd580
 138 786 169 834 223 834 c 0
 300 834 322 755 377 755 c 0
 406 755 426 785 432 832 c 1
 465 829 l 1
 462 767 431 718 377 718 c 0xb680
EndSplineSet
Validated: 1
EndChar

StartChar: uni1EF0
Encoding: 7920 7920 232
Width: 600
Flags: MW
HStem: -197 96<287 313> -12 42<256 345 256 355.5>
VStem: 89 46<247 252 252 659> 253 94<-164 -134.5> 468 43<252 633> 568 45<720.5 755>
LayerCount: 2
Fore
SplineSet
300 -12 m 0
 190 -12 89 47 89 247 c 2
 89 659 l 1
 135 659 l 1
 135 252 l 2
 135 82 212 30 300 30 c 0
 390 30 468 82 468 252 c 2
 468 659 l 1
 478 659 l 1
 542 668 568 694 568 747 c 0
 568 763 563 784 554 801 c 1
 593 820 l 1
 606 798 613 774 613 750 c 0
 613 677 563 647 511 633 c 1
 511 247 l 2
 511 47 411 -12 300 -12 c 0
300 -197 m 0
 274 -197 253 -179 253 -149 c 0
 253 -120 274 -101 300 -101 c 0
 326 -101 347 -120 347 -149 c 0
 347 -179 326 -197 300 -197 c 0
EndSplineSet
Validated: 1
EndChar

StartChar: uni1E7E
Encoding: 7806 7806 233
Width: 600
Flags: MW
HStem: -197 96<290 316> 0 53<276 303 299 303 299 326>
VStem: 256 94<-164 -134.5>
LayerCount: 2
Fore
SplineSet
276 0 m 1
 59 659 l 1
 108 659 l 1
 230 274 l 2
 255 194 272 133 299 53 c 1
 303 53 l 1
 330 133 348 194 373 274 c 2
 495 659 l 1
 541 659 l 1
 326 0 l 1
 276 0 l 1
303 -197 m 0
 277 -197 256 -179 256 -149 c 0
 256 -120 277 -101 303 -101 c 0
 329 -101 350 -120 350 -149 c 0
 350 -179 329 -197 303 -197 c 0
EndSplineSet
Validated: 1
EndChar

StartChar: Wgrave
Encoding: 7808 7808 234
Width: 600
Flags: MW
HStem: 0 53<122 153 150 153 150 181 450 454> 428 60<299 302 299 299> 468 20G<278 325 325 325> 709 20G<344 344>
VStem: 14 572<660 660>
LayerCount: 2
Fore
SplineSet
122 0 m 1xb8
 14 660 l 1
 60 660 l 1
 130 209 l 2
 136 156 145 109 150 53 c 1
 153 53 l 1
 168 109 182 156 196 209 c 2
 278 488 l 1
 325 488 l 1
 407 209 l 2
 421 156 435 108 450 53 c 1
 454 53 l 1
 460 108 467 156 474 209 c 2
 541 660 l 1
 586 660 l 1
 480 0 l 1
 421 0 l 1
 330 313 l 2
 320 351 312 389 302 428 c 1
 299 428 l 1xd8
 289 389 281 351 269 313 c 2
 181 0 l 1
 122 0 l 1xb8
324 706 m 1
 191 819 l 1
 220 852 l 1
 344 729 l 1
 324 706 l 1
EndSplineSet
Validated: 1
EndChar

StartChar: Wacute
Encoding: 7810 7810 235
Width: 600
Flags: MW
HStem: 0 53<122 153 150 153 150 181 450 454> 428 60<299 302 299 299> 468 20G<278 325 325 325> 709 20G<256 256>
VStem: 14 572<660 660>
LayerCount: 2
Fore
SplineSet
122 0 m 1xb8
 14 660 l 1
 60 660 l 1
 130 209 l 2
 136 156 145 109 150 53 c 1
 153 53 l 1
 168 109 182 156 196 209 c 2
 278 488 l 1
 325 488 l 1
 407 209 l 2
 421 156 435 108 450 53 c 1
 454 53 l 1
 460 108 467 156 474 209 c 2
 541 660 l 1
 586 660 l 1
 480 0 l 1
 421 0 l 1
 330 313 l 2
 320 351 312 389 302 428 c 1
 299 428 l 1xd8
 289 389 281 351 269 313 c 2
 181 0 l 1
 122 0 l 1xb8
276 706 m 1
 256 729 l 1
 380 852 l 1
 409 819 l 1
 276 706 l 1
EndSplineSet
Validated: 1
EndChar

StartChar: Wcircumflex
Encoding: 372 372 236
Width: 600
Flags: MW
HStem: 0 53<122 153 150 153 150 181 450 454> 428 60<299 302 299 299> 468 20G<278 325 325 325> 706 20G<165 165 435 435> 805 34<298 302 298 298>
VStem: 14 572<660 660>
LayerCount: 2
Fore
SplineSet
122 0 m 1xbc
 14 660 l 1
 60 660 l 1
 130 209 l 2
 136 156 145 109 150 53 c 1
 153 53 l 1
 168 109 182 156 196 209 c 2
 278 488 l 1
 325 488 l 1
 407 209 l 2
 421 156 435 108 450 53 c 1
 454 53 l 1
 460 108 467 156 474 209 c 2
 541 660 l 1
 586 660 l 1
 480 0 l 1
 421 0 l 1
 330 313 l 2
 320 351 312 389 302 428 c 1
 299 428 l 1xdc
 289 389 281 351 269 313 c 2
 181 0 l 1
 122 0 l 1xbc
185 707 m 1
 165 726 l 1
 278 839 l 1
 322 839 l 1
 435 726 l 1
 415 707 l 1
 302 805 l 1
 298 805 l 1
 185 707 l 1
EndSplineSet
Validated: 1
EndChar

StartChar: Wdieresis
Encoding: 7812 7812 237
Width: 600
Flags: MW
HStem: 0 53<122 153 150 153 150 181 450 454> 428 60<299 302 299 299> 468 20G<278 325 325 325> 725 74<209.5 230.5 369.5 390.5>
VStem: 183 74<750.5 773> 343 74<750.5 773>
LayerCount: 2
Fore
SplineSet
122 0 m 1xbc
 14 660 l 1
 60 660 l 1
 130 209 l 2
 136 156 145 109 150 53 c 1
 153 53 l 1
 168 109 182 156 196 209 c 2
 278 488 l 1
 325 488 l 1
 407 209 l 2
 421 156 435 108 450 53 c 1
 454 53 l 1
 460 108 467 156 474 209 c 2
 541 660 l 1
 586 660 l 1
 480 0 l 1
 421 0 l 1
 330 313 l 2
 320 351 312 389 302 428 c 1
 299 428 l 1xdc
 289 389 281 351 269 313 c 2
 181 0 l 1
 122 0 l 1xbc
220 725 m 0
 199 725 183 739 183 762 c 0
 183 784 199 799 220 799 c 0
 241 799 257 784 257 762 c 0
 257 739 241 725 220 725 c 0
380 725 m 0
 359 725 343 739 343 762 c 0
 343 784 359 799 380 799 c 0
 401 799 417 784 417 762 c 0
 417 739 401 725 380 725 c 0
EndSplineSet
Validated: 1
EndChar

StartChar: Ygrave
Encoding: 7922 7922 238
Width: 600
Flags: MW
HStem: 0 21G<277 277 277 323> 709 20G<344 344>
VStem: 277 46<0 242 0 242>
LayerCount: 2
Fore
SplineSet
277 0 m 1
 277 242 l 1
 51 659 l 1
 98 659 l 1
 215 441 l 2
 245 391 270 339 300 286 c 1
 304 286 l 1
 335 339 363 391 390 442 c 2
 504 659 l 1
 549 659 l 1
 323 242 l 1
 323 0 l 1
 277 0 l 1
324 706 m 1
 191 819 l 1
 220 852 l 1
 344 729 l 1
 324 706 l 1
EndSplineSet
Validated: 1
EndChar

StartChar: Yacute
Encoding: 221 221 239
Width: 600
Flags: MW
HStem: 0 21G<277 277 277 323> 709 20G<256 256>
VStem: 277 46<0 242 0 242>
LayerCount: 2
Fore
SplineSet
277 0 m 1
 277 242 l 1
 51 659 l 1
 98 659 l 1
 215 441 l 2
 245 391 270 339 300 286 c 1
 304 286 l 1
 335 339 363 391 390 442 c 2
 504 659 l 1
 549 659 l 1
 323 242 l 1
 323 0 l 1
 277 0 l 1
276 706 m 1
 256 729 l 1
 380 852 l 1
 409 819 l 1
 276 706 l 1
EndSplineSet
Validated: 1
EndChar

StartChar: Ycircumflex
Encoding: 374 374 240
Width: 600
Flags: MW
HStem: 0 21G<277 277 277 323> 706 20G<165 165 435 435> 805 34<298 302 298 298>
VStem: 277 46<0 242 0 242>
LayerCount: 2
Fore
SplineSet
277 0 m 1
 277 242 l 1
 51 659 l 1
 98 659 l 1
 215 441 l 2
 245 391 270 339 300 286 c 1
 304 286 l 1
 335 339 363 391 390 442 c 2
 504 659 l 1
 549 659 l 1
 323 242 l 1
 323 0 l 1
 277 0 l 1
185 707 m 1
 165 726 l 1
 278 839 l 1
 322 839 l 1
 435 726 l 1
 415 707 l 1
 302 805 l 1
 298 805 l 1
 185 707 l 1
EndSplineSet
Validated: 1
EndChar

StartChar: Ydieresis
Encoding: 376 376 241
Width: 600
Flags: MW
HStem: 0 21G<277 277 277 323> 725 74<209.5 230.5 369.5 390.5>
VStem: 183 74<750.5 773> 277 46<0 242 0 242> 343 74<750.5 773>
LayerCount: 2
Fore
SplineSet
277 0 m 1
 277 242 l 1
 51 659 l 1
 98 659 l 1
 215 441 l 2
 245 391 270 339 300 286 c 1
 304 286 l 1
 335 339 363 391 390 442 c 2
 504 659 l 1
 549 659 l 1
 323 242 l 1
 323 0 l 1
 277 0 l 1
220 725 m 0xf8
 199 725 183 739 183 762 c 0
 183 784 199 799 220 799 c 0
 241 799 257 784 257 762 c 0
 257 739 241 725 220 725 c 0xf8
380 725 m 0
 359 725 343 739 343 762 c 0
 343 784 359 799 380 799 c 0
 401 799 417 784 417 762 c 0
 417 739 401 725 380 725 c 0
EndSplineSet
Validated: 1
EndChar

StartChar: uni1E8E
Encoding: 7822 7822 242
Width: 600
Flags: MW
HStem: 0 21G<277 277 277 323> 721 82<289 311>
VStem: 259 82<750.5 775> 277 46<0 242 0 242>
LayerCount: 2
Fore
SplineSet
277 0 m 1xd0
 277 242 l 1
 51 659 l 1
 98 659 l 1
 215 441 l 2
 245 391 270 339 300 286 c 1
 304 286 l 1
 335 339 363 391 390 442 c 2
 504 659 l 1
 549 659 l 1
 323 242 l 1
 323 0 l 1
 277 0 l 1xd0
300 721 m 0xe0
 278 721 259 738 259 763 c 0
 259 787 278 803 300 803 c 0
 322 803 341 787 341 763 c 0
 341 738 322 721 300 721 c 0xe0
EndSplineSet
Validated: 1
EndChar

StartChar: uni1EF4
Encoding: 7924 7924 243
Width: 600
Flags: MW
HStem: -197 96<287 313> 0 21G<277 277 277 323>
VStem: 253 94<-164 -134.5> 277 46<0 242 0 242>
LayerCount: 2
Fore
SplineSet
277 0 m 1xd0
 277 242 l 1
 51 659 l 1
 98 659 l 1
 215 441 l 2
 245 391 270 339 300 286 c 1
 304 286 l 1
 335 339 363 391 390 442 c 2
 504 659 l 1
 549 659 l 1
 323 242 l 1
 323 0 l 1
 277 0 l 1xd0
300 -197 m 0xe0
 274 -197 253 -179 253 -149 c 0
 253 -120 274 -101 300 -101 c 0
 326 -101 347 -120 347 -149 c 0
 347 -179 326 -197 300 -197 c 0xe0
EndSplineSet
Validated: 1
EndChar

StartChar: uni1EF6
Encoding: 7926 7926 244
Width: 600
Flags: MW
HStem: 0 21G<277 277 277 323> 831 32<245 249>
VStem: 277 46<0 242 0 242> 330 40<769 798.5>
LayerCount: 2
Fore
SplineSet
277 0 m 1
 277 242 l 1
 51 659 l 1
 98 659 l 1
 215 441 l 2
 245 391 270 339 300 286 c 1
 304 286 l 1
 335 339 363 391 390 442 c 2
 504 659 l 1
 549 659 l 1
 323 242 l 1
 323 0 l 1
 277 0 l 1
275 702 m 1xd0
 267 729 l 1
 303 740 330 755 330 783 c 0
 330 814 300 829 245 831 c 1
 249 863 l 1
 315 861 370 839 370 789 c 0
 370 737 323 715 275 702 c 1xd0
EndSplineSet
Validated: 1
EndChar

StartChar: uni1EF8
Encoding: 7928 7928 245
Width: 600
Flags: MW
HStem: 0 21G<277 277 277 323> 704 20G<135 135> 718 37<349.5 391.5 349.5 404> 797 37<208.5 250.5>
VStem: 135 33<721 724> 277 46<0 242 0 242> 432 33<829 832>
LayerCount: 2
Fore
SplineSet
277 0 m 1xde
 277 242 l 1
 51 659 l 1
 98 659 l 1
 215 441 l 2
 245 391 270 339 300 286 c 1
 304 286 l 1
 335 339 363 391 390 442 c 2
 504 659 l 1
 549 659 l 1
 323 242 l 1
 323 0 l 1
 277 0 l 1xde
377 718 m 0xbe
 300 718 278 797 223 797 c 0
 194 797 172 768 168 721 c 1
 135 724 l 1xde
 138 786 169 834 223 834 c 0
 300 834 322 755 377 755 c 0
 406 755 426 785 432 832 c 1
 465 829 l 1
 462 767 431 718 377 718 c 0xbe
EndSplineSet
Validated: 1
EndChar

StartChar: Zacute
Encoding: 377 377 246
Width: 600
Flags: MW
HStem: 0 40<125 535 125 535> 621 39<104 473 104 528> 709 20G<272 272>
VStem: 70 465<0 28 28 28>
LayerCount: 2
Fore
SplineSet
70 0 m 1
 70 28 l 1
 473 621 l 1
 104 621 l 1
 104 660 l 1
 528 660 l 1
 528 632 l 1
 125 40 l 1
 535 40 l 1
 535 0 l 1
 70 0 l 1
292 706 m 1
 272 729 l 1
 396 852 l 1
 425 819 l 1
 292 706 l 1
EndSplineSet
Validated: 1
EndChar

StartChar: Zcaron
Encoding: 381 381 247
Width: 600
Flags: MW
HStem: 0 40<125 535 125 535> 621 39<104 473 104 528> 709 34<294 318 314 318 314 338>
VStem: 70 465<0 28 28 28>
LayerCount: 2
Fore
SplineSet
70 0 m 1
 70 28 l 1
 473 621 l 1
 104 621 l 1
 104 660 l 1
 528 660 l 1
 528 632 l 1
 125 40 l 1
 535 40 l 1
 535 0 l 1
 70 0 l 1
294 709 m 1
 181 823 l 1
 201 841 l 1
 314 743 l 1
 318 743 l 1
 431 841 l 1
 451 823 l 1
 338 709 l 1
 294 709 l 1
EndSplineSet
Validated: 1
EndChar

StartChar: Zdotaccent
Encoding: 379 379 248
Width: 600
Flags: MW
HStem: 0 40<125 535 125 535> 621 39<104 473 104 528> 721 82<305 327>
VStem: 275 82<750.5 775>
LayerCount: 2
Fore
SplineSet
70 0 m 1
 70 28 l 1
 473 621 l 1
 104 621 l 1
 104 660 l 1
 528 660 l 1
 528 632 l 1
 125 40 l 1
 535 40 l 1
 535 0 l 1
 70 0 l 1
316 721 m 0
 294 721 275 738 275 763 c 0
 275 787 294 803 316 803 c 0
 338 803 357 787 357 763 c 0
 357 738 338 721 316 721 c 0
EndSplineSet
Validated: 1
EndChar

StartChar: uni1E90
Encoding: 7824 7824 249
Width: 600
Flags: MW
HStem: 0 40<125 535 125 535> 621 39<104 473 104 528> 621 105<181 181 104 181> 706 20G<181 181 451 451> 805 34<314 318 314 314>
VStem: 70 465<0 28 28 28>
LayerCount: 2
Fore
SplineSet
70 0 m 1xdc
 70 28 l 1
 473 621 l 1
 104 621 l 1
 104 660 l 1
 528 660 l 1
 528 632 l 1
 125 40 l 1
 535 40 l 1
 535 0 l 1
 70 0 l 1xdc
201 707 m 1
 181 726 l 1
 294 839 l 1
 338 839 l 1
 451 726 l 1xac
 431 707 l 1
 318 805 l 1
 314 805 l 1
 201 707 l 1
EndSplineSet
Validated: 1
EndChar

StartChar: uni1E92
Encoding: 7826 7826 250
Width: 600
Flags: MW
HStem: -197 96<297 323> 0 40<125 535 125 535> 621 39<104 473 104 528>
VStem: 263 94<-164 -134.5>
LayerCount: 2
Fore
SplineSet
70 0 m 1
 70 28 l 1
 473 621 l 1
 104 621 l 1
 104 660 l 1
 528 660 l 1
 528 632 l 1
 125 40 l 1
 535 40 l 1
 535 0 l 1
 70 0 l 1
310 -197 m 0
 284 -197 263 -179 263 -149 c 0
 263 -120 284 -101 310 -101 c 0
 336 -101 357 -120 357 -149 c 0
 357 -179 336 -197 310 -197 c 0
EndSplineSet
Validated: 1
EndChar

StartChar: uni1E94
Encoding: 7828 7828 251
Width: 600
Flags: MW
HStem: -160 36<187 433 187 433> 0 40<125 535 125 535> 621 39<104 473 104 528>
VStem: 70 465<0 28 28 28>
LayerCount: 2
Fore
SplineSet
70 0 m 1
 70 28 l 1
 473 621 l 1
 104 621 l 1
 104 660 l 1
 528 660 l 1
 528 632 l 1
 125 40 l 1
 535 40 l 1
 535 0 l 1
 70 0 l 1
187 -160 m 1
 187 -124 l 1
 433 -124 l 1
 433 -160 l 1
 187 -160 l 1
EndSplineSet
Validated: 1
EndChar

StartChar: Eth
Encoding: 208 208 252
Width: 600
GlyphClass: 2
Flags: MW
HStem: 0 39<142 244 244 249> 331 38<19 96 142 307> 620 39<142 244 142 142>
VStem: 96 46<39 39 39 331 369 620> 498 48<246 417.5>
AnchorPoint: "Anchor-3" 290 -20 basechar 0
AnchorPoint: "Anchor-0" 300 679 basechar 0
LayerCount: 2
Fore
SplineSet
96 0 m 1
 96 331 l 1
 19 331 l 1
 19 364 l 1
 96 369 l 1
 96 659 l 1
 248 659 l 2
 450 659 546 531 546 332 c 0
 546 132 450 0 249 0 c 2
 96 0 l 1
142 39 m 1
 244 39 l 2
 421 39 498 160 498 332 c 0
 498 503 421 620 244 620 c 2
 142 620 l 1
 142 369 l 1
 307 369 l 1
 307 331 l 1
 142 331 l 1
 142 39 l 1
EndSplineSet
Validated: 1
EndChar

StartChar: Thorn
Encoding: 222 222 253
Width: 600
Flags: MW
HStem: 0 21G<118 118 118 164> 166 39<164 286 286 298 164 286> 503 39<164 286 164 298>
VStem: 118 46<0 166 205 503 542 659> 485 48<304 413>
LayerCount: 2
Fore
SplineSet
118 0 m 1
 118 659 l 1
 164 659 l 1
 164 542 l 1
 298 542 l 2
 445 542 533 493 533 358 c 0
 533 229 445 166 298 166 c 2
 164 166 l 1
 164 0 l 1
 118 0 l 1
164 205 m 1
 286 205 l 2
 421 205 485 250 485 358 c 0
 485 468 420 503 286 503 c 2
 164 503 l 1
 164 205 l 1
EndSplineSet
Validated: 1
EndChar

StartChar: uni018F
Encoding: 399 399 254
Width: 600
GlyphClass: 2
Flags: MW
HStem: -12 40<243 356.5 243 372> 299 38<110 497 110 110> 631 40<273 365.5>
VStem: 64 46<299 337 299 337> 498 46<337 337>
AnchorPoint: "Anchor-6" 310 0 basechar 0
AnchorPoint: "Anchor-3" 301 -20 basechar 0
AnchorPoint: "Anchor-2" 310 0 basechar 0
AnchorPoint: "Anchor-0" 316 679 basechar 0
LayerCount: 2
Fore
SplineSet
299 -12 m 0
 152 -12 64 130 64 329 c 2
 64 337 l 1
 498 337 l 1
 496 517 429 631 302 631 c 0
 244 631 194 606 157 566 c 1
 133 597 l 1
 172 639 228 671 302 671 c 0
 456 671 544 540 544 331 c 0
 544 123 445 -12 299 -12 c 0
299 28 m 0
 414 28 489 132 497 299 c 1
 110 299 l 1
 117 130 187 28 299 28 c 0
EndSplineSet
Validated: 1
EndChar

StartChar: Eng
Encoding: 330 330 255
Width: 600
GlyphClass: 2
Flags: MW
HStem: -12 45<376.5 415 373 431.5> 0 21G<96 142 96 96> 629 42<288 369.5>
VStem: 96 46<0 524 0 659> 497 48<221.5 450>
AnchorPoint: "Anchor-3" 309 -20 basechar 0
AnchorPoint: "Anchor-0" 323 679 basechar 0
LayerCount: 2
Fore
SplineSet
388 -12 m 0xb8
 365 -12 335 -8 317 1 c 1
 331 44 l 1
 346 37 362 33 384 33 c 0xb8
 446 33 497 106 497 337 c 0
 497 563 423 629 316 629 c 0
 259 629 184 580 142 524 c 1
 142 0 l 1
 96 0 l 1x78
 96 659 l 1
 141 659 l 1
 141 572 l 1
 186 623 254 671 322 671 c 0
 450 671 545 583 545 337 c 0
 545 74 475 -12 388 -12 c 0xb8
EndSplineSet
Validated: 1
Substitution2: "'ss05' Style Set 5 lookup 3 subtable" uni014A.a
EndChar

StartChar: IJ
Encoding: 306 306 256
Width: 600
GlyphClass: 5
Flags: MW
HStem: -156 43<345.5 382.5 345.5 393.5> 0 21G<134 134 134 180> 639 20G<134 180 180 180 420 466 466 466>
VStem: 134 46<0 659 0 659> 420 46<-9 659>
LayerCount: 2
Fore
SplineSet
134 0 m 1
 134 659 l 1
 180 659 l 1
 180 0 l 1
 134 0 l 1
356 -156 m 0
 333 -156 309 -149 294 -143 c 1
 304 -104 l 1
 317 -108 336 -113 355 -113 c 0
 410 -113 420 -70 420 -9 c 2
 420 659 l 1
 466 659 l 1
 466 -15 l 2
 466 -109 431 -156 356 -156 c 0
EndSplineSet
Validated: 1
EndChar

StartChar: uni004C00B7004C
Encoding: 1114115 -1 257
Width: 600
GlyphClass: 3
Flags: MW
HStem: 0 40<129 276 129 276 395 541> 281 129<229.5 260>
VStem: 87 42<40 659 40 659 40 659> 185 119<325 367> 352 43<40 659 40 659 40 659>
LayerCount: 2
Fore
SplineSet
87 0 m 1
 87 659 l 1
 129 659 l 1
 129 40 l 1
 276 40 l 1
 276 0 l 1
 87 0 l 1
245 281 m 0
 214 281 185 304 185 346 c 0
 185 388 214 410 245 410 c 0
 275 410 304 388 304 346 c 0
 304 304 275 281 245 281 c 0
352 0 m 1
 352 659 l 1
 395 659 l 1
 395 40 l 1
 541 40 l 1
 541 0 l 1
 352 0 l 1
EndSplineSet
Validated: 1
Ligature2: "'ccmp' Glyph Composition/Decomposition lookup 18 subtable" L periodcentered L
EndChar

StartChar: uni01320301
Encoding: 1114116 -1 258
Width: 600
GlyphClass: 3
Flags: MW
HStem: -156 43<345.5 382.5 345.5 393.5> 0 21G<134 134 134 180> 709 20G<113 113 399 399>
VStem: 134 46<0 659 0 659> 420 46<-9 659>
LayerCount: 2
Fore
SplineSet
134 0 m 1
 134 659 l 1
 180 659 l 1
 180 0 l 1
 134 0 l 1
356 -156 m 0
 333 -156 309 -149 294 -143 c 1
 304 -104 l 1
 317 -108 336 -113 355 -113 c 0
 410 -113 420 -70 420 -9 c 2
 420 659 l 1
 466 659 l 1
 466 -15 l 2
 466 -109 431 -156 356 -156 c 0
133 706 m 1
 113 729 l 1
 237 852 l 1
 266 819 l 1
 133 706 l 1
419 706 m 1
 399 729 l 1
 523 852 l 1
 552 819 l 1
 419 706 l 1
EndSplineSet
Validated: 1
Ligature2: "'ccmp' Glyph Composition/Decomposition lookup 18 subtable" IJ uni0301
EndChar

StartChar: agrave
Encoding: 224 224 259
Width: 600
Flags: MW
HStem: -12 38<234.5 294.5> 0 21G<467 504 467 467> 453 39<281 372> 703 20G<207 207>
VStem: 92 45<87.5 160.5 87.5 173.5> 460 44<72 72 113 267 267 267>
LayerCount: 2
Fore
SplineSet
259 -12 m 0xbc
 173 -12 92 29 92 120 c 0
 92 227 200 278 460 301 c 1
 459 380 427 453 317 453 c 0
 245 453 175 416 135 388 c 1
 115 421 l 1
 153 448 237 492 322 492 c 0
 451 492 504 410 504 307 c 2
 504 0 l 1
 467 0 l 1x7c
 462 72 l 1
 460 72 l 1
 405 28 330 -12 259 -12 c 0xbc
267 26 m 0
 328 26 393 56 460 113 c 1
 460 267 l 1
 216 245 137 199 137 122 c 0
 137 53 202 26 267 26 c 0
351 572 m 1
 207 723 l 1
 241 754 l 1
 375 595 l 1
 351 572 l 1
EndSplineSet
Validated: 1
Substitution2: "'ss02' Style Set 2 lookup 0 subtable" agrave.a
EndChar

StartChar: aacute
Encoding: 225 225 260
Width: 600
GlyphClass: 2
Flags: MW
HStem: -12 38<234.5 294.5> 0 21G<467 504 467 467> 453 39<281 372> 703 20G<433 433>
VStem: 92 45<87.5 160.5 87.5 173.5> 460 44<72 72 113 267 267 267>
AnchorPoint: "Anchor-6" 439 0 basechar 0
LayerCount: 2
Fore
SplineSet
259 -12 m 0xbc
 173 -12 92 29 92 120 c 0
 92 227 200 278 460 301 c 1
 459 380 427 453 317 453 c 0
 245 453 175 416 135 388 c 1
 115 421 l 1
 153 448 237 492 322 492 c 0
 451 492 504 410 504 307 c 2
 504 0 l 1
 467 0 l 1x7c
 462 72 l 1
 460 72 l 1
 405 28 330 -12 259 -12 c 0xbc
267 26 m 0
 328 26 393 56 460 113 c 1
 460 267 l 1
 216 245 137 199 137 122 c 0
 137 53 202 26 267 26 c 0
289 572 m 1
 265 595 l 1
 399 754 l 1
 433 723 l 1
 289 572 l 1
EndSplineSet
Validated: 1
Substitution2: "'ss02' Style Set 2 lookup 0 subtable" aacute.a
EndChar

StartChar: acircumflex
Encoding: 226 226 261
Width: 600
Flags: MW
HStem: -12 38<234.5 294.5> 0 21G<467 504 467 467> 453 39<281 372> 698 39<318 322 318 318>
VStem: 92 45<87.5 160.5 87.5 173.5> 460 44<72 72 113 267 267 267>
LayerCount: 2
Fore
SplineSet
259 -12 m 0xac
 173 -12 92 29 92 120 c 0
 92 227 200 278 460 301 c 1
 459 380 427 453 317 453 c 0
 245 453 175 416 135 388 c 1
 115 421 l 1
 153 448 237 492 322 492 c 0
 451 492 504 410 504 307 c 2
 504 0 l 1
 467 0 l 1x6c
 462 72 l 1
 460 72 l 1
 405 28 330 -12 259 -12 c 0xac
267 26 m 0
 328 26 393 56 460 113 c 1
 460 267 l 1
 216 245 137 199 137 122 c 0
 137 53 202 26 267 26 c 0
204 572 m 1
 182 593 l 1
 299 737 l 1
 341 737 l 1
 458 593 l 1
 436 572 l 1
 322 698 l 1
 318 698 l 1xbc
 204 572 l 1
EndSplineSet
Validated: 1
Substitution2: "'ss02' Style Set 2 lookup 0 subtable" acircumflex.a
EndChar

StartChar: atilde
Encoding: 227 227 262
Width: 600
Flags: MW
HStem: -12 38<234.5 294.5> 0 21G<467 504 467 467> 453 39<281 372> 579 35<369 414.5 369 428> 675 35<226 271.5>
VStem: 92 45<87.5 160.5 87.5 173.5> 156 34<582 584> 450 34<705 707> 460 44<72 72 113 267 267 267>
LayerCount: 2
Fore
SplineSet
259 -12 m 0xbc80
 173 -12 92 29 92 120 c 0
 92 227 200 278 460 301 c 1
 459 380 427 453 317 453 c 0
 245 453 175 416 135 388 c 1
 115 421 l 1
 153 448 237 492 322 492 c 0
 451 492 504 410 504 307 c 2
 504 0 l 1
 467 0 l 1x7c80
 462 72 l 1
 460 72 l 1
 405 28 330 -12 259 -12 c 0xbc80
267 26 m 0
 328 26 393 56 460 113 c 1
 460 267 l 1
 216 245 137 199 137 122 c 0
 137 53 202 26 267 26 c 0
396 579 m 0xbf
 320 579 299 675 244 675 c 0
 208 675 193 634 190 582 c 1
 156 584 l 1
 160 647 180 710 245 710 c 0
 320 710 341 614 397 614 c 0
 432 614 447 657 450 707 c 1
 484 705 l 1
 480 643 460 579 396 579 c 0xbf
EndSplineSet
Validated: 1
Substitution2: "'ss02' Style Set 2 lookup 0 subtable" atilde.a
EndChar

StartChar: adieresis
Encoding: 228 228 263
Width: 600
GlyphClass: 2
Flags: MW
HStem: -12 38<234.5 294.5> 0 21G<467 504 467 467> 453 39<281 372> 598 83<219.5 242.5 397.5 420.5>
VStem: 92 45<87.5 160.5 87.5 173.5> 191 80<628.5 651.5> 369 80<628.5 651.5> 460 44<72 72 113 267 267 267>
AnchorPoint: "Anchor-6" 439 0 basechar 0
LayerCount: 2
Fore
SplineSet
259 -12 m 0xa9
 173 -12 92 29 92 120 c 0
 92 227 200 278 460 301 c 1
 459 380 427 453 317 453 c 0
 245 453 175 416 135 388 c 1
 115 421 l 1
 153 448 237 492 322 492 c 0
 451 492 504 410 504 307 c 2
 504 0 l 1
 467 0 l 1x69
 462 72 l 1
 460 72 l 1
 405 28 330 -12 259 -12 c 0xa9
267 26 m 0
 328 26 393 56 460 113 c 1
 460 267 l 1
 216 245 137 199 137 122 c 0
 137 53 202 26 267 26 c 0
231 598 m 0xbf
 208 598 191 617 191 640 c 0
 191 663 208 681 231 681 c 0
 254 681 271 663 271 640 c 0
 271 617 254 598 231 598 c 0xbf
409 598 m 0
 386 598 369 617 369 640 c 0
 369 663 386 681 409 681 c 0
 432 681 449 663 449 640 c 0
 449 617 432 598 409 598 c 0
EndSplineSet
Validated: 1
Substitution2: "'ss02' Style Set 2 lookup 0 subtable" adieresis.a
EndChar

StartChar: amacron
Encoding: 257 257 264
Width: 600
Flags: MW
HStem: -12 38<234.5 294.5> 0 21G<467 504 467 467> 453 39<281 372> 606 36<197 443 197 443>
VStem: 92 45<87.5 160.5 87.5 173.5> 460 44<72 72 113 267 267 267>
LayerCount: 2
Fore
SplineSet
259 -12 m 0xbc
 173 -12 92 29 92 120 c 0
 92 227 200 278 460 301 c 1
 459 380 427 453 317 453 c 0
 245 453 175 416 135 388 c 1
 115 421 l 1
 153 448 237 492 322 492 c 0
 451 492 504 410 504 307 c 2
 504 0 l 1
 467 0 l 1x7c
 462 72 l 1
 460 72 l 1
 405 28 330 -12 259 -12 c 0xbc
267 26 m 0
 328 26 393 56 460 113 c 1
 460 267 l 1
 216 245 137 199 137 122 c 0
 137 53 202 26 267 26 c 0
197 606 m 1
 197 642 l 1
 443 642 l 1
 443 606 l 1
 197 606 l 1
EndSplineSet
Validated: 1
Substitution2: "'ss02' Style Set 2 lookup 0 subtable" amacron.a
EndChar

StartChar: abreve
Encoding: 259 259 265
Width: 600
Flags: MW
HStem: -12 38<234.5 294.5> 0 21G<467 504 467 467> 453 39<281 372> 570 34<284 356 284 371.5> 703 20G<204 204 436 436>
VStem: 92 45<87.5 160.5 87.5 173.5> 171 33<718 723> 436 33<718 723> 460 44<72 72 113 267 267 267>
LayerCount: 2
Fore
SplineSet
259 -12 m 0xbc80
 173 -12 92 29 92 120 c 0
 92 227 200 278 460 301 c 1
 459 380 427 453 317 453 c 0
 245 453 175 416 135 388 c 1
 115 421 l 1
 153 448 237 492 322 492 c 0
 451 492 504 410 504 307 c 2
 504 0 l 1
 467 0 l 1x7c80
 462 72 l 1
 460 72 l 1
 405 28 330 -12 259 -12 c 0xbc80
267 26 m 0
 328 26 393 56 460 113 c 1
 460 267 l 1
 216 245 137 199 137 122 c 0
 137 53 202 26 267 26 c 0
320 570 m 0xbf
 217 570 179 652 171 718 c 1
 204 723 l 1
 212 667 248 604 320 604 c 0
 392 604 428 667 436 723 c 1
 469 718 l 1
 461 652 423 570 320 570 c 0xbf
EndSplineSet
Validated: 1
Substitution2: "'ss02' Style Set 2 lookup 0 subtable" abreve.a
EndChar

StartChar: aring
Encoding: 229 229 266
Width: 600
GlyphClass: 2
Flags: MW
HStem: -12 38<234.5 294.5> 0 21G<467 504 467 467> 453 39<281 372> 570 26<302 338 302 349> 727 26<302 338>
VStem: 92 45<87.5 160.5 87.5 173.5> 223 32<643 679.5 643 687.5> 385 32<643 679.5> 460 44<72 72 113 267 267 267>
AnchorPoint: "Anchor-6" 439 0 basechar 0
LayerCount: 2
Fore
SplineSet
259 -12 m 0xbf80
 173 -12 92 29 92 120 c 0
 92 227 200 278 460 301 c 1
 459 380 427 453 317 453 c 0
 245 453 175 416 135 388 c 1
 115 421 l 1
 153 448 237 492 322 492 c 0
 451 492 504 410 504 307 c 2
 504 0 l 1
 467 0 l 1x7f80
 462 72 l 1
 460 72 l 1
 405 28 330 -12 259 -12 c 0xbf80
267 26 m 0
 328 26 393 56 460 113 c 1
 460 267 l 1
 216 245 137 199 137 122 c 0
 137 53 202 26 267 26 c 0
320 570 m 0
 262 570 223 609 223 661 c 0
 223 714 262 753 320 753 c 0
 378 753 417 714 417 661 c 0
 417 609 378 570 320 570 c 0
320 596 m 0
 356 596 385 625 385 661 c 0
 385 698 356 727 320 727 c 0
 284 727 255 698 255 661 c 0
 255 625 284 596 320 596 c 0
EndSplineSet
Validated: 1
Substitution2: "'ss02' Style Set 2 lookup 0 subtable" aring.a
EndChar

StartChar: aringacute
Encoding: 507 507 267
Width: 600
Flags: MW
HStem: -12 38<234.5 294.5> 0 21G<467 504 467 467> 453 39<281 372> 570 26<302 338 302 349> 727 24<302 342>
VStem: 92 45<87.5 160.5 87.5 173.5> 223 32<643 679> 385 32<643 679.5> 460 44<72 72 113 267 267 267>
LayerCount: 2
Fore
SplineSet
259 -12 m 0xb780
 173 -12 92 29 92 120 c 0
 92 227 200 278 460 301 c 1
 459 380 427 453 317 453 c 0
 245 453 175 416 135 388 c 1
 115 421 l 1
 153 448 237 492 322 492 c 0
 451 492 504 410 504 307 c 2
 504 0 l 1
 467 0 l 1x7780
 462 72 l 1
 460 72 l 1
 405 28 330 -12 259 -12 c 0xb780
267 26 m 0
 328 26 393 56 460 113 c 1
 460 267 l 1
 216 245 137 199 137 122 c 0
 137 53 202 26 267 26 c 0
320 570 m 0
 262 570 223 609 223 661 c 0
 223 697 241 726 270 742 c 2
 391 822 l 1
 413 786 l 1
 342 751 l 1xbf80
 388 742 417 707 417 661 c 0
 417 609 378 570 320 570 c 0
320 596 m 0
 356 596 385 625 385 661 c 0
 385 698 356 727 320 727 c 0xbf80
 284 727 255 698 255 661 c 0
 255 625 284 596 320 596 c 0
EndSplineSet
Validated: 1
Substitution2: "'ss02' Style Set 2 lookup 0 subtable" aringacute.a
EndChar

StartChar: uni01CE
Encoding: 462 462 268
Width: 600
Flags: MW
HStem: -12 38<234.5 294.5> 0 21G<467 504 467 467> 453 39<281 372> 573 39<299 322 318 322 318 341>
VStem: 92 45<87.5 160.5 87.5 173.5> 460 44<72 72 113 267 267 267>
LayerCount: 2
Fore
SplineSet
259 -12 m 0xac
 173 -12 92 29 92 120 c 0
 92 227 200 278 460 301 c 1
 459 380 427 453 317 453 c 0
 245 453 175 416 135 388 c 1
 115 421 l 1
 153 448 237 492 322 492 c 0
 451 492 504 410 504 307 c 2
 504 0 l 1
 467 0 l 1x6c
 462 72 l 1
 460 72 l 1
 405 28 330 -12 259 -12 c 0xac
267 26 m 0
 328 26 393 56 460 113 c 1
 460 267 l 1
 216 245 137 199 137 122 c 0
 137 53 202 26 267 26 c 0
299 573 m 1xbc
 182 717 l 1
 204 737 l 1
 318 612 l 1
 322 612 l 1
 436 737 l 1
 458 717 l 1
 341 573 l 1
 299 573 l 1xbc
EndSplineSet
Validated: 1
Substitution2: "'ss02' Style Set 2 lookup 0 subtable" uni01CE.a
EndChar

StartChar: aogonek
Encoding: 261 261 269
Width: 600
GlyphClass: 2
Flags: MW
HStem: -224 35<452 480.5 452 481> -12 21G -12 38<234.5 294.5> 0 21G<504 504> 453 39<281 372>
VStem: 92 45<87.5 160.5 87.5 173.5> 367 38<-149.5 -106 -149.5 -105.5> 460 44<72 72 113 267 267 267>
AnchorPoint: "Anchor-0" 320 502 basechar 0
LayerCount: 2
Fore
SplineSet
462 -224 m 0xaf
 407 -224 367 -196 367 -135 c 0
 367 -76 406 -29 467 9 c 1xcf
 462 72 l 1
 460 72 l 1
 405 28 330 -12 259 -12 c 0xaf
 173 -12 92 29 92 120 c 0
 92 227 200 278 460 301 c 1
 459 380 427 453 317 453 c 0
 245 453 175 416 135 388 c 1
 115 421 l 1
 153 448 237 492 322 492 c 0
 451 492 504 410 504 307 c 2
 504 0 l 1x9f
 434 -38 405 -83 405 -129 c 0
 405 -170 436 -189 468 -189 c 0
 493 -189 511 -178 524 -165 c 1
 544 -188 l 1
 523 -209 500 -224 462 -224 c 0xaf
267 26 m 0
 328 26 393 56 460 113 c 1
 460 267 l 1
 216 245 137 199 137 122 c 0
 137 53 202 26 267 26 c 0
EndSplineSet
Validated: 1
Ligature2: "'ccmp' Glyph Composition/Decomposition lookup 18 subtable" a uni0328
Substitution2: "'ss02' Style Set 2 lookup 0 subtable" aogonek.a
EndChar

StartChar: uni1EA1
Encoding: 7841 7841 270
Width: 600
Flags: MW
HStem: -197 96<287 313> -12 38<234.5 294.5> 0 21G<467 504 467 467> 453 39<281 372>
VStem: 92 45<87.5 160.5 87.5 173.5> 253 94<-164 -134.5> 460 44<72 72 113 267 267 267>
LayerCount: 2
Fore
SplineSet
259 -12 m 0x5a
 173 -12 92 29 92 120 c 0
 92 227 200 278 460 301 c 1
 459 380 427 453 317 453 c 0
 245 453 175 416 135 388 c 1
 115 421 l 1
 153 448 237 492 322 492 c 0
 451 492 504 410 504 307 c 2
 504 0 l 1
 467 0 l 1x3a
 462 72 l 1
 460 72 l 1
 405 28 330 -12 259 -12 c 0x5a
267 26 m 0
 328 26 393 56 460 113 c 1
 460 267 l 1
 216 245 137 199 137 122 c 0
 137 53 202 26 267 26 c 0
300 -197 m 0xde
 274 -197 253 -179 253 -149 c 0
 253 -120 274 -101 300 -101 c 0
 326 -101 347 -120 347 -149 c 0
 347 -179 326 -197 300 -197 c 0xde
EndSplineSet
Validated: 1
Substitution2: "'ss02' Style Set 2 lookup 0 subtable" uni1EA1.a
EndChar

StartChar: uni1EA3
Encoding: 7843 7843 271
Width: 600
Flags: MW
HStem: -12 38<234.5 294.5> 0 21G<467 504 467 467> 453 39<281 372> 707 34<265 268>
VStem: 92 45<87.5 160.5 87.5 173.5> 350 40<643.5 673.5> 460 44<72 72 113 267 267 267>
LayerCount: 2
Fore
SplineSet
259 -12 m 0xbe
 173 -12 92 29 92 120 c 0
 92 227 200 278 460 301 c 1
 459 380 427 453 317 453 c 0
 245 453 175 416 135 388 c 1
 115 421 l 1
 153 448 237 492 322 492 c 0
 451 492 504 410 504 307 c 2
 504 0 l 1
 467 0 l 1x7e
 462 72 l 1
 460 72 l 1
 405 28 330 -12 259 -12 c 0xbe
267 26 m 0
 328 26 393 56 460 113 c 1
 460 267 l 1
 216 245 137 199 137 122 c 0
 137 53 202 26 267 26 c 0
295 575 m 1
 287 603 l 1
 323 614 350 629 350 658 c 0
 350 689 320 705 265 707 c 1
 268 741 l 1
 335 739 390 716 390 663 c 0
 390 611 343 588 295 575 c 1
EndSplineSet
Validated: 1
Substitution2: "'ss02' Style Set 2 lookup 0 subtable" uni1EA3.a
EndChar

StartChar: uni1EA5
Encoding: 7845 7845 272
Width: 600
Flags: MW
HStem: -12 38<234.5 294.5> 0 21G<467 504 467 467> 453 39<281 372> 649 38<318 322 318 318>
VStem: 92 45<87.5 160.5 87.5 173.5> 460 44<72 72 113 267 267 267>
LayerCount: 2
Fore
SplineSet
259 -12 m 0xac
 173 -12 92 29 92 120 c 0
 92 227 200 278 460 301 c 1
 459 380 427 453 317 453 c 0
 245 453 175 416 135 388 c 1
 115 421 l 1
 153 448 237 492 322 492 c 0
 451 492 504 410 504 307 c 2
 504 0 l 1
 467 0 l 1x6c
 462 72 l 1
 460 72 l 1
 405 28 330 -12 259 -12 c 0xac
267 26 m 0
 328 26 393 56 460 113 c 1
 460 267 l 1
 216 245 137 199 137 122 c 0
 137 53 202 26 267 26 c 0
214 573 m 1xbc
 196 595 l 1
 301 687 l 1
 339 687 l 1
 444 595 l 1
 426 573 l 1
 322 649 l 1
 318 649 l 1
 214 573 l 1xbc
429 636 m 1
 407 656 l 1
 499 771 l 1
 529 747 l 1
 429 636 l 1
EndSplineSet
Validated: 1
Substitution2: "'ss02' Style Set 2 lookup 0 subtable" uni1EA5.a
EndChar

StartChar: uni1EA7
Encoding: 7847 7847 273
Width: 600
Flags: MW
HStem: -12 38<234.5 294.5> 0 21G<467 504 467 467> 453 39<281 372> 649 38<318 322 318 318>
VStem: 92 45<87.5 160.5 87.5 173.5> 460 44<72 72 113 267 267 267>
LayerCount: 2
Fore
SplineSet
259 -12 m 0xac
 173 -12 92 29 92 120 c 0
 92 227 200 278 460 301 c 1
 459 380 427 453 317 453 c 0
 245 453 175 416 135 388 c 1
 115 421 l 1
 153 448 237 492 322 492 c 0
 451 492 504 410 504 307 c 2
 504 0 l 1
 467 0 l 1x6c
 462 72 l 1
 460 72 l 1
 405 28 330 -12 259 -12 c 0xac
267 26 m 0
 328 26 393 56 460 113 c 1
 460 267 l 1
 216 245 137 199 137 122 c 0
 137 53 202 26 267 26 c 0
214 573 m 1xbc
 196 595 l 1
 301 687 l 1
 339 687 l 1
 444 595 l 1
 426 573 l 1
 322 649 l 1
 318 649 l 1
 214 573 l 1xbc
211 636 m 1
 93 744 l 1
 123 771 l 1
 233 659 l 1
 211 636 l 1
EndSplineSet
Validated: 1
Substitution2: "'ss02' Style Set 2 lookup 0 subtable" uni1EA7.a
EndChar

StartChar: uni1EA9
Encoding: 7849 7849 274
Width: 600
Flags: MW
HStem: -12 38<234.5 294.5> 0 21G<467 504 467 467> 453 39<281 372> 649 38<318 322 318 318> 747 29<393 396>
VStem: 92 45<87.5 160.5 87.5 173.5> 460 44<72 72 113 267 267 267> 464 38<689.5 716>
LayerCount: 2
Fore
SplineSet
259 -12 m 0xbe
 173 -12 92 29 92 120 c 0
 92 227 200 278 460 301 c 1
 459 380 427 453 317 453 c 0
 245 453 175 416 135 388 c 1
 115 421 l 1
 153 448 237 492 322 492 c 0
 451 492 504 410 504 307 c 2
 504 0 l 1
 467 0 l 1x7e
 462 72 l 1
 460 72 l 1
 405 28 330 -12 259 -12 c 0xbe
267 26 m 0
 328 26 393 56 460 113 c 1
 460 267 l 1
 216 245 137 199 137 122 c 0
 137 53 202 26 267 26 c 0
214 573 m 1
 196 595 l 1
 301 687 l 1
 339 687 l 1
 444 595 l 1
 426 573 l 1
 322 649 l 1
 318 649 l 1
 214 573 l 1
423 630 m 1xbd
 415 655 l 1
 443 665 464 678 464 701 c 0
 464 731 441 745 393 747 c 1
 396 776 l 1
 455 774 502 754 502 706 c 0
 502 660 460 642 423 630 c 1xbd
EndSplineSet
Validated: 1
Substitution2: "'ss02' Style Set 2 lookup 0 subtable" uni1EA9.a
EndChar

StartChar: uni1EAB
Encoding: 7851 7851 275
Width: 600
Flags: MW
HStem: -12 38<234.5 294.5> 0 21G<467 504 467 467> 453 39<281 372> 648 38<318 322 318 318> 707 33<366 399 366 411> 749 33<241 274>
VStem: 92 45<87.5 160.5 87.5 173.5> 190 29<704 707> 421 29<782 785> 460 44<72 72 113 267 267 267>
LayerCount: 2
Fore
SplineSet
259 -12 m 0xb640
 173 -12 92 29 92 120 c 0
 92 227 200 278 460 301 c 1
 459 380 427 453 317 453 c 0
 245 453 175 416 135 388 c 1
 115 421 l 1
 153 448 237 492 322 492 c 0
 451 492 504 410 504 307 c 2
 504 0 l 1
 467 0 l 1x7640
 462 72 l 1
 460 72 l 1
 405 28 330 -12 259 -12 c 0xb640
267 26 m 0
 328 26 393 56 460 113 c 1
 460 267 l 1
 216 245 137 199 137 122 c 0
 137 53 202 26 267 26 c 0
214 573 m 1
 196 595 l 1
 301 686 l 1
 339 686 l 1
 444 595 l 1
 426 573 l 1
 322 648 l 1
 318 648 l 1
 214 573 l 1
389 707 m 0xbec0
 329 707 296 749 252 749 c 0
 230 749 223 734 219 704 c 1
 190 707 l 1
 192 743 207 782 251 782 c 0xb740
 312 782 344 740 388 740 c 0
 410 740 417 755 421 785 c 1
 450 782 l 1
 448 746 433 707 389 707 c 0xbec0
EndSplineSet
Validated: 1
Substitution2: "'ss02' Style Set 2 lookup 0 subtable" uni1EAB.a
EndChar

StartChar: uni1EAD
Encoding: 7853 7853 276
Width: 600
Flags: MW
HStem: -197 96<287 313> -12 38<234.5 294.5> 0 21G<467 504 467 467> 453 39<281 372> 698 39<318 322 318 318>
VStem: 92 45<87.5 160.5 87.5 173.5> 253 94<-164 -134.5> 460 44<72 72 113 267 267 267>
LayerCount: 2
Fore
SplineSet
259 -12 m 0x55
 173 -12 92 29 92 120 c 0
 92 227 200 278 460 301 c 1
 459 380 427 453 317 453 c 0
 245 453 175 416 135 388 c 1
 115 421 l 1
 153 448 237 492 322 492 c 0
 451 492 504 410 504 307 c 2
 504 0 l 1
 467 0 l 1x35
 462 72 l 1
 460 72 l 1
 405 28 330 -12 259 -12 c 0x55
267 26 m 0
 328 26 393 56 460 113 c 1
 460 267 l 1
 216 245 137 199 137 122 c 0
 137 53 202 26 267 26 c 0
204 572 m 1
 182 593 l 1
 299 737 l 1
 341 737 l 1
 458 593 l 1
 436 572 l 1
 322 698 l 1
 318 698 l 1xdf
 204 572 l 1
300 -197 m 0
 274 -197 253 -179 253 -149 c 0
 253 -120 274 -101 300 -101 c 0
 326 -101 347 -120 347 -149 c 0
 347 -179 326 -197 300 -197 c 0
EndSplineSet
Validated: 1
Substitution2: "'ss02' Style Set 2 lookup 0 subtable" uni1EAD.a
EndChar

StartChar: uni1EAF
Encoding: 7855 7855 277
Width: 600
Flags: MW
HStem: -12 38<234.5 294.5> 0 21G<467 504 467 467> 453 39<281 372> 570 33<283.5 356.5 283.5 371.5> 703 20G<203 203 437 437>
VStem: 92 45<87.5 160.5 87.5 173.5> 171 32<718 723> 437 32<718 723> 460 44<72 72 113 267 267 267>
LayerCount: 2
Fore
SplineSet
259 -12 m 0xbc80
 173 -12 92 29 92 120 c 0
 92 227 200 278 460 301 c 1
 459 380 427 453 317 453 c 0
 245 453 175 416 135 388 c 1
 115 421 l 1
 153 448 237 492 322 492 c 0
 451 492 504 410 504 307 c 2
 504 0 l 1
 467 0 l 1x7c80
 462 72 l 1
 460 72 l 1
 405 28 330 -12 259 -12 c 0xbc80
267 26 m 0
 328 26 393 56 460 113 c 1
 460 267 l 1
 216 245 137 199 137 122 c 0
 137 53 202 26 267 26 c 0
320 570 m 0xbf
 217 570 179 652 171 718 c 1
 203 723 l 1
 211 666 247 603 320 603 c 0
 393 603 429 666 437 723 c 1
 469 718 l 1
 461 652 423 570 320 570 c 0xbf
307 668 m 1
 283 688 l 1
 367 801 l 1
 398 776 l 1
 307 668 l 1
EndSplineSet
Validated: 1
Substitution2: "'ss02' Style Set 2 lookup 0 subtable" uni1EAF.a
EndChar

StartChar: uni1EB1
Encoding: 7857 7857 278
Width: 600
Flags: MW
HStem: -12 38<234.5 294.5> 0 21G<467 504 467 467> 453 39<281 372> 570 33<283.5 356.5 283.5 371.5> 703 20G<203 203 437 437>
VStem: 92 45<87.5 160.5 87.5 173.5> 171 32<718 723> 437 32<718 723> 460 44<72 72 113 267 267 267>
LayerCount: 2
Fore
SplineSet
259 -12 m 0xbc80
 173 -12 92 29 92 120 c 0
 92 227 200 278 460 301 c 1
 459 380 427 453 317 453 c 0
 245 453 175 416 135 388 c 1
 115 421 l 1
 153 448 237 492 322 492 c 0
 451 492 504 410 504 307 c 2
 504 0 l 1
 467 0 l 1x7c80
 462 72 l 1
 460 72 l 1
 405 28 330 -12 259 -12 c 0xbc80
267 26 m 0
 328 26 393 56 460 113 c 1
 460 267 l 1
 216 245 137 199 137 122 c 0
 137 53 202 26 267 26 c 0
320 570 m 0xbf
 217 570 179 652 171 718 c 1
 203 723 l 1
 211 666 247 603 320 603 c 0
 393 603 429 666 437 723 c 1
 469 718 l 1
 461 652 423 570 320 570 c 0xbf
333 668 m 1
 242 776 l 1
 273 801 l 1
 357 688 l 1
 333 668 l 1
EndSplineSet
Validated: 1
Substitution2: "'ss02' Style Set 2 lookup 0 subtable" uni1EB1.a
EndChar

StartChar: uni1EB3
Encoding: 7859 7859 279
Width: 600
Flags: MW
HStem: -12 38<234.5 294.5> 0 21G<467 504 467 467> 453 39<281 372> 570 33<283.5 356.5 283.5 371.5> 703 20G<203 203 437 437> 792 33<266 270>
VStem: 92 45<87.5 160.5 87.5 173.5> 171 32<718 723> 348 38<734.5 761.5> 437 32<718 723> 460 44<72 72 113 267 267 267>
LayerCount: 2
Fore
SplineSet
259 -12 m 0xbea0
 173 -12 92 29 92 120 c 0
 92 227 200 278 460 301 c 1
 459 380 427 453 317 453 c 0
 245 453 175 416 135 388 c 1
 115 421 l 1
 153 448 237 492 322 492 c 0
 451 492 504 410 504 307 c 2
 504 0 l 1
 467 0 l 1x7ea0
 462 72 l 1
 460 72 l 1
 405 28 330 -12 259 -12 c 0xbea0
267 26 m 0
 328 26 393 56 460 113 c 1
 460 267 l 1
 216 245 137 199 137 122 c 0
 137 53 202 26 267 26 c 0
320 570 m 0xbfc0
 217 570 179 652 171 718 c 1
 203 723 l 1
 211 666 247 603 320 603 c 0
 393 603 429 666 437 723 c 1
 469 718 l 1
 461 652 423 570 320 570 c 0xbfc0
298 673 m 1
 290 701 l 1
 323 708 348 723 348 746 c 0
 348 777 322 790 266 792 c 1
 270 825 l 1
 334 823 386 801 386 752 c 0
 386 704 339 681 298 673 c 1
EndSplineSet
Validated: 1
Substitution2: "'ss02' Style Set 2 lookup 0 subtable" uni1EB3.a
EndChar

StartChar: uni1EB5
Encoding: 7861 7861 280
Width: 600
Flags: MW
HStem: -12 38<234.5 294.5> 0 21G<467 504 467 467> 453 39<281 372> 570 32<286.5 353.5 286.5 367.5> 707 33<366 399 366 411.5> 749 33<241 274>
VStem: 92 45<87.5 160.5 87.5 173.5> 182 31<674 679> 189 30<704 707> 421 30<782 785> 427 31<674 679> 460 44<72 72 113 267 267 267>
LayerCount: 2
Fore
SplineSet
259 -12 m 0xb610
 173 -12 92 29 92 120 c 0
 92 227 200 278 460 301 c 1
 459 380 427 453 317 453 c 0
 245 453 175 416 135 388 c 1
 115 421 l 1
 153 448 237 492 322 492 c 0
 451 492 504 410 504 307 c 2
 504 0 l 1
 467 0 l 1x7610
 462 72 l 1
 460 72 l 1
 405 28 330 -12 259 -12 c 0xb610
267 26 m 0
 328 26 393 56 460 113 c 1
 460 267 l 1
 216 245 137 199 137 122 c 0
 137 53 202 26 267 26 c 0
320 570 m 0xb6a0
 225 570 188 628 182 674 c 1xb690
 213 679 l 1xb710
 219 642 253 602 320 602 c 0
 387 602 421 642 427 679 c 1
 458 674 l 1
 452 628 415 570 320 570 c 0xb6a0
389 707 m 0xbe50
 329 707 296 749 252 749 c 0
 230 749 223 734 219 704 c 1
 189 707 l 1
 191 743 206 782 251 782 c 0xb690
 312 782 344 740 388 740 c 0
 410 740 417 755 421 785 c 1
 451 782 l 1
 449 746 434 707 389 707 c 0xbe50
EndSplineSet
Validated: 1
Substitution2: "'ss02' Style Set 2 lookup 0 subtable" uni1EB5.a
EndChar

StartChar: uni1EB7
Encoding: 7863 7863 281
Width: 600
Flags: MW
HStem: -197 96<287 313> -12 38<234.5 294.5> 0 21G<467 504 467 467> 453 39<281 372> 570 34<284 356 284 371.5> 703 20G<204 204 436 436>
VStem: 92 45<87.5 160.5 87.5 173.5> 171 33<718 723> 253 94<-164 -134.5> 436 33<718 723> 460 44<72 72 113 267 267 267>
LayerCount: 2
Fore
SplineSet
259 -12 m 0x5e20
 173 -12 92 29 92 120 c 0
 92 227 200 278 460 301 c 1
 459 380 427 453 317 453 c 0
 245 453 175 416 135 388 c 1
 115 421 l 1
 153 448 237 492 322 492 c 0
 451 492 504 410 504 307 c 2
 504 0 l 1
 467 0 l 1x3e20
 462 72 l 1
 460 72 l 1
 405 28 330 -12 259 -12 c 0x5e20
267 26 m 0
 328 26 393 56 460 113 c 1
 460 267 l 1
 216 245 137 199 137 122 c 0
 137 53 202 26 267 26 c 0
320 570 m 0xdfc0
 217 570 179 652 171 718 c 1
 204 723 l 1
 212 667 248 604 320 604 c 0
 392 604 428 667 436 723 c 1
 469 718 l 1
 461 652 423 570 320 570 c 0xdfc0
300 -197 m 0
 274 -197 253 -179 253 -149 c 0
 253 -120 274 -101 300 -101 c 0
 326 -101 347 -120 347 -149 c 0
 347 -179 326 -197 300 -197 c 0
EndSplineSet
Validated: 1
Substitution2: "'ss02' Style Set 2 lookup 0 subtable" uni1EB7.a
EndChar

StartChar: ae
Encoding: 230 230 282
Width: 600
GlyphClass: 2
Flags: MW
HStem: -12 39<425 482.5 413.5 486.5> 233 38<320 561 320 597 319 561> 454 38<425.5 489>
VStem: 18 44<87.5 152.5 87.5 161.5> 279 41<243 271 261 271> 561 38<271 336.5>
AnchorPoint: "Anchor-3" 310 -20 basechar 0
AnchorPoint: "Anchor-2" 457 0 basechar 0
AnchorPoint: "Anchor-0" 319 502 basechar 0
LayerCount: 2
Fore
SplineSet
143 -12 m 0
 72 -12 18 33 18 114 c 0
 18 209 90 271 279 295 c 1
 278 411 238 453 177 453 c 0
 134 453 83 431 54 410 c 1
 35 442 l 1
 67 463 122 492 181 492 c 0
 244 492 288 456 307 375 c 1
 338 456 396 492 455 492 c 0
 554 492 599 393 599 280 c 0
 599 266 599 252 597 233 c 1
 319 233 l 1
 321 111 366 27 461 27 c 0
 504 27 541 44 567 62 c 1
 585 29 l 1
 554 8 514 -12 459 -12 c 0
 391 -12 341 24 311 84 c 1
 265 28 208 -12 143 -12 c 0
151 26 m 0
 200 26 259 61 298 117 c 1
 285 154 279 196 279 243 c 2
 279 261 l 1
 108 237 62 189 62 116 c 0
 62 59 98 26 151 26 c 0
454 454 m 0
 391 454 328 404 320 271 c 1
 561 271 l 1
 558 391 524 454 454 454 c 0
EndSplineSet
Validated: 1
EndChar

StartChar: aeacute
Encoding: 509 509 283
Width: 600
Flags: MW
HStem: -12 39<425 482.5 413.5 486.5> 233 38<320 561 320 597 319 561> 454 38<425.5 489> 703 20G<432 432>
VStem: 18 44<87.5 152.5 87.5 161.5> 279 41<243 271 261 271> 561 38<271 336.5>
LayerCount: 2
Fore
SplineSet
143 -12 m 0
 72 -12 18 33 18 114 c 0
 18 209 90 271 279 295 c 1
 278 411 238 453 177 453 c 0
 134 453 83 431 54 410 c 1
 35 442 l 1
 67 463 122 492 181 492 c 0
 244 492 288 456 307 375 c 1
 338 456 396 492 455 492 c 0
 554 492 599 393 599 280 c 0
 599 266 599 252 597 233 c 1
 319 233 l 1
 321 111 366 27 461 27 c 0
 504 27 541 44 567 62 c 1
 585 29 l 1
 554 8 514 -12 459 -12 c 0
 391 -12 341 24 311 84 c 1
 265 28 208 -12 143 -12 c 0
151 26 m 0
 200 26 259 61 298 117 c 1
 285 154 279 196 279 243 c 2
 279 261 l 1
 108 237 62 189 62 116 c 0
 62 59 98 26 151 26 c 0
454 454 m 0
 391 454 328 404 320 271 c 1
 561 271 l 1
 558 391 524 454 454 454 c 0
288 572 m 1
 264 595 l 1
 398 754 l 1
 432 723 l 1
 288 572 l 1
EndSplineSet
Validated: 1
EndChar

